<?xml version="1.0" standalone="no"?>
<!DOCTYPE svg PUBLIC "-//W3C//DTD SVG 1.1//EN" "http://www.w3.org/Graphics/SVG/1.1/DTD/svg11.dtd" >
<svg>
<metadata>
Created by FontForge 20090622 at Mon Apr 22 22:29:59 2019
 By deploy user
(C) 2012. Olivier Gourvat - Mostardesign Studio. wf-rip
</metadata>
<defs>
<font id="SofiaPro-Light" horiz-adv-x="1142" >
  <font-face 
    font-family="Sofia Pro Light"
    font-weight="300"
    font-stretch="normal"
    units-per-em="2048"
    panose-1="2 11 0 0 0 0 0 0 0 0"
    ascent="1536"
    descent="-512"
    x-height="956"
    cap-height="1411"
    bbox="-348 -528 2290 2222"
    underline-thickness="102"
    underline-position="-102"
    unicode-range="U+0020-U+FB04"
  />
<missing-glyph horiz-adv-x="1300" 
d="M164 0v1362h973v-1362h-973zM379 883h127q0 76 43 123t108 47t114.5 -42t49.5 -108q0 -60 -49 -102q-32 -35 -67 -43q-92 -28 -141.5 -79t-49.5 -147v-77h127v77q0 46 25.5 67.5t76.5 35.5q88 28 145.5 99t57.5 169q0 123 -85 200t-204 77q-117 0 -197.5 -82t-80.5 -215z
M485 268q0 -38 28 -63t67 -25q38 0 65 25t27 63t-27 63t-65 25q-39 0 -67 -25t-28 -63z" />
    <glyph glyph-name="uniFB00" unicode="ff" horiz-adv-x="1386" 
d="M59 834v122h187v111q0 408 334 408h102v-129h-102q-52 0 -90 -17.5t-58.5 -43.5t-32 -65.5t-14.5 -74t-2 -78.5v-111h575v111q0 408 334 408h103v-129h-103q-52 0 -90 -17.5t-58.5 -43.5t-31.5 -66t-14 -73.5t-2 -78.5v-111h235v-122h-235v-834h-138v834h-575v-834h-137
v834h-187z" />
    <glyph glyph-name="uniFB01" unicode="fi" horiz-adv-x="1222" 
d="M59 834v122h187v111q0 408 334 408h102v-129h-102q-52 0 -90 -17.5t-58.5 -43.5t-32 -65.5t-14.5 -74t-2 -78.5v-111h678v-956h-135v834h-543v-834h-137v834h-187zM891 1313q0 42 30.5 70t73.5 28t74 -28t31 -70t-31 -70.5t-74 -28.5t-73.5 28.5t-30.5 70.5z" />
    <glyph glyph-name="uniFB02" unicode="fl" horiz-adv-x="1196" 
d="M59 834v122h187v111q0 408 334 408h450v-1475h-135v1346h-315q-52 0 -90 -17.5t-58.5 -43.5t-32 -65.5t-14.5 -74t-2 -78.5v-111h235v-122h-235v-834h-137v834h-187z" />
    <glyph glyph-name="uniFB03" unicode="ffi" horiz-adv-x="1935" 
d="M59 834v122h187v111q0 408 334 408h102v-129h-102q-52 0 -90 -17.5t-58.5 -43.5t-32 -65.5t-14.5 -74t-2 -78.5v-111h575v111q0 408 334 408h103v-129h-103q-52 0 -90 -17.5t-58.5 -43.5t-31.5 -66t-14 -73.5t-2 -78.5v-111h678v-956h-136v834h-542v-834h-138v834h-575
v-834h-137v834h-187zM1604 1313q0 42 30.5 70t73.5 28t73.5 -28t30.5 -70t-30.5 -70.5t-73.5 -28.5t-73.5 28.5t-30.5 70.5z" />
    <glyph glyph-name="uniFB04" unicode="ffl" horiz-adv-x="1908" 
d="M59 834v122h187v111q0 408 334 408h102v-129h-102q-52 0 -90 -17.5t-58.5 -43.5t-32 -65.5t-14.5 -74t-2 -78.5v-111h575v111q0 408 334 408h451v-1475h-135v1346h-316q-52 0 -90 -17.5t-58.5 -43.5t-31.5 -66t-14 -73.5t-2 -78.5v-111h235v-122h-235v-834h-138v834h-575
v-834h-137v834h-187z" />
    <glyph glyph-name="f_f_j" unicode="ffj" horiz-adv-x="1937" 
d="M59 834v122h187v111q0 408 334 408h102v-129h-102q-52 0 -90 -17.5t-58.5 -43.5t-32 -65.5t-14.5 -74t-2 -78.5v-111h575v111q0 408 334 408h103v-129h-103q-52 0 -90 -17.5t-58.5 -43.5t-31.5 -66t-14 -73.5t-2 -78.5v-111h680v-1011q0 -408 -334 -408h-103v129h103
q52 0 90 17.5t58.5 43.5t31.5 66t14 73.5t2 78.5v889h-542v-834h-138v834h-575v-834h-137v834h-187zM1604 1313q0 42 30.5 70t73.5 28t73.5 -28t30.5 -70t-30.5 -70.5t-73.5 -28.5t-73.5 28.5t-30.5 70.5z" />
    <glyph glyph-name="f_j" unicode="fj" horiz-adv-x="1224" 
d="M59 834v122h187v111q0 408 334 408h102v-129h-102q-52 0 -90 -17.5t-58.5 -43.5t-32 -65.5t-14.5 -74t-2 -78.5v-111h680v-1011q0 -408 -334 -408h-102v129h102q52 0 90 17.5t58.5 43.5t32 65.5t14.5 74t2 78.5v889h-543v-834h-137v834h-187zM891 1313q0 42 30.5 70
t73.5 28t74 -28t31 -70t-31 -70.5t-74 -28.5t-73.5 28.5t-30.5 70.5z" />
    <glyph glyph-name=".notdef" horiz-adv-x="1300" 
d="M164 0v1362h973v-1362h-973zM379 883h127q0 76 43 123t108 47t114.5 -42t49.5 -108q0 -60 -49 -102q-32 -35 -67 -43q-92 -28 -141.5 -79t-49.5 -147v-77h127v77q0 46 25.5 67.5t76.5 35.5q88 28 145.5 99t57.5 169q0 123 -85 200t-204 77q-117 0 -197.5 -82t-80.5 -215z
M485 268q0 -38 28 -63t67 -25q38 0 65 25t27 63t-27 63t-65 25q-39 0 -67 -25t-28 -63z" />
    <glyph glyph-name="NULL" horiz-adv-x="0" 
 />
    <glyph glyph-name="nonmarkingreturn" horiz-adv-x="682" 
 />
    <glyph glyph-name="space" unicode=" " horiz-adv-x="544" 
 />
    <glyph glyph-name="exclam" unicode="!" horiz-adv-x="532" 
d="M154 86q0 45 33 76t79 31t79.5 -31t33.5 -76t-33.5 -75.5t-79.5 -30.5t-79 30.5t-33 75.5zM199 1411h135l-12 -1032h-111z" />
    <glyph glyph-name="quotedbl" unicode="&#x22;" horiz-adv-x="667" 
d="M162 856v555h108v-555h-108zM397 856v555h109v-555h-109z" />
    <glyph glyph-name="numbersign" unicode="#" horiz-adv-x="1343" 
d="M76 358l35 127h225l119 439h-224l33 127h225l101 360h127l-101 -360h295l101 360h127l-101 -360h230l-35 -127h-229l-121 -439h229l-35 -127h-229l-98 -358h-127l98 358h-295l-98 -358h-125l98 358h-225zM461 485h295l121 439h-295z" />
    <glyph glyph-name="dollar" unicode="$" horiz-adv-x="1134" 
d="M102 406h136q0 -53 23 -105t63.5 -93.5t102 -67t132.5 -25.5q148 0 237.5 68.5t108.5 162.5q19 121 -57.5 194.5t-210.5 104.5l-191 43q-84 19 -146.5 51.5t-97 67t-55 79t-26.5 80t-6 76.5q0 105 57.5 191.5t150 135.5t199.5 56v195h103v-197q165 -21 269.5 -128
t104.5 -271h-135q0 121 -87 194.5t-220 73.5q-122 0 -214.5 -70.5t-92.5 -179.5q0 -33 8 -61t29.5 -60.5t69 -59t118.5 -42.5l193 -43q89 -20 159.5 -55t125 -89t77.5 -133t8 -177q-12 -59 -43.5 -114t-81 -103t-124.5 -80.5t-164 -40.5v-234h-103v232q-94 7 -174 46
t-133 98t-83 132t-30 148z" />
    <glyph glyph-name="percent" unicode="%" horiz-adv-x="1339" 
d="M80 1104q0 115 78.5 194.5t193.5 79.5q114 0 194.5 -80t80.5 -194q0 -115 -80 -194t-195 -79t-193.5 78.5t-78.5 194.5zM197 1104q0 -66 44.5 -111t110.5 -45q65 0 111.5 45.5t46.5 110.5q0 64 -47 111t-111 47q-65 0 -110 -46.5t-45 -111.5zM283 0l673 1378h97
l-674 -1378h-96zM715 252q0 115 78.5 194.5t193.5 79.5q114 0 194.5 -80t80.5 -194q0 -115 -80 -193.5t-195 -78.5t-193.5 78t-78.5 194zM831 252q0 -66 45 -111t111 -45q65 0 111.5 45.5t46.5 110.5q0 64 -46.5 111t-111.5 47t-110.5 -46.5t-45.5 -111.5z" />
    <glyph glyph-name="ampersand" unicode="&#x26;" horiz-adv-x="1359" 
d="M117 430q0 122 64.5 226t172.5 163q-58 47 -90.5 115t-32.5 149q0 143 104 243.5t257 100.5q104 0 189 -48t132 -128l-114 -71q-30 52 -84.5 82t-122.5 30q-98 0 -161.5 -59.5t-63.5 -149.5t60.5 -151.5t154.5 -61.5h319v181h133v-183h189v-120h-189v-318
q0 -58 4.5 -101.5t19 -87t38.5 -71t65.5 -44.5t98.5 -17v-129q-117 0 -200.5 52t-111.5 138q-47 -85 -151 -137.5t-222 -52.5q-200 0 -329 129.5t-129 320.5zM252 430q0 -135 89.5 -225t233.5 -90q139 0 230 86t96 215v332h-323q-137 0 -231.5 -95t-94.5 -223z" />
    <glyph glyph-name="quotesingle" unicode="'" horiz-adv-x="432" 
d="M162 856v555h108v-555h-108z" />
    <glyph glyph-name="parenleft" unicode="(" horiz-adv-x="739" 
d="M111 475q0 449 148 700.5t396 251.5v-135q-187 0 -298 -215.5t-111 -601.5q0 -383 111 -600t298 -217v-135q-248 0 -396 253t-148 699z" />
    <glyph glyph-name="parenright" unicode=")" horiz-adv-x="739" 
d="M84 -342q187 0 298.5 217.5t111.5 599.5q0 386 -111.5 601.5t-298.5 215.5v135q249 0 397 -251.5t148 -700.5q0 -446 -148.5 -699t-396.5 -253v135z" />
    <glyph glyph-name="asterisk" unicode="*" horiz-adv-x="997" 
d="M117 1098q8 28 23.5 72.5t21.5 64.5l278 -107q-2 43 -8 146.5t-8 152.5h149l-18 -299l283 107l43 -137l-289 -78l95 -120.5l93 -117.5l-114 -82l-162 248l-84 -121.5l-88 -128.5l-115 86l189 232z" />
    <glyph glyph-name="plus" unicode="+" horiz-adv-x="1069" 
d="M117 475v129h352v352h129v-352h354v-129h-354v-354h-129v354h-352z" />
    <glyph glyph-name="comma" unicode="," horiz-adv-x="499" 
d="M47 -242q134 189 129 432h158q-11 -163 -66.5 -282.5t-126.5 -177.5z" />
    <glyph glyph-name="hyphen" unicode="-" horiz-adv-x="993" 
d="M147 414v129h699v-129h-699z" />
    <glyph glyph-name="period" unicode="." horiz-adv-x="520" 
d="M147 86q0 45 33.5 76t79.5 31t79.5 -31t33.5 -76t-33.5 -75.5t-79.5 -30.5t-79.5 30.5t-33.5 75.5z" />
    <glyph glyph-name="slash" unicode="/" horiz-adv-x="968" 
d="M66 0l690 1411h149l-690 -1411h-149z" />
    <glyph glyph-name="zero" unicode="0" horiz-adv-x="1249" 
d="M139 678q0 123 13 222.5t47 190.5t87.5 152.5t139.5 98t199 36.5t198.5 -36.5t139 -98t86.5 -153t46 -190.5t13 -222q0 -122 -13 -221t-46 -190.5t-86.5 -152.5t-139 -97.5t-198.5 -36.5t-199 36.5t-139.5 98t-87.5 152.5t-47 190t-13 221zM274 678q0 -99 9.5 -178.5
t33.5 -153.5t63 -123t101 -78.5t144 -29.5t144 29.5t100 78.5t62 123t33 153.5t9 178.5q0 100 -9 179.5t-33 153.5t-62 123.5t-100 79t-144 29.5t-144 -29.5t-101 -79t-63 -123t-33.5 -154t-9.5 -179.5z" />
    <glyph glyph-name="one" unicode="1" horiz-adv-x="659" 
d="M86 1106v123l367 133v-1362h-136v1186z" />
    <glyph glyph-name="two" unicode="2" horiz-adv-x="1075" 
d="M111 1057q24 147 138.5 234t272.5 87q176 0 297 -109.5t121 -279.5q0 -180 -147 -348l-428 -506h577v-135h-817v47l569 690q111 131 111 252q0 114 -81.5 184t-201.5 70q-111 0 -192 -59.5t-94 -159.5z" />
    <glyph glyph-name="three" unicode="3" horiz-adv-x="1095" 
d="M96 233l123 56q31 -69 104 -116.5t166 -55.5q86 -5 163 27.5t125.5 94.5t53.5 138q4 115 -87.5 201t-217.5 86h-131v129h131q102 -1 173.5 63.5t76.5 157.5q5 96 -55.5 159t-179.5 70q-85 5 -158.5 -29t-108.5 -94l-108 68q54 95 157.5 147t225.5 45q125 -9 212.5 -65
t124.5 -139.5t27 -182.5q-6 -82 -58.5 -153.5t-133.5 -106.5q76 -18 136 -78.5t89 -140.5t23 -158q-15 -168 -158 -277t-330 -97q-131 10 -235 78.5t-150 172.5z" />
    <glyph glyph-name="four" unicode="4" horiz-adv-x="1200" 
d="M59 291l748 1071h100v-946h205v-125h-205v-291h-135v291h-713zM307 416h465v676z" />
    <glyph glyph-name="five" unicode="5" horiz-adv-x="1148" 
d="M98 266l117 84q38 -98 136 -163.5t204 -65.5q159 0 250.5 86.5t91.5 220.5q0 68 -27.5 125t-72 92.5t-98 54.5t-109.5 19q-99 0 -174.5 -22.5t-200.5 -84.5l-53 72l119 678h667v-137h-551l-82 -451q168 84 275 84q122 0 222.5 -49t163 -148.5t62.5 -232.5
q0 -205 -131.5 -326.5t-351.5 -121.5q-141 0 -268 80t-189 206z" />
    <glyph glyph-name="six" unicode="6" horiz-adv-x="1138" 
d="M150 438q-15 316 22 533q30 185 154.5 299t304.5 108q59 -2 106.5 -13.5t94.5 -36t86 -69.5t67 -110l-119 -51q-37 76 -97.5 108t-143.5 37q-77 3 -138 -26.5t-99.5 -81.5t-63 -125t-33 -152t-6.5 -168q33 86 127.5 128.5t195.5 39.5q120 -5 216.5 -68.5t148.5 -166.5
t47 -222q-8 -184 -136.5 -306t-310.5 -115q-179 8 -292.5 129t-130.5 329zM287 432q-1 -132 83.5 -221t209.5 -94q125 -4 212 79.5t93 211.5q5 129 -75 219t-206 94q-127 5 -220 -78t-97 -211z" />
    <glyph glyph-name="seven" unicode="7" horiz-adv-x="1060" 
d="M115 0l678 1227h-672v135h903l-750 -1362h-159z" />
    <glyph glyph-name="eight" unicode="8" horiz-adv-x="1157" 
d="M119 414q0 119 62 219t167 158q-119 95 -119 253q0 139 100.5 236.5t248.5 97.5q150 0 252 -97.5t102 -236.5q0 -76 -33.5 -142t-91.5 -111q106 -58 168.5 -158.5t62.5 -218.5q0 -182 -133 -308t-327 -126t-326.5 126t-132.5 308zM254 414q0 -125 93.5 -212t230.5 -87
t231 87t94 212t-94.5 215t-230.5 90h-15q-131 -4 -220 -94t-89 -211zM365 1044q0 -82 57.5 -140.5t144.5 -61.5h19q90 3 150.5 61.5t60.5 140.5q0 84 -63 141.5t-156 57.5q-90 0 -151.5 -57.5t-61.5 -141.5z" />
    <glyph glyph-name="nine" unicode="9" 
d="M123 954q8 184 136 306.5t310 115.5q179 -8 293 -129.5t131 -328.5q15 -316 -22 -533q-30 -185 -154.5 -299.5t-304.5 -108.5q-80 3 -143.5 22t-125 71t-98.5 137l119 51q65 -133 254 -145q77 -3 138 26.5t99.5 81.5t63 125t33 152t6.5 168q-33 -86 -127.5 -128.5
t-195.5 -39.5q-120 5 -216.5 68.5t-148.5 166t-47 221.5zM258 948q-5 -129 75 -219t206 -94q127 -5 220 78t97 211q1 132 -83.5 221t-209.5 94q-125 4 -212 -79.5t-93 -211.5z" />
    <glyph glyph-name="colon" unicode=":" horiz-adv-x="520" 
d="M147 86q0 45 33.5 76t79.5 31t79.5 -31t33.5 -76t-33.5 -75.5t-79.5 -30.5t-79.5 30.5t-33.5 75.5zM147 870q0 45 33.5 76t79.5 31t79.5 -31t33.5 -76t-33.5 -75.5t-79.5 -30.5t-79.5 30.5t-33.5 75.5z" />
    <glyph glyph-name="semicolon" unicode=";" horiz-adv-x="567" 
d="M88 -242q134 189 129 432h158q-11 -163 -66.5 -282.5t-126.5 -177.5zM184 870q0 45 33.5 76t79.5 31t79.5 -31t33.5 -76t-33.5 -75.5t-79.5 -30.5t-79.5 30.5t-33.5 75.5z" />
    <glyph glyph-name="less" unicode="&#x3c;" horiz-adv-x="1288" 
d="M100 481v148l1043 399v-147l-885 -326l885 -328v-145z" />
    <glyph glyph-name="equal" unicode="=" horiz-adv-x="1255" 
d="M158 240v129h940v-129h-940zM158 659v129h940v-129h-940z" />
    <glyph glyph-name="greater" unicode="&#x3e;" horiz-adv-x="1288" 
d="M145 82v145l885 328l-885 326v147l1043 -399v-148z" />
    <glyph glyph-name="question" unicode="?" horiz-adv-x="997" 
d="M96 1030q0 177 116 286t284 109q169 0 292 -110t123 -285q0 -142 -83.5 -244t-209.5 -139q-45 -14 -71.5 -25.5t-53.5 -32.5t-39 -53t-12 -77v-80h-135v80q0 70 19.5 123.5t58 90t84.5 60.5t109 43q84 27 141 94.5t57 159.5q0 115 -83.5 187.5t-196.5 72.5
q-111 0 -188 -71.5t-77 -188.5h-135zM262 86q0 45 33.5 76t79.5 31t79 -31t33 -76t-33 -75.5t-79 -30.5t-79.5 30.5t-33.5 75.5z" />
    <glyph glyph-name="at" unicode="@" horiz-adv-x="2021" 
d="M106 516q0 186 69.5 354.5t188.5 290.5t285 194t352 72q187 0 358.5 -66.5t299 -181t203 -278t75.5 -348.5q0 -77 -12 -154t-41 -155.5t-71.5 -138.5t-110 -98t-150.5 -38q-59 0 -108 14.5t-91 46t-65.5 89t-23.5 137.5v270v2q0 118 -83 200.5t-200 82.5t-200 -82.5
t-83 -200.5q0 -117 83 -199.5t200 -82.5q111 0 197 86v-146q-97 -65 -197 -65q-169 0 -288.5 119t-119.5 288t119.5 288.5t288.5 119.5q164 0 283 -113q119 -116 125 -276v-305q0 -152 163 -152q60 0 107.5 32t75 80.5t45 113t24 122t6.5 115.5q0 159 -65.5 299.5
t-176 238.5t-258.5 155t-309 57q-160 0 -303 -62.5t-245 -168t-162 -251t-60 -305.5t60 -304t162 -248t245 -165t303 -61h37v-125h-37q-186 0 -352 70.5t-285 191.5t-188.5 288t-69.5 353z" />
    <glyph glyph-name="A" unicode="A" horiz-adv-x="1306" 
d="M39 0l543 1411h143l543 -1411h-146l-143 371h-653l-142 -371h-145zM375 498h557l-279 725z" />
    <glyph glyph-name="B" unicode="B" horiz-adv-x="1271" 
d="M205 0v1411h514q170 0 268 -94t98 -256q0 -71 -15.5 -129.5t-55 -108t-101.5 -71.5q104 -20 176 -128t72 -229q0 -167 -106.5 -281t-288.5 -114h-561zM342 135h422q116 0 189 76.5t73 183.5q0 66 -32.5 131.5t-96 111.5t-141.5 46h-414v-549zM342 811h393
q104 0 159.5 72.5t55.5 177.5q0 104 -67 160.5t-178 56.5h-363v-467z" />
    <glyph glyph-name="C" unicode="C" horiz-adv-x="1359" 
d="M111 702q0 199 87 364.5t244.5 263t352.5 97.5q147 0 275.5 -55t225.5 -155l-94 -95q-170 170 -407 170q-159 0 -285.5 -79.5t-195 -214t-68.5 -296.5t68.5 -296t195 -212.5t285.5 -78.5q119 0 224 45.5t185 126.5l94 -97q-97 -100 -226.5 -155t-276.5 -55
q-195 0 -352.5 97t-244.5 262t-87 363z" />
    <glyph glyph-name="D" unicode="D" horiz-adv-x="1478" 
d="M205 0v1411h530q194 0 337.5 -94t215.5 -253.5t72 -361.5q0 -201 -72 -358.5t-215 -250.5t-338 -93h-530zM340 135h395q159 0 271 74.5t165.5 200.5t53.5 292q0 124 -31 227.5t-91 181.5t-154.5 121.5t-213.5 43.5h-395v-1141z" />
    <glyph glyph-name="E" unicode="E" horiz-adv-x="1144" 
d="M205 0v1411h805v-135h-670v-516h586v-135h-586v-490h692v-135h-827z" />
    <glyph glyph-name="F" unicode="F" horiz-adv-x="1064" 
d="M205 0v1411h792v-135h-657v-516h522v-135h-522v-625h-135z" />
    <glyph glyph-name="G" unicode="G" horiz-adv-x="1548" 
d="M111 702q0 148 55 282t149 231t225.5 154.5t278.5 57.5q254 0 451 -163l-96 -97q-154 125 -355 125q-160 0 -292 -79t-206.5 -214.5t-74.5 -296.5t74.5 -295.5t206.5 -213t292 -78.5q228 0 360 119t144 331h-412v127h564q0 -351 -174 -531.5t-482 -180.5
q-147 0 -278.5 57t-225.5 154t-149 230.5t-55 280.5z" />
    <glyph glyph-name="H" unicode="H" horiz-adv-x="1454" 
d="M205 0v1411h135v-647h774v647h135v-1411h-135v637h-774v-637h-135z" />
    <glyph glyph-name="I" unicode="I" horiz-adv-x="544" 
d="M205 0v1411h135v-1411h-135z" />
    <glyph glyph-name="J" unicode="J" horiz-adv-x="544" 
d="M-207 -512l12 133q13 -4 55.5 -9t59.5 -5q147 0 216 87t69 226v1491h135v-1491q0 -75 -14 -140.5t-45.5 -122.5t-79.5 -97.5t-119.5 -64t-161.5 -23.5q-57 0 -127 16z" />
    <glyph glyph-name="K" unicode="K" 
d="M205 0v1411h135v-686l532 686h160l-549 -706l668 -705h-182l-629 664v-664h-135z" />
    <glyph glyph-name="L" unicode="L" horiz-adv-x="997" 
d="M205 0v1411h135v-1276h598v-135h-733z" />
    <glyph glyph-name="M" unicode="M" horiz-adv-x="1935" 
d="M125 0l172 1411h135l537 -1100l534 1100h135l172 -1411h-133l-143 1169l-498 -1015h-135l-500 1015l-143 -1169h-133z" />
    <glyph glyph-name="N" unicode="N" horiz-adv-x="1402" 
d="M205 0v1411h145l713 -1173v1173h135v-1411h-139l-719 1182v-1182h-135z" />
    <glyph glyph-name="O" unicode="O" horiz-adv-x="1640" 
d="M111 702q0 148 55 282t149 231t225.5 154.5t278.5 57.5q197 0 360.5 -97t257 -263.5t93.5 -364.5q0 -147 -55 -280.5t-149.5 -230.5t-226.5 -154t-280 -57q-147 0 -278.5 57t-225.5 154t-149 230.5t-55 280.5zM246 702q0 -161 74.5 -295.5t206.5 -213t292 -78.5
t292.5 78.5t208 213t75.5 295.5t-75.5 296.5t-208 214.5t-292.5 79t-292 -79t-206.5 -214.5t-74.5 -296.5z" />
    <glyph glyph-name="P" unicode="P" horiz-adv-x="1230" 
d="M205 0v1411h555q104 0 182.5 -36.5t124 -99t68 -137t22.5 -159.5t-22.5 -159t-68 -135.5t-124 -97.5t-182.5 -36h-418v-551h-137zM342 686h408q72 0 126 24.5t85 66.5t46 92.5t15 109.5q0 58 -15 110t-45 94.5t-82 67.5t-120 25h-418v-590z" />
    <glyph glyph-name="Q" unicode="Q" horiz-adv-x="1640" 
d="M111 702q0 148 55 282t149 231t225.5 154.5t278.5 57.5q197 0 360.5 -97t257 -263.5t93.5 -364.5q0 -196 -94 -361.5t-254 -262.5l153 -238l-114 -73l-162 253q-113 -40 -240 -40q-147 0 -278.5 57t-225.5 154t-149 230.5t-55 280.5zM246 702q0 -161 74.5 -295.5
t206.5 -213t292 -78.5q91 0 164 20l-160 258l113 74l172 -277q132 77 209.5 213.5t77.5 298.5q0 161 -75.5 296.5t-208 214.5t-292.5 79t-292 -79t-206.5 -214.5t-74.5 -296.5z" />
    <glyph glyph-name="R" unicode="R" horiz-adv-x="1245" 
d="M205 0v1411h524q103 0 181 -36.5t122.5 -99t66 -137t21.5 -159.5q0 -66 -12.5 -125.5t-41 -114.5t-71 -95.5t-106.5 -65.5t-144 -27l390 -551h-166l-389 551h-238v-551h-137zM342 686h377q72 0 125 24t83 66.5t44 93t14 109.5t-14 110t-43 94t-80 68t-119 25h-387v-590z
" />
    <glyph glyph-name="S" unicode="S" horiz-adv-x="1163" 
d="M117 406h135q0 -53 23 -105t63.5 -93.5t102 -67t132.5 -25.5q148 0 238 68.5t109 162.5q19 121 -58 194.5t-211 104.5l-190 43q-332 75 -332 354q0 111 64 200.5t164.5 137t213.5 47.5q191 0 317 -111t126 -292h-135q0 121 -87.5 194.5t-220.5 73.5q-122 0 -214.5 -70.5
t-92.5 -179.5q0 -33 8 -61t29.5 -60.5t69 -59t118.5 -42.5l193 -43q89 -20 159.5 -55t125 -89t78 -133t8.5 -177q-13 -64 -49 -123t-93.5 -109t-145 -80t-192.5 -30q-134 0 -240.5 64t-161 160.5t-54.5 201.5z" />
    <glyph glyph-name="T" unicode="T" horiz-adv-x="1159" 
d="M59 1276v135h1041v-135h-453v-1276h-135v1276h-453z" />
    <glyph glyph-name="U" unicode="U" horiz-adv-x="1380" 
d="M190 477v934h136v-934q0 -162 105.5 -262t258.5 -100q154 0 259.5 100t105.5 262v934h135v-934q0 -147 -68.5 -262t-182 -175t-249.5 -60t-249.5 60t-182 175t-68.5 262z" />
    <glyph glyph-name="V" unicode="V" horiz-adv-x="1128" 
d="M70 1411h139l354 -1190l355 1190h139l-422 -1411h-141z" />
    <glyph glyph-name="W" unicode="W" horiz-adv-x="1859" 
d="M47 1411h143l396 -1198l293 1012h102l293 -1012l395 1198h143l-477 -1411h-129l-276 946l-277 -946h-129z" />
    <glyph glyph-name="X" unicode="X" horiz-adv-x="1210" 
d="M29 0l493 760l-438 651h166l354 -534l357 534h163l-438 -651l496 -760h-166l-412 645l-411 -645h-164z" />
    <glyph glyph-name="Y" unicode="Y" horiz-adv-x="1259" 
d="M29 1411h161l439 -608l442 608h164l-537 -756v-655h-139v655z" />
    <glyph glyph-name="Z" unicode="Z" horiz-adv-x="1146" 
d="M86 0v135l797 1139h-768v137h934v-135l-799 -1139h799v-137h-963z" />
    <glyph glyph-name="bracketleft" unicode="[" horiz-adv-x="612" 
d="M182 -463v1874h336v-137h-199v-1598h199v-139h-336z" />
    <glyph glyph-name="backslash" unicode="\" horiz-adv-x="968" 
d="M63 1411h150l690 -1411h-149z" />
    <glyph glyph-name="bracketright" unicode="]" horiz-adv-x="612" 
d="M94 -324h199v1598h-199v137h336v-1874h-336v139z" />
    <glyph glyph-name="underscore" unicode="_" horiz-adv-x="1456" 
d="M147 -121h1162v-129h-1162v129z" />
    <glyph glyph-name="grave" unicode="`" horiz-adv-x="937" 
d="M264 1411h168l143 -274h-139z" />
    <glyph glyph-name="a" unicode="a" horiz-adv-x="1253" 
d="M100 481q0 222 140.5 359t349.5 137q111 0 209.5 -45.5t150.5 -132.5v157h137v-956h-137v164q-52 -87 -151.5 -135.5t-208.5 -48.5q-208 0 -349 139t-141 362zM238 481q0 -158 101 -261t251 -103q153 0 256.5 97t103.5 267q0 85 -32 155t-84 113.5t-115 67t-129 23.5
q-152 0 -252 -99t-100 -260z" />
    <glyph glyph-name="b" unicode="b" horiz-adv-x="1253" 
d="M166 0v1475h137v-676q52 87 151 132.5t210 45.5q136 0 247 -60t176.5 -174t65.5 -262q0 -223 -140.5 -362t-348.5 -139q-109 0 -209 48.5t-152 135.5v-164h-137zM303 481q0 -170 104 -267t257 -97q150 0 251 103t101 261q0 161 -100 260t-252 99q-66 0 -129.5 -23.5
t-115.5 -67t-84 -113.5t-32 -155z" />
    <glyph glyph-name="c" unicode="c" horiz-adv-x="1032" 
d="M100 481q0 147 68.5 261.5t181.5 174.5t250 60q202 0 344 -129l-96 -96q-104 90 -248 90q-154 0 -259 -99.5t-105 -261.5t105.5 -264t258.5 -102q145 0 248 92l98 -96q-140 -131 -346 -131q-136 0 -249.5 61t-182 177t-68.5 263z" />
    <glyph glyph-name="d" unicode="d" horiz-adv-x="1253" 
d="M100 481q0 222 140.5 359t349.5 137q111 0 209.5 -45.5t150.5 -132.5v676h137v-1475h-137v164q-52 -87 -151.5 -135.5t-208.5 -48.5q-208 0 -349 139t-141 362zM238 481q0 -158 101 -261t251 -103q153 0 256.5 97t103.5 267q0 85 -32 155t-84 113.5t-115 67t-129 23.5
q-152 0 -252 -99t-100 -260z" />
    <glyph glyph-name="e" unicode="e" horiz-adv-x="1140" 
d="M100 481q0 223 138 359.5t346 136.5q207 0 338 -135.5t131 -360.5q0 -45 -2 -63h-811q19 -138 114 -220.5t230 -82.5q97 0 176 44t123 122q23 -6 71.5 -16.5t65.5 -14.5q-58 -127 -174.5 -198.5t-261.5 -71.5q-136 0 -245.5 61.5t-174 176.5t-64.5 263zM240 545h673
q-20 137 -108.5 217t-220.5 80q-135 0 -229.5 -81t-114.5 -216z" />
    <glyph glyph-name="f" unicode="f" horiz-adv-x="673" 
d="M59 834v122h187v111q0 408 334 408h102v-129h-102q-52 0 -90 -17.5t-58.5 -43.5t-32 -65.5t-14.5 -74t-2 -78.5v-111h235v-122h-235v-834h-137v834h-187z" />
    <glyph glyph-name="g" unicode="g" horiz-adv-x="1251" 
d="M100 475q0 223 141 362.5t349 139.5q109 0 208.5 -48.5t151.5 -135.5v163h137v-804q0 -629 -512 -629q-124 0 -233 59.5t-178 177.5l117 68q51 -85 128.5 -127.5t165.5 -42.5q69 0 124.5 16t103.5 53.5t80 96t50 147t17 203.5q-45 -90 -147.5 -142t-212.5 -52
q-209 0 -349.5 136.5t-140.5 358.5zM238 475q0 -161 100 -259.5t252 -98.5q66 0 129 23.5t115 66.5t84 113t32 155q0 170 -103.5 267.5t-256.5 97.5q-150 0 -251 -103t-101 -262z" />
    <glyph glyph-name="h" unicode="h" 
d="M166 0v1475h137v-676q41 87 132.5 132.5t185.5 45.5q174 0 272 -112t96 -308v-557h-137v557q0 133 -61 209t-170 76q-60 0 -114.5 -18t-101 -54t-74.5 -100t-28 -148v-522h-137z" />
    <glyph glyph-name="i" unicode="i" horiz-adv-x="466" 
d="M131 1313q0 42 31 70t74 28t73.5 -28t30.5 -70t-30.5 -70.5t-73.5 -28.5t-74 28.5t-31 70.5zM166 0v956h135v-956h-135z" />
    <glyph glyph-name="j" unicode="j" horiz-adv-x="468" 
d="M-133 -334h102q52 0 90 17.5t58.5 43.5t32 65.5t14.5 74t2 78.5v1011h137v-1011q0 -408 -334 -408h-102v129zM131 1313q0 42 31 70t74 28t73.5 -28t30.5 -70t-30.5 -70.5t-73.5 -28.5t-74 28.5t-31 70.5z" />
    <glyph glyph-name="k" unicode="k" horiz-adv-x="993" 
d="M166 0v1475h135v-897l379 378h192l-409 -409l518 -547h-186l-494 522v-522h-135z" />
    <glyph glyph-name="l" unicode="l" horiz-adv-x="466" 
d="M166 0v1475h135v-1475h-135z" />
    <glyph glyph-name="m" unicode="m" horiz-adv-x="1828" 
d="M166 0v956h137v-157q27 58 88.5 100.5t121 60t108.5 17.5q120 0 204.5 -54t126.5 -155q30 64 76.5 108t98.5 64.5t94.5 28.5t85.5 8q174 0 272 -112t96 -308v-557h-137v557q0 133 -61 209t-170 76q-60 0 -114.5 -18t-101 -54t-74.5 -100t-28 -148v-522h-137v557
q0 133 -61 209t-170 76q-60 0 -114.5 -18t-101 -54t-74.5 -100t-28 -148v-522h-137z" />
    <glyph glyph-name="n" unicode="n" 
d="M166 0v956h137v-157q41 87 132.5 132.5t185.5 45.5q174 0 272 -112t96 -308v-557h-137v557q0 133 -61 209t-170 76q-60 0 -114.5 -18t-101 -54t-74.5 -100t-28 -148v-522h-137z" />
    <glyph glyph-name="o" unicode="o" horiz-adv-x="1200" 
d="M100 481q0 147 68.5 261.5t181.5 174.5t250 60t250 -60t181.5 -174.5t68.5 -261.5t-68.5 -263t-182 -177t-249.5 -61t-249.5 61t-182 177t-68.5 263zM236 481q0 -162 105.5 -264t258.5 -102t259 102t106 264t-105.5 261.5t-259.5 99.5t-259 -99.5t-105 -261.5z" />
    <glyph glyph-name="p" unicode="p" horiz-adv-x="1253" 
d="M166 -463v1419h137v-165q52 88 152 137t209 49q208 0 348.5 -140.5t140.5 -363.5q0 -222 -140 -357.5t-349 -135.5q-111 0 -210.5 45t-150.5 131v-619h-137zM303 473q0 -85 32 -154.5t84.5 -112.5t115.5 -66t129 -23q152 0 252 97.5t100 258.5q0 159 -101 263t-251 104
q-153 0 -257 -98t-104 -269z" />
    <glyph glyph-name="q" unicode="q" horiz-adv-x="1253" 
d="M100 473q0 223 141 363.5t349 140.5q109 0 208.5 -49t151.5 -137v165h137v-1419h-137v619q-51 -86 -150 -131t-210 -45q-209 0 -349.5 135.5t-140.5 357.5zM238 473q0 -161 100 -258.5t252 -97.5q66 0 129 23t115 66t84 112.5t32 154.5q0 171 -103.5 269t-256.5 98
q-150 0 -251 -104t-101 -263z" />
    <glyph glyph-name="r" unicode="r" horiz-adv-x="772" 
d="M166 0v956h137v-217q35 122 102.5 180t172.5 58q47 0 93.5 -12t61.5 -25l-16 -133q-65 33 -139 33q-93 0 -157 -69.5t-91 -175.5t-27 -239v-356h-137z" />
    <glyph glyph-name="s" unicode="s" horiz-adv-x="868" 
d="M90 274h121q41 -165 225 -165q92 0 147.5 41.5t55.5 109.5q0 51 -33 90.5t-104 57.5l-133 30q-42 10 -74 22t-69 36t-59.5 56t-34.5 83t-5 115q15 101 103.5 164t207.5 63q118 0 200.5 -61.5t100.5 -186.5h-133q-12 54 -58.5 85.5t-109.5 31.5q-69 0 -120 -33t-58 -84
q-6 -32 1 -58t20 -42t35.5 -29t41.5 -19t43 -12l131 -30q242 -58 242 -279q0 -123 -99.5 -201.5t-250.5 -78.5q-129 0 -228.5 80.5t-105.5 213.5z" />
    <glyph glyph-name="t" unicode="t" horiz-adv-x="630" 
d="M57 834v122h172v359h138v-359h202v-122h-202v-834h-138v834h-172z" />
    <glyph glyph-name="u" unicode="u" 
d="M154 399v557h137v-557q0 -133 60.5 -208.5t170.5 -75.5q60 0 114.5 17.5t101 54t74.5 100t28 147.5v522h137v-956h-137v158q-41 -87 -132.5 -132.5t-185.5 -45.5q-174 0 -272 111.5t-96 307.5z" />
    <glyph glyph-name="v" unicode="v" horiz-adv-x="1034" 
d="M49 956h144l325 -796l324 796h145l-543 -956z" />
    <glyph glyph-name="w" unicode="w" horiz-adv-x="1646" 
d="M51 956h146l276 -739l275 739h147l276 -739l275 739h145l-358 -956h-115l-297 768l-286 -768h-115z" />
    <glyph glyph-name="x" unicode="x" horiz-adv-x="989" 
d="M31 0l381 526l-312 430h168l226 -315l227 315h168l-311 -430l380 -526h-165l-299 412l-299 -412h-164z" />
    <glyph glyph-name="y" unicode="y" horiz-adv-x="1034" 
d="M49 956h144l323 -778l326 778h145l-594 -1419h-141l190 465z" />
    <glyph glyph-name="z" unicode="z" horiz-adv-x="1013" 
d="M84 0v125l635 696h-600v135h794v-122l-645 -699h645v-135h-829z" />
    <glyph glyph-name="braceleft" unicode="{" horiz-adv-x="808" 
d="M84 422v117q53 0 92 43t39 98v352q-1 177 115 286t284 109h111v-124h-111q-110 0 -187 -76.5t-77 -194.5v-352q0 -63 -32.5 -121t-88.5 -80q52 -20 86.5 -78.5t34.5 -119.5v-349q0 -118 77 -194t187 -76h111v-125h-111q-168 0 -283.5 109t-115.5 286v349q0 55 -39 98
t-92 43z" />
    <glyph glyph-name="bar" unicode="|" horiz-adv-x="466" 
d="M182 -250v1870h103v-1870h-103z" />
    <glyph glyph-name="braceright" unicode="}" horiz-adv-x="808" 
d="M84 -338h111q110 0 187 76t77 194v349q0 61 34.5 119.5t86.5 78.5q-56 22 -88.5 80t-32.5 121v352q0 118 -77 194.5t-187 76.5h-111v124h111q168 0 284 -109t115 -286v-352q0 -55 39 -98t92 -43v-117q-53 0 -92 -43t-39 -98v-349q0 -177 -115.5 -286t-283.5 -109h-111
v125z" />
    <glyph glyph-name="exclamdown" unicode="&#xa1;" horiz-adv-x="479" 
d="M127 850q0 45 33.5 75.5t79.5 30.5t79 -30.5t33 -75.5t-33 -76t-79 -31t-79.5 31t-33.5 76zM172 -463l12 1020h111l12 -1020h-135z" />
    <glyph glyph-name="cent" unicode="&#xa2;" horiz-adv-x="1071" 
d="M106 481q0 199 118 331t300 159v223h103v-217q191 -9 323 -129l-96 -96q-104 90 -248 90q-154 0 -259 -99.5t-105 -261.5t105.5 -264t258.5 -102q145 0 248 92l98 -96q-131 -122 -325 -131v-230h-103v236q-182 27 -300 161.5t-118 333.5z" />
    <glyph glyph-name="sterling" unicode="&#xa3;" horiz-adv-x="1308" 
d="M100 0v135h201v436h-166v117h166v354q0 117 59 209t153.5 139.5t203.5 47.5q168 0 283.5 -109.5t115.5 -286.5h-135q0 117 -76.5 189t-187.5 72q-113 0 -197 -73t-84 -188v-354h332v-117h-332v-436h584q19 0 31 14.5t12 36.5v121h135v-121q0 -79 -52 -132.5t-126 -53.5
h-920z" />
    <glyph glyph-name="currency" unicode="&#xa4;" horiz-adv-x="1245" 
d="M158 322l147 149q-78 105 -78 238t80 237l-149 152l78 78l149 -152q104 80 238 80q130 0 237 -80l150 152l77 -78l-149 -152q80 -108 80 -237q0 -134 -80 -238l149 -149l-77 -78l-150 149q-104 -80 -237 -80t-240 80l-147 -149zM352 709q0 -113 79 -192t192 -79
q112 0 191 79t79 192t-78.5 191.5t-191.5 78.5t-192 -79t-79 -191z" />
    <glyph glyph-name="yen" unicode="&#xa5;" horiz-adv-x="1341" 
d="M68 1411h161l439 -608l442 608h164l-537 -758h332v-96h-332v-203h332v-96h-332v-258h-139v258h-330v96h330v203h-330v96h330z" />
    <glyph glyph-name="brokenbar" unicode="&#xa6;" horiz-adv-x="475" 
d="M186 -250v770h103v-770h-103zM186 848v772h103v-772h-103z" />
    <glyph glyph-name="section" unicode="&#xa7;" horiz-adv-x="1058" 
d="M135 760v272q0 177 116 286t284 109q129 0 231 -67t143 -184l-131 -37q-31 72 -96 112.5t-147 40.5q-111 0 -188 -71.5t-77 -188.5v-272q0 -116 77 -187t188 -71q119 0 182 55v-151q-86 -39 -182 -39q-109 0 -199.5 47t-145.5 137.5t-55 208.5zM150 96l131 37
q31 -72 96 -112.5t147 -40.5q111 0 187.5 71.5t76.5 188.5v272q0 117 -76.5 187.5t-187.5 70.5q-119 0 -182 -55v151q86 39 182 39q109 0 199.5 -47t145.5 -137.5t55 -208.5v-272q0 -177 -116 -286.5t-284 -109.5q-129 0 -231 67.5t-143 184.5z" />
    <glyph glyph-name="dieresis" unicode="&#xa8;" horiz-adv-x="1062" 
d="M246 1313q0 42 30.5 70t73.5 28t74 -28t31 -70t-31 -70.5t-74 -28.5t-73.5 28.5t-30.5 70.5zM608 1313q0 42 31 70t74 28t73.5 -28t30.5 -70t-30.5 -70.5t-73.5 -28.5t-74 28.5t-31 70.5z" />
    <glyph glyph-name="copyright" unicode="&#xa9;" horiz-adv-x="1669" 
d="M119 702q0 147 56 281t151.5 231.5t228 155t279.5 57.5q196 0 361 -97.5t260 -264t95 -363.5q0 -147 -56 -280.5t-151.5 -230.5t-228.5 -154t-280 -57t-279.5 57t-228 154t-151.5 230.5t-56 280.5zM233 702q0 -166 79.5 -305t218 -220t303.5 -81t303 81t217.5 220
t79.5 305t-79.5 306t-217.5 221.5t-303 81.5q-124 0 -235.5 -48t-191.5 -130t-127 -194.5t-47 -236.5zM477 692q0 154 105.5 260.5t259.5 106.5t268 -123l-76 -76q-88 88 -192 88q-107 0 -180.5 -75t-73.5 -181t73.5 -181t180.5 -75q104 0 196 92l74 -79q-56 -59 -126.5 -91
t-143.5 -32q-153 0 -259 106.5t-106 259.5z" />
    <glyph glyph-name="ordfeminine" unicode="&#xaa;" horiz-adv-x="974" 
d="M152 1044q0 148 91.5 237t229.5 89q162 0 225 -98v84h101v-625h-101v90q-37 -49 -99 -76.5t-126 -27.5q-137 0 -229 91t-92 236zM180 516v84h625v-84h-625zM254 1044q0 -97 63 -161t156 -64q94 0 159.5 60.5t65.5 164.5q0 106 -68 166t-157 60q-94 0 -156.5 -62
t-62.5 -164z" />
    <glyph glyph-name="guillemotleft" unicode="&#xab;" horiz-adv-x="927" 
d="M102 477l283 424h127l-283 -424l283 -424h-127zM410 477l282 424h127l-282 -424l282 -424h-127z" />
    <glyph glyph-name="logicalnot" unicode="&#xac;" horiz-adv-x="1318" 
d="M158 592v129h1003v-463h-129v334h-874z" />
    <glyph glyph-name="registered" unicode="&#xae;" horiz-adv-x="1669" 
d="M119 702q0 147 56 281t151.5 231.5t228 155t279.5 57.5q196 0 361 -97.5t260 -264t95 -363.5q0 -147 -56 -280.5t-151.5 -230.5t-228.5 -154t-280 -57t-279.5 57t-228 154t-151.5 230.5t-56 280.5zM233 702q0 -166 79.5 -305t218 -220t303.5 -81t303 81t217.5 220
t79.5 305t-79.5 306t-217.5 221.5t-303 81.5q-124 0 -235.5 -48t-191.5 -130t-127 -194.5t-47 -236.5zM608 336v717h273q109 0 167 -68t58 -162q0 -80 -46.5 -144.5t-129.5 -78.5l188 -264h-135l-186 260h-76v-260h-113zM721 707h156q54 0 86 34.5t32 81.5t-31 82t-83 35
h-160v-233z" />
    <glyph glyph-name="macron" unicode="&#xaf;" horiz-adv-x="978" 
d="M246 1241v129h487v-129h-487z" />
    <glyph glyph-name="degree" unicode="&#xb0;" horiz-adv-x="749" 
d="M119 1171q0 106 75 181t181 75t181 -75t75 -181t-75 -181t-181 -75t-181 75t-75 181zM223 1171q0 -63 44.5 -107t107.5 -44t107 44t44 107t-44 107.5t-107 44.5t-107.5 -44.5t-44.5 -107.5z" />
    <glyph glyph-name="plusminus" unicode="&#xb1;" horiz-adv-x="1118" 
d="M150 0v129h819v-129h-819zM150 561v129h344v324h129v-324h346v-129h-346v-325h-129v325h-344z" />
    <glyph glyph-name="uni00B2" unicode="&#xb2;" horiz-adv-x="657" 
d="M68 1565q15 96 85 153.5t166 57.5q106 0 179 -67t73 -171q0 -105 -88 -207l-113 -134l-106 -126h307v-108h-493v49l325 393q60 74 60 133q0 57 -41.5 93t-102.5 36q-58 0 -101 -34.5t-50 -92.5z" />
    <glyph glyph-name="uni00B3" unicode="&#xb3;" horiz-adv-x="665" 
d="M53 1118q16 8 45.5 25.5t44.5 25.5q20 -44 62.5 -73t93.5 -35q67 -5 120 34.5t56 98.5q3 58 -45 101.5t-113 43.5h-90v105h90q44 0 75.5 27t37.5 67q7 52 -22.5 87.5t-85.5 41.5q-90 9 -144 -72q-16 11 -43 34.5t-35 29.5q33 58 95.5 90.5t136.5 28.5q97 -6 160 -72
t61 -152q-2 -48 -27 -90.5t-69 -68.5q60 -21 97.5 -85t31.5 -130q-9 -102 -95.5 -169t-199.5 -59q-78 6 -142.5 51.5t-95.5 114.5z" />
    <glyph glyph-name="acute" unicode="&#xb4;" horiz-adv-x="937" 
d="M264 1137l144 274h167l-172 -274h-139z" />
    <glyph glyph-name="uni00B5" unicode="&#xb5;" horiz-adv-x="1140" 
d="M178 -334v1290h137v-557q0 -133 61 -208.5t171 -75.5q60 0 114 17.5t101 54t74.5 100t27.5 147.5v522h137v-956h-137v158q-41 -87 -132.5 -132.5t-184.5 -45.5q-163 0 -232 86v-400h-137z" />
    <glyph glyph-name="paragraph" unicode="&#xb6;" horiz-adv-x="1253" 
d="M74 969q0 183 129 312.5t313 129.5h135v-1532h-135v647q-184 0 -313 129t-129 314zM516 -240h113q52 0 94.5 36t42.5 83v1532h135q113 0 193 -80t80 -192v-162h-136v162q0 57 -40 97t-97 40v-1364q0 -20 -4 -43q-15 -97 -91 -163t-177 -66h-113v120z" />
    <glyph glyph-name="periodcentered" unicode="&#xb7;" horiz-adv-x="520" 
d="M147 539q0 45 33.5 75.5t79.5 30.5t79.5 -30.5t33.5 -75.5t-33.5 -76t-79.5 -31t-79.5 31t-33.5 76z" />
    <glyph glyph-name="cedilla" unicode="&#xb8;" horiz-adv-x="1056" 
d="M328 -207l108 -8q4 -31 8 -39q15 -35 50.5 -50.5t70.5 -2.5q37 17 51.5 53.5t-0.5 71.5l-100 235h115l80 -192q34 -82 3.5 -157t-110.5 -107q-77 -32 -150.5 -1t-107.5 109q-18 47 -18 88z" />
    <glyph glyph-name="uni00B9" unicode="&#xb9;" horiz-adv-x="413" 
d="M57 1581v105l240 88v-811h-109v665z" />
    <glyph glyph-name="ordmasculine" unicode="&#xba;" horiz-adv-x="972" 
d="M156 1049q0 147 94.5 236t232.5 89t233 -89t95 -236q0 -144 -95.5 -236t-232.5 -92t-232 91.5t-95 236.5zM176 516v84h625v-84h-625zM256 1049q0 -100 66 -164t161 -64t162.5 64t67.5 164q0 102 -67 164.5t-163 62.5t-161.5 -62t-65.5 -165z" />
    <glyph glyph-name="guillemotright" unicode="&#xbb;" horiz-adv-x="927" 
d="M109 53l282 424l-282 424h127l282 -424l-282 -424h-127zM416 53l282 424l-282 424h127l282 -424l-282 -424h-127z" />
    <glyph glyph-name="onequarter" unicode="&#xbc;" horiz-adv-x="1568" 
d="M100 1178v104l240 88v-811h-109v666zM168 -20l917 1398h136l-918 -1398h-135zM842 166l444 637h82v-535h117v-102h-117v-166h-108v166h-418zM1028 268h232v338z" />
    <glyph glyph-name="onehalf" unicode="&#xbd;" horiz-adv-x="1572" 
d="M106 1178v104l240 88v-811h-108v666zM145 -20l918 1398h135l-917 -1398h-136zM958 602q15 96 85.5 153.5t166.5 57.5q106 0 179 -67t73 -171t-88 -206l-113 -134l-106 -126h307v-109h-493v49l325 393q60 74 60 133q0 57 -41.5 93.5t-102.5 36.5q-58 0 -101 -34.5
t-50 -92.5z" />
    <glyph glyph-name="threequarters" unicode="&#xbe;" horiz-adv-x="1658" 
d="M90 715q15 8 45 25.5t45 25.5q20 -44 62.5 -73.5t93.5 -35.5q67 -5 120 35t56 99q3 58 -45 101.5t-113 43.5h-90v104h90q44 0 75.5 27.5t37.5 67.5q7 52 -23 87.5t-86 41.5q-89 9 -143 -72q-16 12 -44.5 35.5l-33.5 27.5q33 58 95.5 90.5t136.5 28.5q97 -6 160 -71.5
t61 -151.5q-2 -48 -27 -91t-69 -69q60 -21 97.5 -85t31.5 -130q-9 -102 -95.5 -168.5t-199.5 -58.5q-78 6 -142.5 51.5t-95.5 114.5zM317 -20l918 1398h135l-917 -1398h-136zM928 166l444 637h82v-535h117v-102h-117v-166h-108v166h-418zM1114 268h232v338z" />
    <glyph glyph-name="questiondown" unicode="&#xbf;" horiz-adv-x="970" 
d="M74 -74q0 142 83.5 244t209.5 139q85 26 130.5 73.5t45.5 135.5v60h135v-60q0 -257 -270 -338q-84 -27 -141.5 -94.5t-57.5 -159.5q0 -115 83.5 -187.5t196.5 -72.5q111 0 188 71.5t77 188.5h135q0 -177 -116 -286t-284 -109q-169 0 -292 110t-123 285zM498 870
q0 45 33 76t79 31t79.5 -31t33.5 -76t-33.5 -75.5t-79.5 -30.5t-79 30.5t-33 75.5z" />
    <glyph glyph-name="Agrave" unicode="&#xc0;" horiz-adv-x="1306" 
d="M39 0l543 1411h143l543 -1411h-146l-143 371h-653l-142 -371h-145zM375 498h557l-279 725zM412 1821h168l143 -275h-139z" />
    <glyph glyph-name="Aacute" unicode="&#xc1;" horiz-adv-x="1306" 
d="M39 0l543 1411h143l543 -1411h-146l-143 371h-653l-142 -371h-145zM375 498h557l-279 725zM578 1546l143 275h168l-172 -275h-139z" />
    <glyph glyph-name="Acircumflex" unicode="&#xc2;" horiz-adv-x="1306" 
d="M39 0l543 1411h143l543 -1411h-146l-143 371h-653l-142 -371h-145zM369 1546l194 275h178l195 -275h-139l-146 176l-143 -176h-139zM375 498h557l-279 725z" />
    <glyph glyph-name="Atilde" unicode="&#xc3;" horiz-adv-x="1306" 
d="M39 0l543 1411h143l543 -1411h-146l-143 371h-653l-142 -371h-145zM375 498h557l-279 725zM385 1599q7 116 57.5 169t116.5 53q39 0 72.5 -21.5t61 -43t52.5 -21.5q26 0 47.5 20t22.5 66h105q-7 -115 -57.5 -165t-117.5 -50q-38 0 -71.5 21.5t-61.5 43t-53 21.5
t-47 -23.5t-23 -69.5h-104z" />
    <glyph glyph-name="Adieresis" unicode="&#xc4;" horiz-adv-x="1306" 
d="M39 0l543 1411h143l543 -1411h-146l-143 371h-653l-142 -371h-145zM367 1722q0 42 30.5 70.5t73.5 28.5t73.5 -28.5t30.5 -70.5t-30.5 -70t-73.5 -28t-73.5 28t-30.5 70zM375 498h557l-279 725zM729 1722q0 42 31 70.5t74 28.5t73.5 -28.5t30.5 -70.5t-30.5 -70
t-73.5 -28t-74 28t-31 70z" />
    <glyph glyph-name="Aring" unicode="&#xc5;" horiz-adv-x="1306" 
d="M39 0l543 1411h143l543 -1411h-146l-143 371h-653l-142 -371h-145zM375 498h557l-279 725zM455 1743q0 85 56.5 143t139.5 58q85 0 143 -58t58 -143q0 -83 -58 -140t-143 -57q-83 0 -139.5 57t-56.5 140zM561 1745q0 -40 26 -66t66 -26q39 0 65.5 26.5t26.5 65.5
q0 38 -27 65t-65 27q-39 0 -65.5 -26.5t-26.5 -65.5z" />
    <glyph glyph-name="AE" unicode="&#xc6;" horiz-adv-x="1929" 
d="M20 0l891 1411h883v-135h-670v-516h586v-135h-586v-490h693v-135h-828v371h-573l-236 -371h-160zM496 498h493v778z" />
    <glyph glyph-name="Ccedilla" unicode="&#xc7;" horiz-adv-x="1361" 
d="M113 702q0 199 87 364.5t244.5 263t352.5 97.5q147 0 275.5 -55t225.5 -155l-94 -95q-170 170 -407 170q-159 0 -285.5 -79.5t-195 -214t-68.5 -296.5t68.5 -296t195 -212.5t285.5 -78.5q119 0 224 45.5t185 126.5l94 -97q-93 -96 -216.5 -151t-262.5 -59l49 -119
q34 -82 4 -157t-110 -107q-77 -32 -150.5 -1t-107.5 109q-19 49 -19 88l109 -8q0 -23 8 -39q15 -35 50.5 -50.5t70.5 -2.5q37 17 51.5 53.5t-0.5 71.5l-71 168q-261 34 -426.5 236t-165.5 480z" />
    <glyph glyph-name="Egrave" unicode="&#xc8;" horiz-adv-x="1144" 
d="M205 0v1411h805v-135h-670v-516h586v-135h-586v-490h692v-135h-827zM391 1821h168l143 -275h-139z" />
    <glyph glyph-name="Eacute" unicode="&#xc9;" horiz-adv-x="1144" 
d="M205 0v1411h805v-135h-670v-516h586v-135h-586v-490h692v-135h-827zM487 1546l144 275h168l-172 -275h-140z" />
    <glyph glyph-name="Ecircumflex" unicode="&#xca;" horiz-adv-x="1144" 
d="M205 0v1411h805v-135h-670v-516h586v-135h-586v-490h692v-135h-827zM295 1546l194 275h179l194 -275h-139l-145 176l-144 -176h-139z" />
    <glyph glyph-name="Edieresis" unicode="&#xcb;" horiz-adv-x="1144" 
d="M205 0v1411h805v-135h-670v-516h586v-135h-586v-490h692v-135h-827zM291 1722q0 42 30.5 70.5t73.5 28.5t74 -28.5t31 -70.5t-31 -70t-74 -28t-73.5 28t-30.5 70zM653 1722q0 42 31 70.5t74 28.5t73.5 -28.5t30.5 -70.5t-30.5 -70t-73.5 -28t-74 28t-31 70z" />
    <glyph glyph-name="Igrave" unicode="&#xcc;" horiz-adv-x="544" 
d="M29 1821h168l143 -275h-139zM205 0v1411h135v-1411h-135z" />
    <glyph glyph-name="Iacute" unicode="&#xcd;" horiz-adv-x="544" 
d="M203 1546l143 275h168l-172 -275h-139zM205 0v1411h135v-1411h-135z" />
    <glyph glyph-name="Icircumflex" unicode="&#xce;" horiz-adv-x="544" 
d="M-10 1546l194 275h178l195 -275h-139l-146 176l-143 -176h-139zM205 0v1411h135v-1411h-135z" />
    <glyph glyph-name="Idieresis" unicode="&#xcf;" horiz-adv-x="544" 
d="M-12 1722q0 42 30.5 70.5t73.5 28.5t74 -28.5t31 -70.5t-31 -70t-74 -28t-73.5 28t-30.5 70zM205 0v1411h135v-1411h-135zM350 1722q0 42 31 70.5t74 28.5t73.5 -28.5t30.5 -70.5t-30.5 -70t-73.5 -28t-74 28t-31 70z" />
    <glyph glyph-name="Eth" unicode="&#xd0;" horiz-adv-x="1488" 
d="M14 643v125h201v643h530q194 0 337.5 -94t215.5 -253.5t72 -361.5q0 -201 -72 -358.5t-215 -250.5t-338 -93h-530v643h-201zM350 135h395q159 0 271 74.5t165.5 200.5t53.5 292q0 124 -31 227.5t-91 181.5t-154.5 121.5t-213.5 43.5h-395v-508h352v-125h-352v-508z" />
    <glyph glyph-name="Ntilde" unicode="&#xd1;" horiz-adv-x="1402" 
d="M205 0v1411h145l713 -1173v1173h135v-1411h-139l-719 1182v-1182h-135zM434 1599q7 116 57.5 169t116.5 53q39 0 73 -21.5t61.5 -43t52.5 -21.5q26 0 47 20t22 66h105q-7 -115 -57 -165t-117 -50q-38 0 -72 21.5t-62 43t-53 21.5q-24 0 -46 -23.5t-23 -69.5h-105z" />
    <glyph glyph-name="Ograve" unicode="&#xd2;" horiz-adv-x="1640" 
d="M111 702q0 148 55 282t149 231t225.5 154.5t278.5 57.5q197 0 360.5 -97t257 -263.5t93.5 -364.5q0 -147 -55 -280.5t-149.5 -230.5t-226.5 -154t-280 -57q-147 0 -278.5 57t-225.5 154t-149 230.5t-55 280.5zM246 702q0 -161 74.5 -295.5t206.5 -213t292 -78.5
t292.5 78.5t208 213t75.5 295.5t-75.5 296.5t-208 214.5t-292.5 79t-292 -79t-206.5 -214.5t-74.5 -296.5zM592 1821h168l143 -275h-139z" />
    <glyph glyph-name="Oacute" unicode="&#xd3;" horiz-adv-x="1640" 
d="M111 702q0 148 55 282t149 231t225.5 154.5t278.5 57.5q197 0 360.5 -97t257 -263.5t93.5 -364.5q0 -147 -55 -280.5t-149.5 -230.5t-226.5 -154t-280 -57q-147 0 -278.5 57t-225.5 154t-149 230.5t-55 280.5zM246 702q0 -161 74.5 -295.5t206.5 -213t292 -78.5
t292.5 78.5t208 213t75.5 295.5t-75.5 296.5t-208 214.5t-292.5 79t-292 -79t-206.5 -214.5t-74.5 -296.5zM725 1546l143 275h168l-172 -275h-139z" />
    <glyph glyph-name="Ocircumflex" unicode="&#xd4;" horiz-adv-x="1640" 
d="M111 702q0 148 55 282t149 231t225.5 154.5t278.5 57.5q197 0 360.5 -97t257 -263.5t93.5 -364.5q0 -147 -55 -280.5t-149.5 -230.5t-226.5 -154t-280 -57q-147 0 -278.5 57t-225.5 154t-149 230.5t-55 280.5zM246 702q0 -161 74.5 -295.5t206.5 -213t292 -78.5
t292.5 78.5t208 213t75.5 295.5t-75.5 296.5t-208 214.5t-292.5 79t-292 -79t-206.5 -214.5t-74.5 -296.5zM537 1546l194 275h178l195 -275h-139l-146 176l-143 -176h-139z" />
    <glyph glyph-name="Otilde" unicode="&#xd5;" horiz-adv-x="1640" 
d="M111 702q0 148 55 282t149 231t225.5 154.5t278.5 57.5q197 0 360.5 -97t257 -263.5t93.5 -364.5q0 -147 -55 -280.5t-149.5 -230.5t-226.5 -154t-280 -57q-147 0 -278.5 57t-225.5 154t-149 230.5t-55 280.5zM246 702q0 -161 74.5 -295.5t206.5 -213t292 -78.5
t292.5 78.5t208 213t75.5 295.5t-75.5 296.5t-208 214.5t-292.5 79t-292 -79t-206.5 -214.5t-74.5 -296.5zM553 1599q7 116 57.5 169t116.5 53q39 0 72.5 -21.5t61 -43t52.5 -21.5q26 0 47.5 20t22.5 66h104q-7 -115 -57 -165t-117 -50q-38 0 -71.5 21.5t-61.5 43t-53 21.5
t-47 -23.5t-23 -69.5h-104z" />
    <glyph glyph-name="Odieresis" unicode="&#xd6;" horiz-adv-x="1640" 
d="M111 702q0 148 55 282t149 231t225.5 154.5t278.5 57.5q197 0 360.5 -97t257 -263.5t93.5 -364.5q0 -147 -55 -280.5t-149.5 -230.5t-226.5 -154t-280 -57q-147 0 -278.5 57t-225.5 154t-149 230.5t-55 280.5zM246 702q0 -161 74.5 -295.5t206.5 -213t292 -78.5
t292.5 78.5t208 213t75.5 295.5t-75.5 296.5t-208 214.5t-292.5 79t-292 -79t-206.5 -214.5t-74.5 -296.5zM535 1722q0 42 30.5 70.5t73.5 28.5t73.5 -28.5t30.5 -70.5t-30.5 -70t-73.5 -28t-73.5 28t-30.5 70zM897 1722q0 42 30.5 70.5t73.5 28.5t74 -28.5t31 -70.5
t-31 -70t-74 -28t-73.5 28t-30.5 70z" />
    <glyph glyph-name="multiply" unicode="&#xd7;" horiz-adv-x="1001" 
d="M139 293l271 270l-271 271l92 90l269 -269l272 271l90 -92l-270 -271l270 -270l-90 -92l-272 270l-269 -268z" />
    <glyph glyph-name="Oslash" unicode="&#xd8;" horiz-adv-x="1636" 
d="M109 702q0 148 55 282t149 231t225.5 154.5t278.5 57.5q133 0 253 -46.5t214 -129.5l178 183l76 -76l-178 -184q168 -205 168 -472q0 -147 -55 -280.5t-149.5 -230.5t-226.5 -154t-280 -57q-261 0 -459 167l-163 -170l-76 76l164 170q-174 203 -174 479zM244 702
q0 -222 133 -383l813 834q-162 139 -373 139q-160 0 -292 -79t-206.5 -214.5t-74.5 -296.5zM453 244q158 -129 364 -129q160 0 292.5 78.5t208 213t75.5 295.5q0 215 -129 375z" />
    <glyph glyph-name="Ugrave" unicode="&#xd9;" horiz-adv-x="1380" 
d="M190 477v934h136v-934q0 -162 105.5 -262t258.5 -100q154 0 259.5 100t105.5 262v934h135v-934q0 -147 -68.5 -262t-182 -175t-249.5 -60t-249.5 60t-182 175t-68.5 262zM453 1821h168l143 -275h-139z" />
    <glyph glyph-name="Uacute" unicode="&#xda;" horiz-adv-x="1380" 
d="M190 477v934h136v-934q0 -162 105.5 -262t258.5 -100q154 0 259.5 100t105.5 262v934h135v-934q0 -147 -68.5 -262t-182 -175t-249.5 -60t-249.5 60t-182 175t-68.5 262zM602 1546l143 275h168l-172 -275h-139z" />
    <glyph glyph-name="Ucircumflex" unicode="&#xdb;" horiz-adv-x="1380" 
d="M190 477v934h136v-934q0 -162 105.5 -262t258.5 -100q154 0 259.5 100t105.5 262v934h135v-934q0 -147 -68.5 -262t-182 -175t-249.5 -60t-249.5 60t-182 175t-68.5 262zM406 1546l194 275h178l195 -275h-139l-146 176l-143 -176h-139z" />
    <glyph glyph-name="Udieresis" unicode="&#xdc;" horiz-adv-x="1380" 
d="M190 477v934h136v-934q0 -162 105.5 -262t258.5 -100q154 0 259.5 100t105.5 262v934h135v-934q0 -147 -68.5 -262t-182 -175t-249.5 -60t-249.5 60t-182 175t-68.5 262zM403 1722q0 42 31 70.5t74 28.5t73.5 -28.5t30.5 -70.5t-30.5 -70t-73.5 -28t-74 28t-31 70z
M766 1722q0 42 30.5 70.5t73.5 28.5t74 -28.5t31 -70.5t-31 -70t-74 -28t-73.5 28t-30.5 70z" />
    <glyph glyph-name="Yacute" unicode="&#xdd;" horiz-adv-x="1259" 
d="M29 1411h161l439 -608l442 608h164l-537 -756v-655h-139v655zM553 1546l143 275h168l-172 -275h-139z" />
    <glyph glyph-name="Thorn" unicode="&#xde;" horiz-adv-x="1171" 
d="M205 0v1411h137v-262h332q179 0 299.5 -117t120.5 -307q0 -191 -120.5 -310.5t-299.5 -119.5h-332v-295h-137zM342 430h332q121 0 202.5 82t81.5 213q0 129 -81.5 209t-202.5 80h-332v-584z" />
    <glyph glyph-name="germandbls" unicode="&#xdf;" horiz-adv-x="1161" 
d="M166 0v1030q0 197 111 309.5t290 112.5h21q153 0 256.5 -100t103.5 -244q0 -84 -42 -156t-115 -108q120 -28 196 -148.5t76 -251.5q0 -125 -58 -229t-163.5 -165.5t-237.5 -61.5q-105 -3 -211 41v129q89 -41 207 -41q143 0 235.5 96t92.5 231q0 129 -95 228.5t-231 99.5
h-70v123h66q94 0 154.5 61.5t60.5 151.5q0 89 -63.5 150t-161.5 65h-21q-114 0 -190 -79.5t-76 -213.5v-1030h-135z" />
    <glyph glyph-name="agrave" unicode="&#xe0;" horiz-adv-x="1253" 
d="M100 481q0 222 140.5 359t349.5 137q111 0 209.5 -45.5t150.5 -132.5v157h137v-956h-137v164q-52 -87 -151.5 -135.5t-208.5 -48.5q-208 0 -349 139t-141 362zM238 481q0 -158 101 -261t251 -103q153 0 256.5 97t103.5 267q0 85 -32 155t-84 113.5t-115 67t-129 23.5
q-152 0 -252 -99t-100 -260zM401 1411h168l144 -274h-140z" />
    <glyph glyph-name="aacute" unicode="&#xe1;" horiz-adv-x="1253" 
d="M100 481q0 222 140.5 359t349.5 137q111 0 209.5 -45.5t150.5 -132.5v157h137v-956h-137v164q-52 -87 -151.5 -135.5t-208.5 -48.5q-208 0 -349 139t-141 362zM238 481q0 -158 101 -261t251 -103q153 0 256.5 97t103.5 267q0 85 -32 155t-84 113.5t-115 67t-129 23.5
q-152 0 -252 -99t-100 -260zM520 1137l144 274h167l-172 -274h-139z" />
    <glyph glyph-name="acircumflex" unicode="&#xe2;" horiz-adv-x="1253" 
d="M100 481q0 222 140.5 359t349.5 137q111 0 209.5 -45.5t150.5 -132.5v157h137v-956h-137v164q-52 -87 -151.5 -135.5t-208.5 -48.5q-208 0 -349 139t-141 362zM238 481q0 -158 101 -261t251 -103q153 0 256.5 97t103.5 267q0 85 -32 155t-84 113.5t-115 67t-129 23.5
q-152 0 -252 -99t-100 -260zM340 1137l195 274h178l194 -274h-139l-145 176l-144 -176h-139z" />
    <glyph glyph-name="atilde" unicode="&#xe3;" horiz-adv-x="1253" 
d="M100 481q0 222 140.5 359t349.5 137q111 0 209.5 -45.5t150.5 -132.5v157h137v-956h-137v164q-52 -87 -151.5 -135.5t-208.5 -48.5q-208 0 -349 139t-141 362zM238 481q0 -158 101 -261t251 -103q153 0 256.5 97t103.5 267q0 85 -32 155t-84 113.5t-115 67t-129 23.5
q-152 0 -252 -99t-100 -260zM356 1190q7 116 57.5 168.5t116.5 52.5q39 0 73 -21.5t61.5 -43t52.5 -21.5q26 0 47 20t22 66h105q-7 -115 -57 -165t-117 -50q-38 0 -72 21.5t-62 43t-53 21.5t-46.5 -23t-22.5 -69h-105z" />
    <glyph glyph-name="adieresis" unicode="&#xe4;" horiz-adv-x="1253" 
d="M100 481q0 222 140.5 359t349.5 137q111 0 209.5 -45.5t150.5 -132.5v157h137v-956h-137v164q-52 -87 -151.5 -135.5t-208.5 -48.5q-208 0 -349 139t-141 362zM238 481q0 -158 101 -261t251 -103q153 0 256.5 97t103.5 267q0 85 -32 155t-84 113.5t-115 67t-129 23.5
q-152 0 -252 -99t-100 -260zM338 1313q0 42 30.5 70t73.5 28t74 -28t31 -70t-31 -70.5t-74 -28.5t-73.5 28.5t-30.5 70.5zM700 1313q0 42 31 70t74 28t73.5 -28t30.5 -70t-30.5 -70.5t-73.5 -28.5t-74 28.5t-31 70.5z" />
    <glyph glyph-name="aring" unicode="&#xe5;" horiz-adv-x="1253" 
d="M100 481q0 222 140.5 359t349.5 137q111 0 209.5 -45.5t150.5 -132.5v157h137v-956h-137v164q-52 -87 -151.5 -135.5t-208.5 -48.5q-208 0 -349 139t-141 362zM238 481q0 -158 101 -261t251 -103q153 0 256.5 97t103.5 267q0 85 -32 155t-84 113.5t-115 67t-129 23.5
q-152 0 -252 -99t-100 -260zM426 1333q0 85 57 143t140 58q85 0 142.5 -58t57.5 -143q0 -83 -57.5 -139.5t-142.5 -56.5q-83 0 -140 56.5t-57 139.5zM532 1335q0 -40 26.5 -66t66.5 -26q39 0 65.5 26.5t26.5 65.5q0 38 -27 65t-65 27q-39 0 -66 -26.5t-27 -65.5z" />
    <glyph glyph-name="ae" unicode="&#xe6;" horiz-adv-x="1992" 
d="M100 481q0 222 140.5 359t349.5 137q111 0 209.5 -45.5t150.5 -132.5v157h137v-118q133 139 349 139q207 0 338 -135.5t131 -360.5q0 -45 -2 -63h-811q19 -138 114 -220.5t230 -82.5q97 0 176 44t123 122q23 -6 71.5 -16.5t65.5 -14.5q-58 -127 -174.5 -198.5
t-261.5 -71.5q-214 0 -349 141v-121h-137v164q-52 -87 -151.5 -135.5t-208.5 -48.5q-208 0 -349 139t-141 362zM238 481q0 -158 101 -261t251 -103q153 0 256.5 97t103.5 267q0 85 -32 155t-84 113.5t-115 67t-129 23.5q-152 0 -252 -99t-100 -260zM1092 545h673
q-20 137 -108.5 217t-220.5 80q-135 0 -229.5 -81t-114.5 -216z" />
    <glyph glyph-name="ccedilla" unicode="&#xe7;" horiz-adv-x="1034" 
d="M100 481q0 147 68.5 261.5t181.5 174.5t250 60q202 0 344 -129l-96 -96q-104 90 -248 90q-154 0 -259 -99.5t-105 -261.5t105.5 -264t258.5 -102q145 0 248 92l98 -96q-123 -114 -299 -129l51 -121q35 -82 4.5 -157t-110.5 -107q-77 -32 -150.5 -1t-107.5 109
q-19 49 -19 88l109 -8q2 -5 3.5 -18.5t4.5 -20.5q15 -35 50.5 -50.5t70.5 -2.5q37 17 51.5 53.5t-0.5 71.5l-72 166q-187 22 -309.5 157.5t-122.5 339.5z" />
    <glyph glyph-name="egrave" unicode="&#xe8;" horiz-adv-x="1140" 
d="M100 481q0 223 138 359.5t346 136.5q207 0 338 -135.5t131 -360.5q0 -45 -2 -63h-811q19 -138 114 -220.5t230 -82.5q97 0 176 44t123 122q23 -6 71.5 -16.5t65.5 -14.5q-58 -127 -174.5 -198.5t-261.5 -71.5q-136 0 -245.5 61.5t-174 176.5t-64.5 263zM240 545h673
q-20 137 -108.5 217t-220.5 80q-135 0 -229.5 -81t-114.5 -216zM346 1411h168l143 -274h-139z" />
    <glyph glyph-name="eacute" unicode="&#xe9;" horiz-adv-x="1140" 
d="M100 481q0 223 138 359.5t346 136.5q207 0 338 -135.5t131 -360.5q0 -45 -2 -63h-811q19 -138 114 -220.5t230 -82.5q97 0 176 44t123 122q23 -6 71.5 -16.5t65.5 -14.5q-58 -127 -174.5 -198.5t-261.5 -71.5q-136 0 -245.5 61.5t-174 176.5t-64.5 263zM240 545h673
q-20 137 -108.5 217t-220.5 80q-135 0 -229.5 -81t-114.5 -216zM494 1137l143 274h168l-172 -274h-139z" />
    <glyph glyph-name="ecircumflex" unicode="&#xea;" horiz-adv-x="1140" 
d="M100 481q0 223 138 359.5t346 136.5q207 0 338 -135.5t131 -360.5q0 -45 -2 -63h-811q19 -138 114 -220.5t230 -82.5q97 0 176 44t123 122q23 -6 71.5 -16.5t65.5 -14.5q-58 -127 -174.5 -198.5t-261.5 -71.5q-136 0 -245.5 61.5t-174 176.5t-64.5 263zM240 545h673
q-20 137 -108.5 217t-220.5 80q-135 0 -229.5 -81t-114.5 -216zM293 1137l194 274h179l194 -274h-139l-146 176l-143 -176h-139z" />
    <glyph glyph-name="edieresis" unicode="&#xeb;" horiz-adv-x="1140" 
d="M100 481q0 223 138 359.5t346 136.5q207 0 338 -135.5t131 -360.5q0 -45 -2 -63h-811q19 -138 114 -220.5t230 -82.5q97 0 176 44t123 122q23 -6 71.5 -16.5t65.5 -14.5q-58 -127 -174.5 -198.5t-261.5 -71.5q-136 0 -245.5 61.5t-174 176.5t-64.5 263zM240 545h673
q-20 137 -108.5 217t-220.5 80q-135 0 -229.5 -81t-114.5 -216zM291 1313q0 42 30.5 70t73.5 28t74 -28t31 -70t-31 -70.5t-74 -28.5t-73.5 28.5t-30.5 70.5zM653 1313q0 42 31 70t74 28t73.5 -28t30.5 -70t-30.5 -70.5t-73.5 -28.5t-74 28.5t-31 70.5z" />
    <glyph glyph-name="igrave" unicode="&#xec;" horiz-adv-x="466" 
d="M-12 1411h168l143 -274h-139zM166 0v956h135v-956h-135z" />
    <glyph glyph-name="iacute" unicode="&#xed;" horiz-adv-x="466" 
d="M164 1137l143 274h168l-172 -274h-139zM166 0v956h135v-956h-135z" />
    <glyph glyph-name="icircumflex" unicode="&#xee;" horiz-adv-x="466" 
d="M-47 1137l194 274h179l194 -274h-139l-145 176l-144 -176h-139zM166 0v956h135v-956h-135z" />
    <glyph glyph-name="idieresis" unicode="&#xef;" horiz-adv-x="466" 
d="M-49 1313q0 42 30.5 70t73.5 28t74 -28t31 -70t-31 -70.5t-74 -28.5t-73.5 28.5t-30.5 70.5zM166 0v956h135v-956h-135zM313 1313q0 42 31 70t74 28t73.5 -28t30.5 -70t-30.5 -70.5t-73.5 -28.5t-74 28.5t-31 70.5z" />
    <glyph glyph-name="eth" unicode="&#xf0;" horiz-adv-x="1202" 
d="M100 481q0 111 39.5 205t106.5 157t154.5 98.5t183.5 35.5q20 0 57 -7t57 -14l-202 252l-181 -114l-51 77l174 111l-164 193h168l107 -123l139 88l62 -72l-142 -88l398 -498q94 -127 94 -301q0 -147 -68.5 -263t-182 -177t-249.5 -61t-249.5 61t-182 177t-68.5 263z
M236 481q0 -162 105.5 -264t258.5 -102t259 102t106 264t-105.5 261.5t-259.5 99.5t-259 -99.5t-105 -261.5z" />
    <glyph glyph-name="ntilde" unicode="&#xf1;" 
d="M166 0v956h137v-157q41 87 132.5 132.5t185.5 45.5q174 0 272 -112t96 -308v-557h-137v557q0 133 -61 209t-170 76q-60 0 -114.5 -18t-101 -54t-74.5 -100t-28 -148v-522h-137zM305 1190q7 116 57.5 168.5t116.5 52.5q39 0 73 -21.5t61.5 -43t52.5 -21.5q26 0 47 20
t22 66h105q-7 -115 -57 -165t-117 -50q-38 0 -72 21.5t-62 43t-53 21.5t-46.5 -23t-22.5 -69h-105z" />
    <glyph glyph-name="ograve" unicode="&#xf2;" horiz-adv-x="1200" 
d="M100 481q0 147 68.5 261.5t181.5 174.5t250 60t250 -60t181.5 -174.5t68.5 -261.5t-68.5 -263t-182 -177t-249.5 -61t-249.5 61t-182 177t-68.5 263zM236 481q0 -162 105.5 -264t258.5 -102t259 102t106 264t-105.5 261.5t-259.5 99.5t-259 -99.5t-105 -261.5zM365 1411
h167l144 -274h-139z" />
    <glyph glyph-name="oacute" unicode="&#xf3;" horiz-adv-x="1200" 
d="M100 481q0 147 68.5 261.5t181.5 174.5t250 60t250 -60t181.5 -174.5t68.5 -261.5t-68.5 -263t-182 -177t-249.5 -61t-249.5 61t-182 177t-68.5 263zM236 481q0 -162 105.5 -264t258.5 -102t259 102t106 264t-105.5 261.5t-259.5 99.5t-259 -99.5t-105 -261.5zM516 1137
l143 274h168l-172 -274h-139z" />
    <glyph glyph-name="ocircumflex" unicode="&#xf4;" horiz-adv-x="1200" 
d="M100 481q0 147 68.5 261.5t181.5 174.5t250 60t250 -60t181.5 -174.5t68.5 -261.5t-68.5 -263t-182 -177t-249.5 -61t-249.5 61t-182 177t-68.5 263zM236 481q0 -162 105.5 -264t258.5 -102t259 102t106 264t-105.5 261.5t-259.5 99.5t-259 -99.5t-105 -261.5zM315 1137
l195 274h178l195 -274h-140l-145 176l-143 -176h-140z" />
    <glyph glyph-name="otilde" unicode="&#xf5;" horiz-adv-x="1200" 
d="M100 481q0 147 68.5 261.5t181.5 174.5t250 60t250 -60t181.5 -174.5t68.5 -261.5t-68.5 -263t-182 -177t-249.5 -61t-249.5 61t-182 177t-68.5 263zM236 481q0 -162 105.5 -264t258.5 -102t259 102t106 264t-105.5 261.5t-259.5 99.5t-259 -99.5t-105 -261.5zM332 1190
q7 116 57.5 168.5t116.5 52.5q39 0 72.5 -21.5t61 -43t52.5 -21.5q26 0 47.5 20t22.5 66h104q-7 -115 -57 -165t-117 -50q-38 0 -71.5 21.5t-61.5 43t-53 21.5t-47 -23t-23 -69h-104z" />
    <glyph glyph-name="odieresis" unicode="&#xf6;" horiz-adv-x="1200" 
d="M100 481q0 147 68.5 261.5t181.5 174.5t250 60t250 -60t181.5 -174.5t68.5 -261.5t-68.5 -263t-182 -177t-249.5 -61t-249.5 61t-182 177t-68.5 263zM236 481q0 -162 105.5 -264t258.5 -102t259 102t106 264t-105.5 261.5t-259.5 99.5t-259 -99.5t-105 -261.5zM313 1313
q0 42 31 70t74 28t73.5 -28t30.5 -70t-30.5 -70.5t-73.5 -28.5t-74 28.5t-31 70.5zM676 1313q0 42 30.5 70t73.5 28t74 -28t31 -70t-31 -70.5t-74 -28.5t-73.5 28.5t-30.5 70.5z" />
    <glyph glyph-name="divide" unicode="&#xf7;" horiz-adv-x="1187" 
d="M158 477v129h872v-129h-872zM481 213q0 45 33.5 75.5t79.5 30.5t79.5 -30.5t33.5 -75.5t-33.5 -76t-79.5 -31t-79.5 31t-33.5 76zM481 870q0 45 33.5 76t79.5 31t79.5 -31t33.5 -76t-33.5 -75.5t-79.5 -30.5t-79.5 30.5t-33.5 75.5z" />
    <glyph glyph-name="oslash" unicode="&#xf8;" horiz-adv-x="1196" 
d="M98 481q0 147 68.5 261.5t181.5 174.5t250 60q173 0 307 -98l103 106l75 -76l-100 -102q115 -134 115 -326q0 -147 -68.5 -263t-182 -177t-249.5 -61q-184 0 -317 106l-105 -109l-76 76l105 109q-107 136 -107 319zM233 481q0 -128 68 -221l508 520q-89 62 -211 62
q-154 0 -259.5 -99.5t-105.5 -261.5zM377 184q94 -69 221 -69q153 0 259 102t106 264q0 133 -76 228z" />
    <glyph glyph-name="ugrave" unicode="&#xf9;" 
d="M154 399v557h137v-557q0 -133 60.5 -208.5t170.5 -75.5q60 0 114.5 17.5t101 54t74.5 100t28 147.5v522h137v-956h-137v158q-41 -87 -132.5 -132.5t-185.5 -45.5q-174 0 -272 111.5t-96 307.5zM340 1411h168l143 -274h-139z" />
    <glyph glyph-name="uacute" unicode="&#xfa;" 
d="M154 399v557h137v-557q0 -133 60.5 -208.5t170.5 -75.5q60 0 114.5 17.5t101 54t74.5 100t28 147.5v522h137v-956h-137v158q-41 -87 -132.5 -132.5t-185.5 -45.5q-174 0 -272 111.5t-96 307.5zM477 1137l144 274h167l-172 -274h-139z" />
    <glyph glyph-name="ucircumflex" unicode="&#xfb;" 
d="M154 399v557h137v-557q0 -133 60.5 -208.5t170.5 -75.5q60 0 114.5 17.5t101 54t74.5 100t28 147.5v522h137v-956h-137v158q-41 -87 -132.5 -132.5t-185.5 -45.5q-174 0 -272 111.5t-96 307.5zM301 1137l195 274h178l194 -274h-139l-145 176l-144 -176h-139z" />
    <glyph glyph-name="udieresis" unicode="&#xfc;" 
d="M154 399v557h137v-557q0 -133 60.5 -208.5t170.5 -75.5q60 0 114.5 17.5t101 54t74.5 100t28 147.5v522h137v-956h-137v158q-41 -87 -132.5 -132.5t-185.5 -45.5q-174 0 -272 111.5t-96 307.5zM299 1313q0 42 30.5 70t73.5 28t74 -28t31 -70t-31 -70.5t-74 -28.5
t-73.5 28.5t-30.5 70.5zM662 1313q0 42 30.5 70t73.5 28t73.5 -28t30.5 -70t-30.5 -70.5t-73.5 -28.5t-73.5 28.5t-30.5 70.5z" />
    <glyph glyph-name="yacute" unicode="&#xfd;" horiz-adv-x="1034" 
d="M49 956h144l323 -778l326 778h145l-594 -1419h-141l190 465zM416 1137l143 274h168l-172 -274h-139z" />
    <glyph glyph-name="thorn" unicode="&#xfe;" horiz-adv-x="1253" 
d="M166 -463v1938h137v-674q52 87 151 132.5t210 45.5q136 0 247 -60t176.5 -174t65.5 -262q0 -223 -140.5 -362t-348.5 -139q-109 0 -209 48.5t-152 135.5v-629h-137zM303 483q0 -170 104 -267t257 -97q150 0 251 103t101 261q0 161 -100 260t-252 99q-66 0 -129.5 -23.5
t-115.5 -67t-84 -113.5t-32 -155z" />
    <glyph glyph-name="ydieresis" unicode="&#xff;" horiz-adv-x="1034" 
d="M49 956h144l323 -778l326 778h145l-594 -1419h-141l190 465zM238 1313q0 42 30.5 70t73.5 28t73.5 -28t30.5 -70t-30.5 -70.5t-73.5 -28.5t-73.5 28.5t-30.5 70.5zM600 1313q0 42 31 70t74 28t73.5 -28t30.5 -70t-30.5 -70.5t-73.5 -28.5t-74 28.5t-31 70.5z" />
    <glyph glyph-name="Amacron" unicode="&#x100;" horiz-adv-x="1306" 
d="M39 0l543 1411h143l543 -1411h-146l-143 371h-653l-142 -371h-145zM375 498h557l-279 725zM410 1696v129h487v-129h-487z" />
    <glyph glyph-name="amacron" unicode="&#x101;" horiz-adv-x="1253" 
d="M100 481q0 222 140.5 359t349.5 137q111 0 209.5 -45.5t150.5 -132.5v157h137v-956h-137v164q-52 -87 -151.5 -135.5t-208.5 -48.5q-208 0 -349 139t-141 362zM238 481q0 -158 101 -261t251 -103q153 0 256.5 97t103.5 267q0 85 -32 155t-84 113.5t-115 67t-129 23.5
q-152 0 -252 -99t-100 -260zM381 1241v129h487v-129h-487z" />
    <glyph glyph-name="Abreve" unicode="&#x102;" horiz-adv-x="1306" 
d="M39 0l543 1411h143l543 -1411h-146l-143 371h-653l-142 -371h-145zM375 498h557l-279 725zM399 1866h107q9 -63 47.5 -102.5t99.5 -39.5q68 0 105.5 41.5t42.5 100.5h106q0 -116 -69.5 -186t-184.5 -70q-126 0 -190 74.5t-64 181.5z" />
    <glyph glyph-name="abreve" unicode="&#x103;" horiz-adv-x="1253" 
d="M100 481q0 222 140.5 359t349.5 137q111 0 209.5 -45.5t150.5 -132.5v157h137v-956h-137v164q-52 -87 -151.5 -135.5t-208.5 -48.5q-208 0 -349 139t-141 362zM238 481q0 -158 101 -261t251 -103q153 0 256.5 97t103.5 267q0 85 -32 155t-84 113.5t-115 67t-129 23.5
q-152 0 -252 -99t-100 -260zM371 1411h106q9 -62 48 -101.5t100 -39.5q68 0 105 41t42 100h107q0 -116 -69.5 -186t-184.5 -70q-126 0 -190 74.5t-64 181.5z" />
    <glyph glyph-name="Aogonek" unicode="&#x104;" horiz-adv-x="1306" 
d="M39 0l543 1411h143l543 -1411h-56l-51 -182q-11 -38 2 -73t49 -52q35 -13 70.5 2.5t50.5 50.5q8 16 8 39l109 8q0 -41 -18 -88q-34 -78 -107.5 -109t-150.5 1q-80 32 -110.5 107t3.5 157l55 139l-143 371h-653l-142 -371h-145zM375 498h557l-279 725z" />
    <glyph glyph-name="aogonek" unicode="&#x105;" horiz-adv-x="1253" 
d="M100 481q0 222 140.5 359t349.5 137q111 0 209.5 -45.5t150.5 -132.5v157h137v-956h-49l-37 -182q-8 -40 4.5 -74.5t47.5 -50.5q35 -13 70.5 2.5t50.5 50.5q8 16 8 39l108 8q0 -41 -18 -88q-34 -78 -107.5 -109t-150.5 1q-77 31 -105 105t-2 159l43 139v164
q-52 -87 -151.5 -135.5t-208.5 -48.5q-208 0 -349 139t-141 362zM238 481q0 -158 101 -261t251 -103q153 0 256.5 97t103.5 267q0 85 -32 155t-84 113.5t-115 67t-129 23.5q-152 0 -252 -99t-100 -260z" />
    <glyph glyph-name="Cacute" unicode="&#x106;" horiz-adv-x="1359" 
d="M111 702q0 199 87 364.5t244.5 263t352.5 97.5q147 0 275.5 -55t225.5 -155l-94 -95q-170 170 -407 170q-159 0 -285.5 -79.5t-195 -214t-68.5 -296.5t68.5 -296t195 -212.5t285.5 -78.5q119 0 224 45.5t185 126.5l94 -97q-97 -100 -226.5 -155t-276.5 -55
q-195 0 -352.5 97t-244.5 262t-87 363zM649 1591l144 275h168l-173 -275h-139z" />
    <glyph glyph-name="cacute" unicode="&#x107;" horiz-adv-x="1032" 
d="M100 481q0 147 68.5 261.5t181.5 174.5t250 60q202 0 344 -129l-96 -96q-104 90 -248 90q-154 0 -259 -99.5t-105 -261.5t105.5 -264t258.5 -102q145 0 248 92l98 -96q-140 -131 -346 -131q-136 0 -249.5 61t-182 177t-68.5 263zM426 1137l143 274h168l-172 -274h-139z
" />
    <glyph glyph-name="Ccircumflex" unicode="&#x108;" horiz-adv-x="1359" 
d="M111 702q0 199 87 364.5t244.5 263t352.5 97.5q147 0 275.5 -55t225.5 -155l-94 -95q-170 170 -407 170q-159 0 -285.5 -79.5t-195 -214t-68.5 -296.5t68.5 -296t195 -212.5t285.5 -78.5q119 0 224 45.5t185 126.5l94 -97q-97 -100 -226.5 -155t-276.5 -55
q-195 0 -352.5 97t-244.5 262t-87 363zM494 1591l194 275h178l195 -275h-139l-146 176l-143 -176h-139z" />
    <glyph glyph-name="ccircumflex" unicode="&#x109;" horiz-adv-x="1032" 
d="M100 481q0 147 68.5 261.5t181.5 174.5t250 60q202 0 344 -129l-96 -96q-104 90 -248 90q-154 0 -259 -99.5t-105 -261.5t105.5 -264t258.5 -102q145 0 248 92l98 -96q-140 -131 -346 -131q-136 0 -249.5 61t-182 177t-68.5 263zM285 1137l194 274h178l195 -274h-139
l-146 176l-143 -176h-139z" />
    <glyph glyph-name="Cdotaccent" unicode="&#x10a;" horiz-adv-x="1359" 
d="M111 702q0 199 87 364.5t244.5 263t352.5 97.5q147 0 275.5 -55t225.5 -155l-94 -95q-170 170 -407 170q-159 0 -285.5 -79.5t-195 -214t-68.5 -296.5t68.5 -296t195 -212.5t285.5 -78.5q119 0 224 45.5t185 126.5l94 -97q-97 -100 -226.5 -155t-276.5 -55
q-195 0 -352.5 97t-244.5 262t-87 363zM647 1767q0 42 31 70.5t74 28.5t73.5 -28.5t30.5 -70.5t-30.5 -70t-73.5 -28t-74 28t-31 70z" />
    <glyph glyph-name="cdotaccent" unicode="&#x10b;" horiz-adv-x="1032" 
d="M100 481q0 147 68.5 261.5t181.5 174.5t250 60q202 0 344 -129l-96 -96q-104 90 -248 90q-154 0 -259 -99.5t-105 -261.5t105.5 -264t258.5 -102q145 0 248 92l98 -96q-140 -131 -346 -131q-136 0 -249.5 61t-182 177t-68.5 263zM481 1313q0 42 31 70t74 28t73.5 -28
t30.5 -70t-30.5 -70.5t-73.5 -28.5t-74 28.5t-31 70.5z" />
    <glyph glyph-name="Ccaron" unicode="&#x10c;" horiz-adv-x="1359" 
d="M111 702q0 199 87 364.5t244.5 263t352.5 97.5q147 0 275.5 -55t225.5 -155l-94 -95q-170 170 -407 170q-159 0 -285.5 -79.5t-195 -214t-68.5 -296.5t68.5 -296t195 -212.5t285.5 -78.5q119 0 224 45.5t185 126.5l94 -97q-97 -100 -226.5 -155t-276.5 -55
q-195 0 -352.5 97t-244.5 262t-87 363zM477 1866h139l146 -176l143 176h139l-194 -275h-178z" />
    <glyph glyph-name="ccaron" unicode="&#x10d;" horiz-adv-x="1032" 
d="M100 481q0 147 68.5 261.5t181.5 174.5t250 60q202 0 344 -129l-96 -96q-104 90 -248 90q-154 0 -259 -99.5t-105 -261.5t105.5 -264t258.5 -102q145 0 248 92l98 -96q-140 -131 -346 -131q-136 0 -249.5 61t-182 177t-68.5 263zM279 1411h139l145 -176l144 176h139
l-195 -274h-178z" />
    <glyph glyph-name="Dcaron" unicode="&#x10e;" horiz-adv-x="1478" 
d="M205 0v1411h530q194 0 337.5 -94t215.5 -253.5t72 -361.5q0 -201 -72 -358.5t-215 -250.5t-338 -93h-530zM340 135h395q159 0 271 74.5t165.5 200.5t53.5 292q0 124 -31 227.5t-91 181.5t-154.5 121.5t-213.5 43.5h-395v-1141zM438 1866h140l145 -176l143 176h140
l-195 -275h-178z" />
    <glyph glyph-name="dcaron" unicode="&#x10f;" horiz-adv-x="1253" 
d="M100 481q0 222 140.5 359t349.5 137q111 0 209.5 -45.5t150.5 -132.5v676h137v-1475h-137v164q-52 -87 -151.5 -135.5t-208.5 -48.5q-208 0 -349 139t-141 362zM238 481q0 -158 101 -261t251 -103q153 0 256.5 97t103.5 267q0 85 -32 155t-84 113.5t-115 67t-129 23.5
q-152 0 -252 -99t-100 -260zM1178 1100q57 78 80.5 155t7.5 172h155q2 -236 -145 -354z" />
    <glyph glyph-name="Dcroat" unicode="&#x110;" horiz-adv-x="1488" 
d="M14 643v125h201v643h530q194 0 337.5 -94t215.5 -253.5t72 -361.5q0 -201 -72 -358.5t-215 -250.5t-338 -93h-530v643h-201zM350 135h395q159 0 271 74.5t165.5 200.5t53.5 292q0 124 -31 227.5t-91 181.5t-154.5 121.5t-213.5 43.5h-395v-508h352v-125h-352v-508z" />
    <glyph glyph-name="dcroat" unicode="&#x111;" horiz-adv-x="1253" 
d="M100 481q0 222 140.5 359t349.5 137q111 0 209.5 -45.5t150.5 -132.5v379h-323v102h323v195h137v-195h168v-102h-168v-1178h-137v164q-52 -87 -151.5 -135.5t-208.5 -48.5q-208 0 -349 139t-141 362zM238 481q0 -158 101 -261t251 -103q153 0 256.5 97t103.5 267
q0 85 -32 155t-84 113.5t-115 67t-129 23.5q-152 0 -252 -99t-100 -260z" />
    <glyph glyph-name="Emacron" unicode="&#x112;" horiz-adv-x="1144" 
d="M205 0v1411h805v-135h-670v-516h586v-135h-586v-490h692v-135h-827zM334 1696v129h487v-129h-487z" />
    <glyph glyph-name="emacron" unicode="&#x113;" horiz-adv-x="1140" 
d="M100 481q0 223 138 359.5t346 136.5q207 0 338 -135.5t131 -360.5q0 -45 -2 -63h-811q19 -138 114 -220.5t230 -82.5q97 0 176 44t123 122q23 -6 71.5 -16.5t65.5 -14.5q-58 -127 -174.5 -198.5t-261.5 -71.5q-136 0 -245.5 61.5t-174 176.5t-64.5 263zM240 545h673
q-20 137 -108.5 217t-220.5 80q-135 0 -229.5 -81t-114.5 -216zM332 1241v129h487v-129h-487z" />
    <glyph glyph-name="Ebreve" unicode="&#x114;" horiz-adv-x="1144" 
d="M205 0v1411h805v-135h-670v-516h586v-135h-586v-490h692v-135h-827zM324 1866h106q9 -63 48 -102.5t100 -39.5q68 0 105 41.5t42 100.5h106q0 -116 -69 -186t-184 -70q-126 0 -190 74.5t-64 181.5z" />
    <glyph glyph-name="ebreve" unicode="&#x115;" horiz-adv-x="1140" 
d="M100 481q0 223 138 359.5t346 136.5q207 0 338 -135.5t131 -360.5q0 -45 -2 -63h-811q19 -138 114 -220.5t230 -82.5q97 0 176 44t123 122q23 -6 71.5 -16.5t65.5 -14.5q-58 -127 -174.5 -198.5t-261.5 -71.5q-136 0 -245.5 61.5t-174 176.5t-64.5 263zM240 545h673
q-20 137 -108.5 217t-220.5 80q-135 0 -229.5 -81t-114.5 -216zM322 1411h106q9 -63 47.5 -102t99.5 -39q68 0 105.5 41t42.5 100h106q0 -116 -69.5 -186t-184.5 -70q-126 0 -189.5 74.5t-63.5 181.5z" />
    <glyph glyph-name="Edotaccent" unicode="&#x116;" horiz-adv-x="1144" 
d="M205 0v1411h805v-135h-670v-516h586v-135h-586v-490h692v-135h-827zM514 1767q0 42 30.5 70.5t73.5 28.5t74 -28.5t31 -70.5t-31 -70t-74 -28t-73.5 28t-30.5 70z" />
    <glyph glyph-name="edotaccent" unicode="&#x117;" horiz-adv-x="1140" 
d="M100 481q0 223 138 359.5t346 136.5q207 0 338 -135.5t131 -360.5q0 -45 -2 -63h-811q19 -138 114 -220.5t230 -82.5q97 0 176 44t123 122q23 -6 71.5 -16.5t65.5 -14.5q-58 -127 -174.5 -198.5t-261.5 -71.5q-136 0 -245.5 61.5t-174 176.5t-64.5 263zM240 545h673
q-20 137 -108.5 217t-220.5 80q-135 0 -229.5 -81t-114.5 -216zM471 1313q0 42 30.5 70t73.5 28t74 -28t31 -70t-31 -70.5t-74 -28.5t-73.5 28.5t-30.5 70.5z" />
    <glyph glyph-name="Eogonek" unicode="&#x118;" horiz-adv-x="1144" 
d="M205 0v1411h805v-135h-670v-516h586v-135h-586v-490h692v-135l-78 -182q-15 -35 0 -71.5t52 -53.5q35 -13 70 2.5t50 50.5q9 18 9 39l108 8q0 -41 -18 -88q-34 -78 -107.5 -109t-150.5 1q-82 33 -115 110t8 154l78 139h-733z" />
    <glyph glyph-name="eogonek" unicode="&#x119;" 
d="M100 481q0 223 138 359.5t346 136.5q207 0 338 -135.5t131 -360.5q0 -45 -2 -63h-811q19 -138 114 -220.5t230 -82.5q97 0 176 44t123 122q23 -6 71.5 -16.5t65.5 -14.5q-15 -31 -47 -66t-81 -81t-77 -78q-49 -57 -78.5 -101.5t-52.5 -105.5q-14 -36 0.5 -72t50.5 -53
q35 -13 70.5 2.5t50.5 50.5q8 16 8 39h109q0 -31 -19 -80q-34 -78 -107.5 -109t-150.5 1q-82 33 -116 111t10 153l84 131q-27 -12 -90 -12q-136 0 -245.5 61.5t-174 176.5t-64.5 263zM240 545h673q-20 137 -108.5 217t-220.5 80q-135 0 -229.5 -81t-114.5 -216z" />
    <glyph glyph-name="Ecaron" unicode="&#x11a;" horiz-adv-x="1144" 
d="M205 0v1411h805v-135h-670v-516h586v-135h-586v-490h692v-135h-827zM328 1866h139l145 -176l144 176h139l-195 -275h-178z" />
    <glyph glyph-name="ecaron" unicode="&#x11b;" horiz-adv-x="1140" 
d="M100 481q0 223 138 359.5t346 136.5q207 0 338 -135.5t131 -360.5q0 -45 -2 -63h-811q19 -138 114 -220.5t230 -82.5q97 0 176 44t123 122q23 -6 71.5 -16.5t65.5 -14.5q-58 -127 -174.5 -198.5t-261.5 -71.5q-136 0 -245.5 61.5t-174 176.5t-64.5 263zM240 545h673
q-20 137 -108.5 217t-220.5 80q-135 0 -229.5 -81t-114.5 -216zM293 1411h139l146 -176l143 176h139l-194 -274h-179z" />
    <glyph glyph-name="Gcircumflex" unicode="&#x11c;" horiz-adv-x="1548" 
d="M111 702q0 148 55 282t149 231t225.5 154.5t278.5 57.5q254 0 451 -163l-96 -97q-154 125 -355 125q-160 0 -292 -79t-206.5 -214.5t-74.5 -296.5t74.5 -295.5t206.5 -213t292 -78.5q228 0 360 119t144 331h-412v127h564q0 -351 -174 -531.5t-482 -180.5
q-147 0 -278.5 57t-225.5 154t-149 230.5t-55 280.5zM500 1591l194 275h178l195 -275h-139l-146 176l-143 -176h-139z" />
    <glyph glyph-name="gcircumflex" unicode="&#x11d;" horiz-adv-x="1251" 
d="M100 475q0 223 141 362.5t349 139.5q109 0 208.5 -48.5t151.5 -135.5v163h137v-804q0 -629 -512 -629q-124 0 -233 59.5t-178 177.5l117 68q51 -85 128.5 -127.5t165.5 -42.5q377 0 377 494l-2 22q-45 -90 -147.5 -142t-212.5 -52q-209 0 -349.5 136.5t-140.5 358.5z
M238 475q0 -161 100 -259.5t252 -98.5q66 0 129 23.5t115 66.5t84 113t32 155q0 170 -103.5 267.5t-256.5 97.5q-150 0 -251 -103t-101 -262zM340 1137l195 274h178l194 -274h-139l-145 176l-144 -176h-139z" />
    <glyph glyph-name="Gbreve" unicode="&#x11e;" horiz-adv-x="1548" 
d="M111 702q0 148 55 282t149 231t225.5 154.5t278.5 57.5q254 0 451 -163l-96 -97q-154 125 -355 125q-160 0 -292 -79t-206.5 -214.5t-74.5 -296.5t74.5 -295.5t206.5 -213t292 -78.5q228 0 360 119t144 331h-412v127h564q0 -351 -174 -531.5t-482 -180.5
q-147 0 -278.5 57t-225.5 154t-149 230.5t-55 280.5zM530 1866h107q9 -63 47.5 -102.5t99.5 -39.5q68 0 105.5 41.5t42.5 100.5h106q0 -116 -69.5 -186t-184.5 -70q-126 0 -190 74.5t-64 181.5z" />
    <glyph glyph-name="gbreve" unicode="&#x11f;" horiz-adv-x="1251" 
d="M100 475q0 223 141 362.5t349 139.5q109 0 208.5 -48.5t151.5 -135.5v163h137v-804q0 -629 -512 -629q-124 0 -233 59.5t-178 177.5l117 68q51 -85 128.5 -127.5t165.5 -42.5q69 0 124.5 16t103.5 53.5t80 96t50 147t17 203.5q-45 -90 -147.5 -142t-212.5 -52
q-209 0 -349.5 136.5t-140.5 358.5zM238 475q0 -161 100 -259.5t252 -98.5q66 0 129 23.5t115 66.5t84 113t32 155q0 170 -103.5 267.5t-256.5 97.5q-150 0 -251 -103t-101 -262zM371 1411h106q9 -62 48 -101.5t100 -39.5q68 0 105 41t42 100h107q0 -116 -69.5 -186
t-184.5 -70q-126 0 -190 74.5t-64 181.5z" />
    <glyph glyph-name="Gdotaccent" unicode="&#x120;" horiz-adv-x="1548" 
d="M111 702q0 148 55 282t149 231t225.5 154.5t278.5 57.5q254 0 451 -163l-96 -97q-154 125 -355 125q-160 0 -292 -79t-206.5 -214.5t-74.5 -296.5t74.5 -295.5t206.5 -213t292 -78.5q228 0 360 119t144 331h-412v127h564q0 -351 -174 -531.5t-482 -180.5
q-147 0 -278.5 57t-225.5 154t-149 230.5t-55 280.5zM680 1767q0 42 30.5 70.5t73.5 28.5t74 -28.5t31 -70.5t-31 -70t-74 -28t-73.5 28t-30.5 70z" />
    <glyph glyph-name="gdotaccent" unicode="&#x121;" horiz-adv-x="1251" 
d="M100 475q0 223 141 362.5t349 139.5q109 0 208.5 -48.5t151.5 -135.5v163h137v-804q0 -629 -512 -629q-124 0 -233 59.5t-178 177.5l117 68q51 -85 128.5 -127.5t165.5 -42.5q69 0 124.5 16t103.5 53.5t80 96t50 147t17 203.5q-45 -90 -147.5 -142t-212.5 -52
q-209 0 -349.5 136.5t-140.5 358.5zM238 475q0 -161 100 -259.5t252 -98.5q66 0 129 23.5t115 66.5t84 113t32 155q0 170 -103.5 267.5t-256.5 97.5q-150 0 -251 -103t-101 -262zM520 1313q0 42 31 70t74 28t73.5 -28t30.5 -70t-30.5 -70.5t-73.5 -28.5t-74 28.5t-31 70.5z
" />
    <glyph glyph-name="Gcommaaccent" unicode="&#x122;" horiz-adv-x="1548" 
d="M111 702q0 148 55 282t149 231t225.5 154.5t278.5 57.5q254 0 451 -163l-96 -97q-154 125 -355 125q-160 0 -292 -79t-206.5 -214.5t-74.5 -296.5t74.5 -295.5t206.5 -213t292 -78.5q228 0 360 119t144 331h-412v127h564q0 -351 -174 -531.5t-482 -180.5
q-147 0 -278.5 57t-225.5 154t-149 230.5t-55 280.5zM662 -479q119 165 88 348h155q1 -133 -40 -228.5t-105 -146.5z" />
    <glyph glyph-name="gcommaaccent" unicode="&#x123;" horiz-adv-x="1251" 
d="M100 475q0 223 141 362.5t349 139.5q109 0 208.5 -48.5t151.5 -135.5v163h137v-804q0 -629 -512 -629q-124 0 -233 59.5t-178 177.5l117 68q51 -85 128.5 -127.5t165.5 -42.5q69 0 124.5 16t103.5 53.5t80 96t50 147t17 203.5q-45 -90 -147.5 -142t-212.5 -52
q-209 0 -349.5 136.5t-140.5 358.5zM238 475q0 -161 100 -259.5t252 -98.5q66 0 129 23.5t115 66.5t84 113t32 155q0 170 -103.5 267.5t-256.5 97.5q-150 0 -251 -103t-101 -262zM477 1096q-1 132 40.5 227.5t105.5 146.5l98 -26q-119 -165 -88 -348h-156z" />
    <glyph glyph-name="Hcircumflex" unicode="&#x124;" horiz-adv-x="1454" 
d="M205 0v1411h135v-647h774v647h135v-1411h-135v637h-774v-637h-135zM442 1591l195 275h178l195 -275h-140l-145 176l-143 -176h-140z" />
    <glyph glyph-name="hcircumflex" unicode="&#x125;" 
d="M-51 1550l194 275h179l194 -275h-139l-146 176l-143 -176h-139zM166 0v1475h137v-676q41 87 132.5 132.5t185.5 45.5q174 0 272 -112t96 -308v-557h-137v557q0 133 -61 209t-170 76q-60 0 -114.5 -18t-101 -54t-74.5 -100t-28 -148v-522h-137z" />
    <glyph glyph-name="Hbar" unicode="&#x126;" horiz-adv-x="1478" 
d="M70 1051v110h147v250h135v-250h774v250h136v-250h149v-110h-149v-1051h-136v637h-774v-637h-135v1051h-147zM352 764h774v287h-774v-287z" />
    <glyph glyph-name="hbar" unicode="&#x127;" 
d="M-2 1180v100h168v195h137v-195h324v-100h-324v-381q41 87 132.5 132.5t185.5 45.5q174 0 272 -112t96 -308v-557h-137v557q0 133 -61 209t-170 76q-60 0 -114.5 -18t-101 -54t-74.5 -100t-28 -148v-522h-137v1180h-168z" />
    <glyph glyph-name="Itilde" unicode="&#x128;" horiz-adv-x="544" 
d="M6 1645q7 116 57.5 168.5t116.5 52.5q39 0 73 -21.5t61.5 -43t52.5 -21.5q26 0 47 20t22 66h105q-7 -115 -57 -165t-117 -50q-38 0 -72 21.5t-62 43t-53 21.5t-46.5 -23t-22.5 -69h-105zM205 0v1411h135v-1411h-135z" />
    <glyph glyph-name="itilde" unicode="&#x129;" horiz-adv-x="466" 
d="M-31 1190q7 116 57.5 168.5t116.5 52.5q39 0 73 -21.5t61.5 -43t52.5 -21.5q26 0 47 20t22 66h105q-7 -115 -57 -165t-117 -50q-38 0 -72 21.5t-62 43t-53 21.5t-46.5 -23t-22.5 -69h-105zM166 0v956h135v-956h-135z" />
    <glyph glyph-name="Imacron" unicode="&#x12a;" horiz-adv-x="544" 
d="M29 1696v129h487v-129h-487zM205 0v1411h135v-1411h-135z" />
    <glyph glyph-name="imacron" unicode="&#x12b;" horiz-adv-x="466" 
d="M-8 1241v129h487v-129h-487zM166 0v956h135v-956h-135z" />
    <glyph glyph-name="Ibreve" unicode="&#x12c;" horiz-adv-x="544" 
d="M18 1866h107q9 -63 47.5 -102.5t99.5 -39.5q68 0 105.5 41.5t42.5 100.5h106q0 -116 -69.5 -186t-184.5 -70q-126 0 -190 74.5t-64 181.5zM205 0v1411h135v-1411h-135z" />
    <glyph glyph-name="ibreve" unicode="&#x12d;" horiz-adv-x="466" 
d="M-18 1411h106q9 -62 48 -101.5t100 -39.5q68 0 105 41t42 100h106q0 -116 -69 -186t-184 -70q-126 0 -190 74.5t-64 181.5zM166 0v956h135v-956h-135z" />
    <glyph glyph-name="Iogonek" unicode="&#x12e;" horiz-adv-x="544" 
d="M147 -139l58 139v1411h135v-1411h-66l-32 -182q-18 -93 51 -125q35 -13 70.5 2.5t50.5 50.5q8 16 8 39l108 8q0 -41 -18 -88q-34 -78 -107.5 -109t-150.5 1q-80 32 -110.5 107t3.5 157z" />
    <glyph glyph-name="iogonek" unicode="&#x12f;" horiz-adv-x="466" 
d="M109 -139l57 139v956h135v-956h-61l-37 -182q-8 -40 4 -74.5t47 -50.5q35 -13 70.5 2.5t50.5 50.5q8 16 8 39l109 8q0 -39 -19 -88q-34 -78 -107.5 -109t-150.5 1q-80 32 -110 107t4 157zM131 1313q0 42 31 70t74 28t73.5 -28t30.5 -70t-30.5 -70.5t-73.5 -28.5t-74 28.5
t-31 70.5z" />
    <glyph glyph-name="Idotaccent" unicode="&#x130;" horiz-adv-x="544" 
d="M168 1767q0 42 30.5 70.5t73.5 28.5t74 -28.5t31 -70.5t-31 -70t-74 -28t-73.5 28t-30.5 70zM205 0v1411h135v-1411h-135z" />
    <glyph glyph-name="dotlessi" unicode="&#x131;" horiz-adv-x="466" 
d="M166 0v956h135v-956h-135z" />
    <glyph glyph-name="IJ" unicode="&#x132;" horiz-adv-x="1089" 
d="M205 0v1411h135v-1411h-135zM338 -512l12 133q13 -4 55.5 -9t59.5 -5q147 0 216 87t69 226v1491h135v-1491q0 -75 -14 -140.5t-45.5 -122.5t-79.5 -97.5t-119.5 -64t-161.5 -23.5q-57 0 -127 16z" />
    <glyph glyph-name="ij" unicode="&#x133;" horiz-adv-x="935" 
d="M131 1313q0 42 31 70t74 28t73.5 -28t30.5 -70t-30.5 -70.5t-73.5 -28.5t-74 28.5t-31 70.5zM166 0v956h135v-956h-135zM334 -334h102q52 0 90 17.5t58.5 43.5t32 65.5t14.5 74t2 78.5v1011h137v-1011q0 -408 -334 -408h-102v129zM598 1313q0 42 30.5 70t73.5 28t74 -28
t31 -70t-31 -70.5t-74 -28.5t-73.5 28.5t-30.5 70.5z" />
    <glyph glyph-name="Jcircumflex" unicode="&#x134;" horiz-adv-x="544" 
d="M-207 -512l12 133q13 -4 55.5 -9t59.5 -5q147 0 216 87t69 226v1491h135v-1491q0 -75 -14 -140.5t-45.5 -122.5t-79.5 -97.5t-119.5 -64t-161.5 -23.5q-57 0 -127 16zM-33 1591l195 275h178l195 -275h-140l-145 176l-144 -176h-139z" />
    <glyph glyph-name="jcircumflex" unicode="&#x135;" horiz-adv-x="468" 
d="M-133 -334h102q52 0 90 17.5t58.5 43.5t32 65.5t14.5 74t2 78.5v1011h137v-1011q0 -408 -334 -408h-102v129zM-47 1137l194 274h179l194 -274h-139l-145 176l-144 -176h-139z" />
    <glyph glyph-name="Kcommaaccent" unicode="&#x136;" 
d="M205 0v1411h135v-686l532 686h160l-549 -706l668 -705h-182l-629 664v-664h-135zM498 -479q119 165 88 348h155q1 -133 -40 -228.5t-105 -146.5z" />
    <glyph glyph-name="kcommaaccent" unicode="&#x137;" horiz-adv-x="993" 
d="M166 0v1475h135v-897l379 378h192l-409 -409l518 -547h-186l-494 522v-522h-135zM377 -479q119 165 88 348h156q1 -133 -40.5 -228.5t-105.5 -146.5z" />
    <glyph glyph-name="kgreenlandic" unicode="&#x138;" horiz-adv-x="980" 
d="M166 0v956h135v-450l430 450h178l-446 -473l487 -483h-188l-461 449v-449h-135z" />
    <glyph glyph-name="Lacute" unicode="&#x139;" horiz-adv-x="997" 
d="M205 0v1411h135v-1276h598v-135h-733zM205 1591l143 275h168l-172 -275h-139z" />
    <glyph glyph-name="lacute" unicode="&#x13a;" horiz-adv-x="466" 
d="M166 0v1475h135v-1475h-135zM170 1591l143 275h168l-172 -275h-139z" />
    <glyph glyph-name="Lcommaaccent" unicode="&#x13b;" horiz-adv-x="997" 
d="M205 0v1411h135v-1276h598v-135h-733zM387 -479q119 165 88 348h156q1 -133 -40.5 -228.5t-105.5 -146.5z" />
    <glyph glyph-name="lcommaaccent" unicode="&#x13c;" horiz-adv-x="466" 
d="M72 -479q119 165 88 348h155q1 -133 -40 -228.5t-105 -146.5zM166 0v1475h135v-1475h-135z" />
    <glyph glyph-name="Lcaron" unicode="&#x13d;" horiz-adv-x="997" 
d="M205 0v1411h135v-1276h598v-135h-733zM506 1001q55 76 87.5 181t31.5 229h155q-11 -151 -62.5 -268.5t-113.5 -167.5z" />
    <glyph glyph-name="lcaron" unicode="&#x13e;" horiz-adv-x="466" 
d="M166 0v1475h135v-1475h-135zM391 1018q122 168 119 409h156q-11 -151 -62.5 -268.5t-114.5 -167.5z" />
    <glyph glyph-name="Ldot" unicode="&#x13f;" horiz-adv-x="997" 
d="M205 0v1411h135v-1276h598v-135h-733zM532 539q0 45 33.5 75.5t79.5 30.5t79.5 -30.5t33.5 -75.5t-33.5 -76t-79.5 -31t-79.5 31t-33.5 76z" />
    <glyph glyph-name="ldot" unicode="&#x140;" horiz-adv-x="643" 
d="M166 0v1475h135v-1475h-135zM416 539q0 45 33 75.5t79 30.5t79.5 -30.5t33.5 -75.5t-33.5 -76t-79.5 -31t-79 31t-33 76z" />
    <glyph glyph-name="Lslash" unicode="&#x141;" horiz-adv-x="1009" 
d="M78 602v121l139 86v602h135v-516l221 139v-121l-221 -139v-639h598v-135h-733v688z" />
    <glyph glyph-name="lslash" unicode="&#x142;" horiz-adv-x="493" 
d="M37 586v121l147 94v674h135v-588l168 108v-121l-168 -108v-766h-135v680z" />
    <glyph glyph-name="Nacute" unicode="&#x143;" horiz-adv-x="1402" 
d="M205 0v1411h145l713 -1173v1173h135v-1411h-139l-719 1182v-1182h-135zM633 1591l143 275h168l-172 -275h-139z" />
    <glyph glyph-name="nacute" unicode="&#x144;" 
d="M166 0v956h137v-157q41 87 132.5 132.5t185.5 45.5q174 0 272 -112t96 -308v-557h-137v557q0 133 -61 209t-170 76q-60 0 -114.5 -18t-101 -54t-74.5 -100t-28 -148v-522h-137zM477 1137l144 274h167l-172 -274h-139z" />
    <glyph glyph-name="Ncommaaccent" unicode="&#x145;" horiz-adv-x="1402" 
d="M205 0v1411h145l713 -1173v1173h135v-1411h-139l-719 1182v-1182h-135zM541 -479q119 165 88 348h155q1 -133 -40 -228.5t-105 -146.5z" />
    <glyph glyph-name="ncommaaccent" unicode="&#x146;" 
d="M166 0v956h137v-157q41 87 132.5 132.5t185.5 45.5q174 0 272 -112t96 -308v-557h-137v557q0 133 -61 209t-170 76q-60 0 -114.5 -18t-101 -54t-74.5 -100t-28 -148v-522h-137zM412 -479q119 165 88 348h155q1 -133 -40 -228.5t-105 -146.5z" />
    <glyph glyph-name="Ncaron" unicode="&#x147;" horiz-adv-x="1402" 
d="M205 0v1411h145l713 -1173v1173h135v-1411h-139l-719 1182v-1182h-135zM418 1866h139l145 -176l144 176h139l-194 -275h-179z" />
    <glyph glyph-name="ncaron" unicode="&#x148;" 
d="M166 0v956h137v-157q41 87 132.5 132.5t185.5 45.5q174 0 272 -112t96 -308v-557h-137v557q0 133 -61 209t-170 76q-60 0 -114.5 -18t-101 -54t-74.5 -100t-28 -148v-522h-137zM289 1411h139l145 -176l144 176h139l-194 -274h-179z" />
    <glyph glyph-name="napostrophe" unicode="&#x149;" 
d="M-55 1020q56 78 80 155.5t8 172.5h155q2 -237 -145 -355zM166 0v956h137v-157q41 87 132.5 132.5t185.5 45.5q174 0 272 -112t96 -308v-557h-137v557q0 133 -61 209t-170 76q-60 0 -114.5 -18t-101 -54t-74.5 -100t-28 -148v-522h-137z" />
    <glyph glyph-name="Eng" unicode="&#x14a;" horiz-adv-x="1402" 
d="M205 0v1411h145l713 -1184v1184h135v-1411v-80q0 -75 -14 -140.5t-45.5 -122.5t-79.5 -97.5t-119.5 -64t-161.5 -23.5q-57 0 -127 16l13 133q13 -4 55 -9t59 -5q147 0 216 87t69 226v80l-723 1182v-1182h-135z" />
    <glyph glyph-name="eng" unicode="&#x14b;" 
d="M166 0v956h137v-157q41 87 132.5 132.5t185.5 45.5q174 0 272 -112t96 -308v-506v-80q0 -75 -14 -140.5t-45.5 -122.5t-79.5 -97.5t-119.5 -64t-161.5 -23.5q-57 0 -127 16l13 133q13 -4 55 -9t59 -5q76 0 132 24.5t88.5 68.5t47.5 99t15 121v586q0 133 -61 209t-170 76
q-60 0 -114.5 -18t-101 -54t-74.5 -100t-28 -148v-522h-137z" />
    <glyph glyph-name="Omacron" unicode="&#x14c;" horiz-adv-x="1640" 
d="M111 702q0 148 55 282t149 231t225.5 154.5t278.5 57.5q197 0 360.5 -97t257 -263.5t93.5 -364.5q0 -147 -55 -280.5t-149.5 -230.5t-226.5 -154t-280 -57q-147 0 -278.5 57t-225.5 154t-149 230.5t-55 280.5zM246 702q0 -161 74.5 -295.5t206.5 -213t292 -78.5
t292.5 78.5t208 213t75.5 295.5t-75.5 296.5t-208 214.5t-292.5 79t-292 -79t-206.5 -214.5t-74.5 -296.5zM575 1696v129h488v-129h-488z" />
    <glyph glyph-name="omacron" unicode="&#x14d;" horiz-adv-x="1200" 
d="M100 481q0 147 68.5 261.5t181.5 174.5t250 60t250 -60t181.5 -174.5t68.5 -261.5t-68.5 -263t-182 -177t-249.5 -61t-249.5 61t-182 177t-68.5 263zM236 481q0 -162 105.5 -264t258.5 -102t259 102t106 264t-105.5 261.5t-259.5 99.5t-259 -99.5t-105 -261.5zM356 1241
v129h488v-129h-488z" />
    <glyph glyph-name="Obreve" unicode="&#x14e;" horiz-adv-x="1640" 
d="M111 702q0 148 55 282t149 231t225.5 154.5t278.5 57.5q197 0 360.5 -97t257 -263.5t93.5 -364.5q0 -147 -55 -280.5t-149.5 -230.5t-226.5 -154t-280 -57q-147 0 -278.5 57t-225.5 154t-149 230.5t-55 280.5zM246 702q0 -161 74.5 -295.5t206.5 -213t292 -78.5
t292.5 78.5t208 213t75.5 295.5t-75.5 296.5t-208 214.5t-292.5 79t-292 -79t-206.5 -214.5t-74.5 -296.5zM565 1866h107q9 -63 47.5 -102.5t99.5 -39.5q68 0 105.5 41.5t42.5 100.5h106q0 -116 -69.5 -186t-184.5 -70q-126 0 -190 74.5t-64 181.5z" />
    <glyph glyph-name="obreve" unicode="&#x14f;" horiz-adv-x="1200" 
d="M100 481q0 147 68.5 261.5t181.5 174.5t250 60t250 -60t181.5 -174.5t68.5 -261.5t-68.5 -263t-182 -177t-249.5 -61t-249.5 61t-182 177t-68.5 263zM236 481q0 -162 105.5 -264t258.5 -102t259 102t106 264t-105.5 261.5t-259.5 99.5t-259 -99.5t-105 -261.5zM346 1411
h107q9 -63 47.5 -102t99.5 -39q68 0 105.5 41t42.5 100h106q0 -116 -69.5 -186t-184.5 -70q-126 0 -190 74.5t-64 181.5z" />
    <glyph glyph-name="Ohungarumlaut" unicode="&#x150;" horiz-adv-x="1640" 
d="M111 702q0 148 55 282t149 231t225.5 154.5t278.5 57.5q197 0 360.5 -97t257 -263.5t93.5 -364.5q0 -147 -55 -280.5t-149.5 -230.5t-226.5 -154t-280 -57q-147 0 -278.5 57t-225.5 154t-149 230.5t-55 280.5zM246 702q0 -161 74.5 -295.5t206.5 -213t292 -78.5
t292.5 78.5t208 213t75.5 295.5t-75.5 296.5t-208 214.5t-292.5 79t-292 -79t-206.5 -214.5t-74.5 -296.5zM602 1591l139 275h152l-143 -275h-148zM848 1591l143 275h168l-172 -275h-139z" />
    <glyph glyph-name="ohungarumlaut" unicode="&#x151;" horiz-adv-x="1200" 
d="M100 481q0 147 68.5 261.5t181.5 174.5t250 60t250 -60t181.5 -174.5t68.5 -261.5t-68.5 -263t-182 -177t-249.5 -61t-249.5 61t-182 177t-68.5 263zM236 481q0 -162 105.5 -264t258.5 -102t259 102t106 264t-105.5 261.5t-259.5 99.5t-259 -99.5t-105 -261.5zM371 1137
l139 274h152l-144 -274h-147zM616 1137l144 274h168l-172 -274h-140z" />
    <glyph glyph-name="OE" unicode="&#x152;" horiz-adv-x="2334" 
d="M111 702q0 148 55 282t149 231t225.5 154.5t278.5 57.5q176 0 326.5 -78.5t249.5 -215.5v278h805v-135h-670v-516h586v-135h-586v-490h692v-135h-827v274q-99 -137 -249 -215.5t-327 -78.5q-147 0 -278.5 57t-225.5 154t-149 230.5t-55 280.5zM246 702
q0 -161 74.5 -295.5t206.5 -213t292 -78.5q156 0 286 74.5t207 203.5t83 285v49q-4 116 -50.5 220t-122.5 180t-181 120.5t-222 44.5q-160 0 -292 -79t-206.5 -214.5t-74.5 -296.5z" />
    <glyph glyph-name="oe" unicode="&#x153;" horiz-adv-x="2004" 
d="M100 481q0 147 68.5 261.5t181.5 174.5t250 60q135 0 249.5 -61.5t180.5 -170.5q62 109 172 170.5t246 61.5q207 0 338 -135.5t131 -360.5q0 -45 -2 -63h-811q19 -138 114 -220.5t230 -82.5q97 0 176 44t123 122q23 -6 71.5 -16.5t65.5 -14.5q-58 -127 -174.5 -198.5
t-261.5 -71.5q-136 0 -246 62t-172 173q-66 -110 -180.5 -172.5t-249.5 -62.5q-136 0 -249.5 61t-182 177t-68.5 263zM236 481q0 -162 105.5 -264t258.5 -102q149 0 254 97t111 253v16q0 162 -105.5 261.5t-259.5 99.5t-259 -99.5t-105 -261.5zM1104 545h674
q-20 137 -109 217t-221 80q-135 0 -229.5 -81t-114.5 -216z" />
    <glyph glyph-name="Racute" unicode="&#x154;" horiz-adv-x="1245" 
d="M205 0v1411h524q103 0 181 -36.5t122.5 -99t66 -137t21.5 -159.5q0 -66 -12.5 -125.5t-41 -114.5t-71 -95.5t-106.5 -65.5t-144 -27l390 -551h-166l-389 551h-238v-551h-137zM342 686h377q72 0 125 24t83 66.5t44 93t14 109.5t-14 110t-43 94t-80 68t-119 25h-387v-590z
M469 1591l143 275h168l-172 -275h-139z" />
    <glyph glyph-name="racute" unicode="&#x155;" horiz-adv-x="772" 
d="M166 0v956h137v-217q35 122 102.5 180t172.5 58q47 0 93.5 -12t61.5 -25l-16 -133q-65 33 -139 33q-93 0 -157 -69.5t-91 -175.5t-27 -239v-356h-137zM178 1137l144 274h167l-172 -274h-139z" />
    <glyph glyph-name="Rcommaaccent" unicode="&#x156;" horiz-adv-x="1245" 
d="M205 0v1411h524q103 0 181 -36.5t122.5 -99t66 -137t21.5 -159.5q0 -66 -12.5 -125.5t-41 -114.5t-71 -95.5t-106.5 -65.5t-144 -27l390 -551h-166l-389 551h-238v-551h-137zM342 686h377q72 0 125 24t83 66.5t44 93t14 109.5t-14 110t-43 94t-80 68t-119 25h-387v-590z
M502 -479q119 165 88 348h155q1 -133 -40 -228.5t-105 -146.5z" />
    <glyph glyph-name="rcommaaccent" unicode="&#x157;" horiz-adv-x="772" 
d="M74 -479q119 165 88 348h155q1 -133 -40 -228.5t-105 -146.5zM166 0v956h137v-217q35 122 102.5 180t172.5 58q47 0 93.5 -12t61.5 -25l-16 -133q-65 33 -139 33q-93 0 -157 -69.5t-91 -175.5t-27 -239v-356h-137z" />
    <glyph glyph-name="Rcaron" unicode="&#x158;" horiz-adv-x="1245" 
d="M205 0v1411h524q103 0 181 -36.5t122.5 -99t66 -137t21.5 -159.5q0 -66 -12.5 -125.5t-41 -114.5t-71 -95.5t-106.5 -65.5t-144 -27l390 -551h-166l-389 551h-238v-551h-137zM340 1866h139l146 -176l143 176h139l-194 -275h-178zM342 686h377q72 0 125 24t83 66.5t44 93
t14 109.5t-14 110t-43 94t-80 68t-119 25h-387v-590z" />
    <glyph glyph-name="rcaron" unicode="&#x159;" horiz-adv-x="772" 
d="M123 1411h139l146 -176l143 176h139l-194 -274h-179zM166 0v956h137v-217q35 122 102.5 180t172.5 58q47 0 93.5 -12t61.5 -25l-16 -133q-65 33 -139 33q-93 0 -157 -69.5t-91 -175.5t-27 -239v-356h-137z" />
    <glyph glyph-name="Sacute" unicode="&#x15a;" horiz-adv-x="1163" 
d="M117 406h135q0 -53 23 -105t63.5 -93.5t102 -67t132.5 -25.5q148 0 238 68.5t109 162.5q19 121 -58 194.5t-211 104.5l-190 43q-332 75 -332 354q0 111 64 200.5t164.5 137t213.5 47.5q191 0 317 -111t126 -292h-135q0 121 -87.5 194.5t-220.5 73.5q-122 0 -214.5 -70.5
t-92.5 -179.5q0 -33 8 -61t29.5 -60.5t69 -59t118.5 -42.5l193 -43q89 -20 159.5 -55t125 -89t78 -133t8.5 -177q-13 -64 -49 -123t-93.5 -109t-145 -80t-192.5 -30q-134 0 -240.5 64t-161 160.5t-54.5 201.5zM479 1591l144 275h168l-173 -275h-139z" />
    <glyph glyph-name="sacute" unicode="&#x15b;" horiz-adv-x="868" 
d="M90 274h121q41 -165 225 -165q92 0 147.5 41.5t55.5 109.5q0 51 -33 90.5t-104 57.5l-133 30q-42 10 -74 22t-69 36t-59.5 56t-34.5 83t-5 115q15 101 103.5 164t207.5 63q118 0 200.5 -61.5t100.5 -186.5h-133q-12 54 -58.5 85.5t-109.5 31.5q-69 0 -120 -33t-58 -84
q-6 -32 1 -58t20 -42t35.5 -29t41.5 -19t43 -12l131 -30q242 -58 242 -279q0 -123 -99.5 -201.5t-250.5 -78.5q-129 0 -228.5 80.5t-105.5 213.5zM330 1137l143 274h168l-172 -274h-139z" />
    <glyph glyph-name="Scircumflex" unicode="&#x15c;" horiz-adv-x="1163" 
d="M117 406h135q0 -53 23 -105t63.5 -93.5t102 -67t132.5 -25.5q148 0 238 68.5t109 162.5q19 121 -58 194.5t-211 104.5l-190 43q-332 75 -332 354q0 111 64 200.5t164.5 137t213.5 47.5q191 0 317 -111t126 -292h-135q0 121 -87.5 194.5t-220.5 73.5q-122 0 -214.5 -70.5
t-92.5 -179.5q0 -33 8 -61t29.5 -60.5t69 -59t118.5 -42.5l193 -43q89 -20 159.5 -55t125 -89t78 -133t8.5 -177q-13 -64 -49 -123t-93.5 -109t-145 -80t-192.5 -30q-134 0 -240.5 64t-161 160.5t-54.5 201.5zM303 1591l195 275h178l194 -275h-139l-145 176l-144 -176h-139z
" />
    <glyph glyph-name="scircumflex" unicode="&#x15d;" horiz-adv-x="868" 
d="M90 274h121q41 -165 225 -165q92 0 147.5 41.5t55.5 109.5q0 51 -33 90.5t-104 57.5l-133 30q-42 10 -74 22t-69 36t-59.5 56t-34.5 83t-5 115q15 101 103.5 164t207.5 63q118 0 200.5 -61.5t100.5 -186.5h-133q-12 54 -58.5 85.5t-109.5 31.5q-69 0 -120 -33t-58 -84
q-6 -32 1 -58t20 -42t35.5 -29t41.5 -19t43 -12l131 -30q242 -58 242 -279q0 -123 -99.5 -201.5t-250.5 -78.5q-129 0 -228.5 80.5t-105.5 213.5zM152 1137l194 274h178l195 -274h-139l-146 176l-143 -176h-139z" />
    <glyph glyph-name="Scedilla" unicode="&#x15e;" horiz-adv-x="1165" 
d="M117 406h135q0 -53 23 -105t63.5 -93.5t102 -67t132.5 -25.5q148 0 238 68.5t109 162.5q19 121 -58 194.5t-211 104.5l-190 43q-332 75 -332 354q0 111 64 200.5t164.5 137t213.5 47.5q191 0 317 -111t126 -292h-135q0 121 -87.5 194.5t-220.5 73.5q-122 0 -214.5 -70.5
t-92.5 -179.5q0 -33 8 -61t29.5 -60.5t69 -59t118.5 -42.5l193 -43q89 -20 159.5 -55t125 -89t78 -133t8.5 -177q-24 -114 -116 -207.5t-241 -122.5l60 -131q34 -82 3.5 -157t-110.5 -107q-77 -32 -150.5 -1t-107.5 109q-18 47 -18 88l108 -8q0 -23 8 -39q15 -35 50.5 -50.5
t70.5 -2.5q37 17 52 53.5t0 71.5l-62 162h-27q-134 0 -240.5 64t-161 160.5t-54.5 201.5z" />
    <glyph glyph-name="scedilla" unicode="&#x15f;" horiz-adv-x="870" 
d="M92 274h121q41 -165 225 -165q92 0 147.5 41.5t55.5 109.5q0 51 -33 90.5t-104 57.5l-133 30q-42 10 -74 22t-69 36t-59.5 56t-34.5 83t-5 115q15 101 103.5 164t207.5 63q118 0 200.5 -61.5t100.5 -186.5h-133q-12 54 -58.5 85.5t-109.5 31.5q-69 0 -120 -33t-58 -84
q-6 -32 1 -58t20 -42t35.5 -29t41.5 -19t43 -12l132 -30q241 -58 241 -279q0 -97 -64 -168t-169 -98l63 -133q37 -80 6 -155.5t-112 -108.5q-77 -32 -150.5 -1t-107.5 109q-19 49 -19 88l109 -8q0 -23 8 -39q15 -35 50.5 -50.5t70.5 -2.5q36 17 49.5 52t1.5 73l-55 164
q-10 -2 -31 -2q-129 0 -228.5 80.5t-105.5 213.5z" />
    <glyph glyph-name="Scaron" unicode="&#x160;" horiz-adv-x="1163" 
d="M117 406h135q0 -53 23 -105t63.5 -93.5t102 -67t132.5 -25.5q148 0 238 68.5t109 162.5q19 121 -58 194.5t-211 104.5l-190 43q-332 75 -332 354q0 111 64 200.5t164.5 137t213.5 47.5q191 0 317 -111t126 -292h-135q0 121 -87.5 194.5t-220.5 73.5q-122 0 -214.5 -70.5
t-92.5 -179.5q0 -33 8 -61t29.5 -60.5t69 -59t118.5 -42.5l193 -43q89 -20 159.5 -55t125 -89t78 -133t8.5 -177q-13 -64 -49 -123t-93.5 -109t-145 -80t-192.5 -30q-134 0 -240.5 64t-161 160.5t-54.5 201.5zM303 1866h139l146 -176l143 176h139l-194 -275h-178z" />
    <glyph glyph-name="scaron" unicode="&#x161;" horiz-adv-x="868" 
d="M90 274h121q41 -165 225 -165q92 0 147.5 41.5t55.5 109.5q0 51 -33 90.5t-104 57.5l-133 30q-42 10 -74 22t-69 36t-59.5 56t-34.5 83t-5 115q15 101 103.5 164t207.5 63q118 0 200.5 -61.5t100.5 -186.5h-133q-12 54 -58.5 85.5t-109.5 31.5q-69 0 -120 -33t-58 -84
q-6 -32 1 -58t20 -42t35.5 -29t41.5 -19t43 -12l131 -30q242 -58 242 -279q0 -123 -99.5 -201.5t-250.5 -78.5q-129 0 -228.5 80.5t-105.5 213.5zM152 1411h139l145 -176l144 176h139l-195 -274h-178z" />
    <glyph glyph-name="Tcommaaccent" unicode="&#x162;" horiz-adv-x="1159" 
d="M59 1276v135h1041v-135h-453v-1276h-135v1276h-453zM420 -479q119 165 88 348h156q1 -133 -40.5 -228.5t-105.5 -146.5z" />
    <glyph glyph-name="tcommaaccent" unicode="&#x163;" horiz-adv-x="630" 
d="M57 834v122h172v359h138v-359h202v-122h-202v-834h-138v834h-172zM137 -479q119 165 88 348h156q1 -133 -40 -228.5t-105 -146.5z" />
    <glyph glyph-name="Tcaron" unicode="&#x164;" horiz-adv-x="1159" 
d="M59 1276v135h1041v-135h-453v-1276h-135v1276h-453zM295 1866h139l146 -176l143 176h139l-194 -275h-179z" />
    <glyph glyph-name="tcaron" unicode="&#x165;" horiz-adv-x="630" 
d="M57 834v122h172v359h138v-359h202v-122h-202v-834h-138v834h-172zM436 1100q57 78 80.5 155t7.5 172h156q2 -236 -145 -354z" />
    <glyph glyph-name="Tbar" unicode="&#x166;" horiz-adv-x="1159" 
d="M59 1276v135h1041v-135h-453v-451h285v-108h-285v-717h-135v717h-283v108h283v451h-453z" />
    <glyph glyph-name="tbar" unicode="&#x167;" horiz-adv-x="638" 
d="M61 834v122h172v359h138v-359h202v-122h-202v-256h166v-95h-166v-483h-138v483h-149v95h149v256h-172z" />
    <glyph glyph-name="Utilde" unicode="&#x168;" horiz-adv-x="1380" 
d="M190 477v934h136v-934q0 -162 105.5 -262t258.5 -100q154 0 259.5 100t105.5 262v934h135v-934q0 -147 -68.5 -262t-182 -175t-249.5 -60t-249.5 60t-182 175t-68.5 262zM422 1645q7 116 57.5 168.5t116.5 52.5q39 0 72.5 -21.5t61 -43t52.5 -21.5q26 0 47.5 20t22.5 66
h104q-7 -115 -57 -165t-117 -50q-38 0 -71.5 21.5t-61.5 43t-53 21.5t-47 -23t-23 -69h-104z" />
    <glyph glyph-name="utilde" unicode="&#x169;" 
d="M154 399v557h137v-557q0 -133 60.5 -208.5t170.5 -75.5q60 0 114.5 17.5t101 54t74.5 100t28 147.5v522h137v-956h-137v158q-41 -87 -132.5 -132.5t-185.5 -45.5q-174 0 -272 111.5t-96 307.5zM317 1190q7 116 58 168.5t117 52.5q39 0 72.5 -21.5t61 -43t52.5 -21.5
q26 0 47.5 20t22.5 66h104q-7 -115 -57 -165t-117 -50q-38 0 -71.5 21.5t-61.5 43t-53 21.5t-47 -23t-23 -69h-105z" />
    <glyph glyph-name="Umacron" unicode="&#x16a;" horiz-adv-x="1380" 
d="M190 477v934h136v-934q0 -162 105.5 -262t258.5 -100q154 0 259.5 100t105.5 262v934h135v-934q0 -147 -68.5 -262t-182 -175t-249.5 -60t-249.5 60t-182 175t-68.5 262zM446 1696v129h488v-129h-488z" />
    <glyph glyph-name="umacron" unicode="&#x16b;" 
d="M154 399v557h137v-557q0 -133 60.5 -208.5t170.5 -75.5q60 0 114.5 17.5t101 54t74.5 100t28 147.5v522h137v-956h-137v158q-41 -87 -132.5 -132.5t-185.5 -45.5q-174 0 -272 111.5t-96 307.5zM340 1241v129h487v-129h-487z" />
    <glyph glyph-name="Ubreve" unicode="&#x16c;" horiz-adv-x="1380" 
d="M190 477v934h136v-934q0 -162 105.5 -262t258.5 -100q154 0 259.5 100t105.5 262v934h135v-934q0 -147 -68.5 -262t-182 -175t-249.5 -60t-249.5 60t-182 175t-68.5 262zM436 1866h107q9 -63 47.5 -102.5t99.5 -39.5q68 0 105.5 41.5t42.5 100.5h106q0 -116 -69.5 -186
t-184.5 -70q-126 0 -190 74.5t-64 181.5z" />
    <glyph glyph-name="ubreve" unicode="&#x16d;" 
d="M154 399v557h137v-557q0 -133 60.5 -208.5t170.5 -75.5q60 0 114.5 17.5t101 54t74.5 100t28 147.5v522h137v-956h-137v158q-41 -87 -132.5 -132.5t-185.5 -45.5q-174 0 -272 111.5t-96 307.5zM330 1411h106q9 -62 48 -101.5t100 -39.5q68 0 105 41t42 100h107
q0 -116 -69.5 -186t-184.5 -70q-126 0 -190 74.5t-64 181.5z" />
    <glyph glyph-name="Uring" unicode="&#x16e;" horiz-adv-x="1380" 
d="M190 477v934h136v-934q0 -162 105.5 -262t258.5 -100q154 0 259.5 100t105.5 262v934h135v-934q0 -147 -68.5 -262t-182 -175t-249.5 -60t-249.5 60t-182 175t-68.5 262zM492 1788q0 85 56.5 143t139.5 58q85 0 143 -58t58 -143q0 -83 -58 -140t-143 -57q-83 0 -139.5 57
t-56.5 140zM598 1790q0 -40 26 -66t66 -26q39 0 65.5 26.5t26.5 65.5q0 38 -27 65t-65 27q-39 0 -65.5 -26.5t-26.5 -65.5z" />
    <glyph glyph-name="uring" unicode="&#x16f;" 
d="M154 399v557h137v-557q0 -133 60.5 -208.5t170.5 -75.5q60 0 114.5 17.5t101 54t74.5 100t28 147.5v522h137v-956h-137v158q-41 -87 -132.5 -132.5t-185.5 -45.5q-174 0 -272 111.5t-96 307.5zM385 1333q0 85 57 143t140 58q85 0 142.5 -58t57.5 -143q0 -83 -57.5 -139.5
t-142.5 -56.5q-83 0 -140 56.5t-57 139.5zM492 1335q0 -40 26 -66t66 -26q39 0 65.5 26.5t26.5 65.5q0 38 -27 65t-65 27q-39 0 -65.5 -26.5t-26.5 -65.5z" />
    <glyph glyph-name="Uhungarumlaut" unicode="&#x170;" horiz-adv-x="1380" 
d="M190 477v934h136v-934q0 -162 105.5 -262t258.5 -100q154 0 259.5 100t105.5 262v934h135v-934q0 -147 -68.5 -262t-182 -175t-249.5 -60t-249.5 60t-182 175t-68.5 262zM457 1591l139 275h152l-144 -275h-147zM702 1591l144 275h168l-172 -275h-140z" />
    <glyph glyph-name="uhungarumlaut" unicode="&#x171;" 
d="M154 399v557h137v-557q0 -133 60.5 -208.5t170.5 -75.5q60 0 114.5 17.5t101 54t74.5 100t28 147.5v522h137v-956h-137v158q-41 -87 -132.5 -132.5t-185.5 -45.5q-174 0 -272 111.5t-96 307.5zM305 1137l139 274h152l-143 -274h-148zM551 1137l143 274h168l-172 -274
h-139z" />
    <glyph glyph-name="Uogonek" unicode="&#x172;" horiz-adv-x="1380" 
d="M190 477v934h136v-934q0 -162 105.5 -262t258.5 -100q154 0 259.5 100t105.5 262v934h135v-934q0 -200 -120 -333.5t-304 -157.5l-66 -168q-15 -35 0 -71.5t52 -53.5q35 -13 70 2.5t50 50.5q3 7 5.5 20.5t3.5 18.5l108 8q0 -41 -18 -88q-34 -78 -107.5 -109t-150.5 1
q-81 33 -113.5 109t6.5 155l60 119q-203 9 -339.5 145.5t-136.5 351.5z" />
    <glyph glyph-name="uogonek" unicode="&#x173;" 
d="M154 399v557h137v-557q0 -133 60.5 -208.5t170.5 -75.5q60 0 114.5 17.5t101 54t74.5 100t28 147.5v522h137v-956h-43l-64 -182q-15 -35 0 -71.5t52 -53.5q35 -13 70 2.5t50 50.5q9 18 9 39l108 8q0 -41 -18 -88q-34 -78 -107.5 -109t-150.5 1q-80 32 -110.5 107t3.5 157
l64 139v158q-41 -87 -132.5 -132.5t-185.5 -45.5q-174 0 -272 111.5t-96 307.5z" />
    <glyph glyph-name="Wcircumflex" unicode="&#x174;" horiz-adv-x="1859" 
d="M47 1411h143l396 -1198l293 1012h102l293 -1012l395 1198h143l-477 -1411h-129l-276 946l-277 -946h-129zM645 1591l195 275h178l194 -275h-139l-145 176l-144 -176h-139z" />
    <glyph glyph-name="wcircumflex" unicode="&#x175;" horiz-adv-x="1646" 
d="M51 956h146l276 -739l275 739h147l276 -739l275 739h145l-358 -956h-115l-297 768l-286 -768h-115zM537 1137l194 274h178l195 -274h-139l-146 176l-143 -176h-139z" />
    <glyph glyph-name="Ycircumflex" unicode="&#x176;" horiz-adv-x="1259" 
d="M29 1411h161l439 -608l442 608h164l-537 -756v-655h-139v655zM348 1591l195 275h178l194 -275h-139l-145 176l-144 -176h-139z" />
    <glyph glyph-name="ycircumflex" unicode="&#x177;" horiz-adv-x="1034" 
d="M49 956h144l323 -778l326 778h145l-594 -1419h-141l190 465zM240 1137l194 274h178l195 -274h-139l-146 176l-143 -176h-139z" />
    <glyph glyph-name="Ydieresis" unicode="&#x178;" horiz-adv-x="1259" 
d="M29 1411h161l439 -608l442 608h164l-537 -756v-655h-139v655zM346 1722q0 42 31 70.5t74 28.5t73.5 -28.5t30.5 -70.5t-30.5 -70t-73.5 -28t-74 28t-31 70zM709 1722q0 42 30.5 70.5t73.5 28.5t74 -28.5t31 -70.5t-31 -70t-74 -28t-73.5 28t-30.5 70z" />
    <glyph glyph-name="Zacute" unicode="&#x179;" horiz-adv-x="1146" 
d="M86 0v135l797 1139h-768v137h934v-135l-799 -1139h799v-137h-963zM453 1591l143 275h168l-172 -275h-139z" />
    <glyph glyph-name="zacute" unicode="&#x17a;" horiz-adv-x="1013" 
d="M84 0v125l635 696h-600v135h794v-122l-645 -699h645v-135h-829zM381 1137l143 274h168l-172 -274h-139z" />
    <glyph glyph-name="Zdotaccent" unicode="&#x17b;" horiz-adv-x="1146" 
d="M86 0v135l797 1139h-768v137h934v-135l-799 -1139h799v-137h-963zM463 1767q0 42 30.5 70.5t73.5 28.5t74 -28.5t31 -70.5t-31 -70t-74 -28t-73.5 28t-30.5 70z" />
    <glyph glyph-name="zdotaccent" unicode="&#x17c;" horiz-adv-x="1013" 
d="M84 0v125l635 696h-600v135h794v-122l-645 -699h645v-135h-829zM395 1313q0 42 31 70t74 28t73.5 -28t30.5 -70t-30.5 -70.5t-73.5 -28.5t-74 28.5t-31 70.5z" />
    <glyph glyph-name="Zcaron" unicode="&#x17d;" horiz-adv-x="1146" 
d="M86 0v135l797 1139h-768v137h934v-135l-799 -1139h799v-137h-963zM283 1821h139l145 -176l144 176h139l-195 -275h-178z" />
    <glyph glyph-name="zcaron" unicode="&#x17e;" horiz-adv-x="1013" 
d="M84 0v125l635 696h-600v135h794v-122l-645 -699h645v-135h-829zM215 1411h139l146 -176l143 176h139l-194 -274h-178z" />
    <glyph glyph-name="longs" unicode="&#x17f;" horiz-adv-x="589" 
d="M59 834v122h187v111q0 408 334 408h102v-129h-102q-52 0 -90 -17.5t-58.5 -43.5t-32 -65.5t-14.5 -74t-2 -78.5v-1067h-137v834h-187z" />
    <glyph glyph-name="florin" unicode="&#x192;" horiz-adv-x="1269" 
d="M61 -408l29 129h103q52 0 93 17.5t67 43.5t46 66t30 73.5t20 78.5l182 834h-187l27 122h186l25 111q19 90 51.5 161t82.5 128t123 88t165 31h102l-28 -129h-103q-52 0 -94 -17.5t-68 -43.5t-45.5 -65.5t-29.5 -74t-19 -78.5l-24 -111h235l-26 -122h-236l-182 -834
q-91 -408 -422 -408h-103z" />
    <glyph glyph-name="Aringacute" unicode="&#x1fa;" horiz-adv-x="1306" 
d="M39 0l543 1411h143l543 -1411h-146l-143 371h-653l-142 -371h-145zM375 498h557l-279 725zM455 1786q0 65 36 116.5t95 71.5l129 248h168l-158 -250q58 -22 92.5 -72t34.5 -114q0 -83 -58 -140t-143 -57q-83 0 -139.5 57t-56.5 140zM561 1788q0 -40 26 -66t66 -26
q39 0 65.5 26.5t26.5 65.5q0 38 -27 65t-65 27q-39 0 -65.5 -26.5t-26.5 -65.5z" />
    <glyph glyph-name="aringacute" unicode="&#x1fb;" horiz-adv-x="1253" 
d="M100 481q0 222 140.5 359t349.5 137q111 0 209.5 -45.5t150.5 -132.5v157h137v-956h-137v164q-52 -87 -151.5 -135.5t-208.5 -48.5q-208 0 -349 139t-141 362zM238 481q0 -158 101 -261t251 -103q153 0 256.5 97t103.5 267q0 85 -32 155t-84 113.5t-115 67t-129 23.5
q-152 0 -252 -99t-100 -260zM426 1333q0 66 36 117.5t95 71.5l129 247h168l-158 -249q58 -22 92.5 -72.5t34.5 -114.5q0 -83 -57.5 -139.5t-142.5 -56.5q-83 0 -140 56.5t-57 139.5zM532 1335q0 -40 26.5 -66t66.5 -26q39 0 65.5 26.5t26.5 65.5q0 38 -27 65t-65 27
q-39 0 -66 -26.5t-27 -65.5z" />
    <glyph glyph-name="AEacute" unicode="&#x1fc;" horiz-adv-x="1929" 
d="M20 0l891 1411h883v-135h-670v-516h586v-135h-586v-490h693v-135h-828v371h-573l-236 -371h-160zM496 498h493v778zM918 1591l143 275h168l-172 -275h-139z" />
    <glyph glyph-name="aeacute" unicode="&#x1fd;" horiz-adv-x="1992" 
d="M100 481q0 222 140.5 359t349.5 137q111 0 209.5 -45.5t150.5 -132.5v157h137v-118q133 139 349 139q207 0 338 -135.5t131 -360.5q0 -45 -2 -63h-811q19 -138 114 -220.5t230 -82.5q97 0 176 44t123 122q23 -6 71.5 -16.5t65.5 -14.5q-58 -127 -174.5 -198.5
t-261.5 -71.5q-214 0 -349 141v-121h-137v164q-52 -87 -151.5 -135.5t-208.5 -48.5q-208 0 -349 139t-141 362zM238 481q0 -158 101 -261t251 -103q153 0 256.5 97t103.5 267q0 85 -32 155t-84 113.5t-115 67t-129 23.5q-152 0 -252 -99t-100 -260zM920 1137l143 274h168
l-172 -274h-139zM1092 545h673q-20 137 -108.5 217t-220.5 80q-135 0 -229.5 -81t-114.5 -216z" />
    <glyph glyph-name="Oslashacute" unicode="&#x1fe;" horiz-adv-x="1636" 
d="M109 702q0 148 55 282t149 231t225.5 154.5t278.5 57.5q133 0 253 -46.5t214 -129.5l178 183l76 -76l-178 -184q168 -205 168 -472q0 -147 -55 -280.5t-149.5 -230.5t-226.5 -154t-280 -57q-261 0 -459 167l-163 -170l-76 76l164 170q-174 203 -174 479zM244 702
q0 -222 133 -383l813 834q-162 139 -373 139q-160 0 -292 -79t-206.5 -214.5t-74.5 -296.5zM453 244q158 -129 364 -129q160 0 292.5 78.5t208 213t75.5 295.5q0 215 -129 375zM717 1591l143 275h168l-172 -275h-139z" />
    <glyph glyph-name="oslashacute" unicode="&#x1ff;" horiz-adv-x="1196" 
d="M98 481q0 147 68.5 261.5t181.5 174.5t250 60q173 0 307 -98l103 106l75 -76l-100 -102q115 -134 115 -326q0 -147 -68.5 -263t-182 -177t-249.5 -61q-184 0 -317 106l-105 -109l-76 76l105 109q-107 136 -107 319zM233 481q0 -128 68 -221l508 520q-89 62 -211 62
q-154 0 -259.5 -99.5t-105.5 -261.5zM377 184q94 -69 221 -69q153 0 259 102t106 264q0 133 -76 228zM498 1137l143 274h168l-172 -274h-139z" />
    <glyph glyph-name="Scommaaccent" unicode="&#x218;" horiz-adv-x="1163" 
d="M117 406h135q0 -53 23 -105t63.5 -93.5t102 -67t132.5 -25.5q148 0 238 68.5t109 162.5q19 121 -58 194.5t-211 104.5l-190 43q-332 75 -332 354q0 111 64 200.5t164.5 137t213.5 47.5q191 0 317 -111t126 -292h-135q0 121 -87.5 194.5t-220.5 73.5q-122 0 -214.5 -70.5
t-92.5 -179.5q0 -33 8 -61t29.5 -60.5t69 -59t118.5 -42.5l193 -43q89 -20 159.5 -55t125 -89t78 -133t8.5 -177q-13 -64 -49 -123t-93.5 -109t-145 -80t-192.5 -30q-134 0 -240.5 64t-161 160.5t-54.5 201.5zM397 -479q119 165 88 348h156q1 -133 -40 -228.5t-105 -146.5z
" />
    <glyph glyph-name="scommaaccent" unicode="&#x219;" horiz-adv-x="868" 
d="M90 274h121q41 -165 225 -165q92 0 147.5 41.5t55.5 109.5q0 51 -33 90.5t-104 57.5l-133 30q-42 10 -74 22t-69 36t-59.5 56t-34.5 83t-5 115q15 101 103.5 164t207.5 63q118 0 200.5 -61.5t100.5 -186.5h-133q-12 54 -58.5 85.5t-109.5 31.5q-69 0 -120 -33t-58 -84
q-6 -32 1 -58t20 -42t35.5 -29t41.5 -19t43 -12l131 -30q242 -58 242 -279q0 -123 -99.5 -201.5t-250.5 -78.5q-129 0 -228.5 80.5t-105.5 213.5zM285 -479q119 165 88 348h155q1 -133 -40 -228.5t-105 -146.5z" />
    <glyph glyph-name="circumflex" unicode="&#x2c6;" horiz-adv-x="997" 
d="M215 1137l195 274h178l194 -274h-139l-145 176l-144 -176h-139z" />
    <glyph glyph-name="caron" unicode="&#x2c7;" horiz-adv-x="1017" 
d="M225 1411h140l145 -176l143 176h140l-195 -274h-178z" />
    <glyph glyph-name="breve" unicode="&#x2d8;" horiz-adv-x="958" 
d="M225 1411h107q9 -63 47.5 -102t99.5 -39q68 0 105.5 41t42.5 100h106q0 -116 -69.5 -186t-184.5 -70q-126 0 -190 74.5t-64 181.5z" />
    <glyph glyph-name="dotaccent" unicode="&#x2d9;" horiz-adv-x="1028" 
d="M410 1313q0 42 30.5 70t73.5 28t73.5 -28t30.5 -70t-30.5 -70.5t-73.5 -28.5t-73.5 28.5t-30.5 70.5z" />
    <glyph glyph-name="ring" unicode="&#x2da;" horiz-adv-x="1052" 
d="M328 1333q0 85 56.5 143t139.5 58q85 0 143 -58t58 -143q0 -83 -58 -139.5t-143 -56.5q-83 0 -139.5 56.5t-56.5 139.5zM434 1335q0 -40 26 -66t66 -26q39 0 65.5 26.5t26.5 65.5q0 38 -27 65t-65 27q-39 0 -65.5 -26.5t-26.5 -65.5z" />
    <glyph glyph-name="ogonek" unicode="&#x2db;" horiz-adv-x="1056" 
d="M346 -139l80 192h115l-101 -235q-15 -35 0 -71.5t52 -53.5q35 -13 70 2.5t50 50.5q6 11 9 39l108 8q0 -41 -18 -88q-34 -78 -107.5 -109t-150.5 1q-80 32 -110.5 107t3.5 157z" />
    <glyph glyph-name="tilde" unicode="&#x2dc;" horiz-adv-x="862" 
d="M164 1190q7 116 57.5 168.5t116.5 52.5q39 0 72.5 -21.5t61 -43t52.5 -21.5q26 0 47.5 20t22.5 66h104q-7 -115 -57 -165t-117 -50q-38 0 -71.5 21.5t-61.5 43t-53 21.5t-47 -23t-23 -69h-104z" />
    <glyph glyph-name="hungarumlaut" unicode="&#x2dd;" horiz-adv-x="884" 
d="M164 1137l139 274h152l-144 -274h-147zM410 1137l143 274h168l-172 -274h-139z" />
    <glyph glyph-name="Wgrave" unicode="&#x1e80;" horiz-adv-x="1859" 
d="M47 1411h143l396 -1198l293 1012h102l293 -1012l395 1198h143l-477 -1411h-129l-276 946l-277 -946h-129zM672 1866h168l143 -275h-139z" />
    <glyph glyph-name="wgrave" unicode="&#x1e81;" horiz-adv-x="1646" 
d="M51 956h146l276 -739l275 739h147l276 -739l275 739h145l-358 -956h-115l-297 768l-286 -768h-115zM590 1411h168l143 -274h-139z" />
    <glyph glyph-name="Wacute" unicode="&#x1e82;" horiz-adv-x="1859" 
d="M47 1411h143l396 -1198l293 1012h102l293 -1012l395 1198h143l-477 -1411h-129l-276 946l-277 -946h-129zM883 1591l143 275h168l-172 -275h-139z" />
    <glyph glyph-name="wacute" unicode="&#x1e83;" horiz-adv-x="1646" 
d="M51 956h146l276 -739l275 739h147l276 -739l275 739h145l-358 -956h-115l-297 768l-286 -768h-115zM745 1137l144 274h168l-172 -274h-140z" />
    <glyph glyph-name="Wdieresis" unicode="&#x1e84;" horiz-adv-x="1859" 
d="M47 1411h143l396 -1198l293 1012h102l293 -1012l395 1198h143l-477 -1411h-129l-276 946l-277 -946h-129zM643 1767q0 42 31 70.5t74 28.5t73.5 -28.5t30.5 -70.5t-30.5 -70t-73.5 -28t-74 28t-31 70zM1006 1767q0 42 30.5 70.5t73.5 28.5t73.5 -28.5t30.5 -70.5
t-30.5 -70t-73.5 -28t-73.5 28t-30.5 70z" />
    <glyph glyph-name="wdieresis" unicode="&#x1e85;" horiz-adv-x="1646" 
d="M51 956h146l276 -739l275 739h147l276 -739l275 739h145l-358 -956h-115l-297 768l-286 -768h-115zM535 1313q0 42 30.5 70t73.5 28t73.5 -28t30.5 -70t-30.5 -70.5t-73.5 -28.5t-73.5 28.5t-30.5 70.5zM897 1313q0 42 30.5 70t73.5 28t74 -28t31 -70t-31 -70.5
t-74 -28.5t-73.5 28.5t-30.5 70.5z" />
    <glyph glyph-name="Ygrave" unicode="&#x1ef2;" horiz-adv-x="1259" 
d="M29 1411h161l439 -608l442 608h164l-537 -756v-655h-139v655zM414 1866h168l143 -275h-139z" />
    <glyph glyph-name="ygrave" unicode="&#x1ef3;" horiz-adv-x="1034" 
d="M49 956h144l323 -778l326 778h145l-594 -1419h-141l190 465zM297 1411h168l143 -274h-139z" />
    <glyph glyph-name="uni2009" unicode="&#x2009;" horiz-adv-x="28" 
 />
    <glyph glyph-name="endash" unicode="&#x2013;" horiz-adv-x="1222" 
d="M150 414v121h923v-121h-923z" />
    <glyph glyph-name="emdash" unicode="&#x2014;" horiz-adv-x="1665" 
d="M150 414v121h1366v-121h-1366z" />
    <glyph glyph-name="quoteleft" unicode="&#x2018;" horiz-adv-x="485" 
d="M135 991q11 151 62.5 268.5t113.5 167.5l78 -26q-55 -76 -87.5 -181t-31.5 -229h-135z" />
    <glyph glyph-name="quoteright" unicode="&#x2019;" horiz-adv-x="481" 
d="M117 1018q122 168 119 409h135q-11 -151 -62.5 -268.5t-113.5 -167.5z" />
    <glyph glyph-name="quotesinglbase" unicode="&#x201a;" horiz-adv-x="477" 
d="M70 -111q121 167 118 410h136q-11 -151 -62.5 -268.5t-114.5 -167.5z" />
    <glyph glyph-name="quotedblleft" unicode="&#x201c;" horiz-adv-x="722" 
d="M135 991q11 151 62.5 268.5t113.5 167.5l78 -26q-55 -76 -87.5 -181t-31.5 -229h-135zM373 991q11 151 62.5 268.5t113.5 167.5l78 -26q-55 -76 -87.5 -181t-31.5 -229h-135z" />
    <glyph glyph-name="quotedblright" unicode="&#x201d;" horiz-adv-x="718" 
d="M117 1018q122 168 119 409h135q-11 -151 -62.5 -268.5t-113.5 -167.5zM354 1018q122 168 119 409h135q-11 -151 -62.5 -268.5t-113.5 -167.5z" />
    <glyph glyph-name="quotedblbase" unicode="&#x201e;" horiz-adv-x="714" 
d="M70 -111q121 167 118 410h136q-11 -151 -62.5 -268.5t-114.5 -167.5zM307 -111q55 76 87.5 181t31.5 229h135q-11 -151 -62.5 -268.5t-113.5 -167.5z" />
    <glyph glyph-name="dagger" unicode="&#x2020;" horiz-adv-x="841" 
d="M92 887v135h260v389h135v-389h263v-135h-263v-1149h-135v1149h-260z" />
    <glyph glyph-name="daggerdbl" unicode="&#x2021;" horiz-adv-x="903" 
d="M123 180v135h260v572h-260v135h260v389h135v-389h262v-135h-262v-572h262v-135h-262v-442h-135v442h-260z" />
    <glyph glyph-name="bullet" unicode="&#x2022;" horiz-adv-x="937" 
d="M174 489q0 120 86 200.5t209 80.5t209 -80.5t86 -200.5t-86 -200t-209 -80t-209 80t-86 200z" />
    <glyph glyph-name="ellipsis" unicode="&#x2026;" horiz-adv-x="1503" 
d="M147 86q0 45 33.5 76t79.5 31t79.5 -31t33.5 -76t-33.5 -75.5t-79.5 -30.5t-79.5 30.5t-33.5 75.5zM639 86q0 45 33.5 76t79.5 31t79 -31t33 -76t-33 -75.5t-79 -30.5t-79.5 30.5t-33.5 75.5zM1130 86q0 45 33.5 76t79.5 31t79.5 -31t33.5 -76t-33.5 -75.5t-79.5 -30.5
t-79.5 30.5t-33.5 75.5z" />
    <glyph glyph-name="perthousand" unicode="&#x2030;" horiz-adv-x="1980" 
d="M84 1104q0 115 78.5 194.5t193.5 79.5q114 0 194.5 -80t80.5 -194q0 -115 -80 -194t-195 -79t-193.5 78.5t-78.5 194.5zM201 1104q0 -66 44.5 -111t110.5 -45q65 0 111.5 45.5t46.5 110.5q0 64 -47 111t-111 47q-65 0 -110 -46.5t-45 -111.5zM287 0l674 1378h96
l-674 -1378h-96zM719 252q0 115 78.5 194.5t193.5 79.5q114 0 194.5 -80t80.5 -194q0 -115 -80 -193.5t-195 -78.5t-193.5 78t-78.5 194zM836 252q0 -66 44.5 -111t110.5 -45q65 0 111.5 45.5t46.5 110.5q0 64 -46.5 111t-111.5 47t-110 -46.5t-45 -111.5zM1360 252
q0 115 78.5 194.5t193.5 79.5q114 0 194.5 -80t80.5 -194q0 -115 -80 -193.5t-195 -78.5q-116 0 -194 78t-78 194zM1477 252q0 -66 44.5 -111t110.5 -45q65 0 111.5 45.5t46.5 110.5q0 64 -47 111t-111 47q-65 0 -110 -46.5t-45 -111.5z" />
    <glyph glyph-name="guilsinglleft" unicode="&#x2039;" horiz-adv-x="620" 
d="M102 475l283 424h127l-283 -424l283 -424h-127z" />
    <glyph glyph-name="guilsinglright" unicode="&#x203a;" horiz-adv-x="620" 
d="M109 51l282 424l-282 424h127l282 -424l-282 -424h-127z" />
    <glyph glyph-name="fraction" unicode="&#x2044;" horiz-adv-x="368" 
d="M-348 -20l917 1398h136l-918 -1398h-135z" />
    <glyph glyph-name="uni2070" unicode="&#x2070;" horiz-adv-x="745" 
d="M86 1362q0 72 8 130.5t28 111.5t52 89.5t82.5 57.5t116.5 21q67 0 117.5 -21.5t82 -57t51.5 -89.5t27.5 -112t7.5 -130q0 -71 -7.5 -128.5t-27.5 -110.5t-51.5 -89t-82 -57t-117.5 -21q-66 0 -116.5 21t-82.5 57t-52 89t-28 110.5t-8 128.5zM186 1362q0 -68 8.5 -120
t28.5 -96t58 -67.5t92 -23.5t92 23.5t57.5 67.5t28 96t8.5 120q0 69 -8.5 121t-28 96.5t-57.5 68t-92 23.5t-92 -23.5t-58 -68t-28.5 -97t-8.5 -120.5z" />
    <glyph glyph-name="uni2074" unicode="&#x2074;" horiz-adv-x="741" 
d="M39 1128l444 637h82v-534h117v-103h-117v-165h-108v165h-418zM225 1231h232v338z" />
    <glyph glyph-name="uni2075" unicode="&#x2075;" horiz-adv-x="698" 
d="M61 1133l89 63q24 -60 73 -98.5t105 -38.5q86 0 140 46.5t54 115.5q0 70 -49 107.5t-113 37.5q-61 0 -109 -14.5t-138 -59.5l-23 25l80 448h408v-104h-318l-41 -219q70 33 141 33q114 0 191.5 -67t77.5 -187q0 -122 -84 -196.5t-217 -74.5q-83 0 -154.5 50.5
t-112.5 132.5z" />
    <glyph glyph-name="uni2076" unicode="&#x2076;" horiz-adv-x="692" 
d="M90 1231q-3 54 -3.5 98t3.5 103.5t14.5 105t32 93t52.5 78.5t79.5 51t110.5 20q77 -3 134.5 -36.5t94.5 -117.5l-96 -41q-24 45 -60.5 68.5t-76.5 23.5q-87 0 -139 -84.5t-35 -210.5q31 103 166 103q107 0 179.5 -83t67.5 -192t-82.5 -183.5t-185.5 -70.5
q-107 5 -176.5 77.5t-79.5 197.5zM201 1227q0 -67 43.5 -113t107.5 -49t108.5 40.5t47.5 108.5q3 66 -38 112.5t-105 49.5q-65 3 -113 -40t-51 -109z" />
    <glyph glyph-name="uni2077" unicode="&#x2077;" horiz-adv-x="659" 
d="M66 963l383 694h-369v108h553l-440 -802h-127z" />
    <glyph glyph-name="uni2078" unicode="&#x2078;" horiz-adv-x="708" 
d="M78 1212q0 66 33.5 124t89.5 94q-60 54 -60 141q0 86 61 145.5t152 59.5t153 -60t62 -145q0 -87 -61 -141q57 -35 90 -93t33 -125q0 -109 -80 -184.5t-197 -75.5q-118 0 -197 75.5t-79 184.5zM186 1212q0 -64 48.5 -108.5t119.5 -44.5t119.5 44.5t48.5 108.5t-48.5 111
t-119.5 47q-72 0 -120 -47.5t-48 -110.5zM248 1571q0 -42 30.5 -75t77.5 -32q43 0 74 33t31 74q0 40 -31 68t-76 28q-44 0 -75 -28t-31 -68z" />
    <glyph glyph-name="uni2079" unicode="&#x2079;" horiz-adv-x="692" 
d="M78 1520q5 109 82.5 183.5t185.5 70.5q107 -5 176.5 -77.5t79.5 -197.5q3 -54 3.5 -98t-3.5 -103.5t-14.5 -105t-32 -93t-52.5 -78.5t-79.5 -51t-110.5 -20q-77 3 -134.5 36.5t-94.5 117.5l96 41q24 -45 60.5 -68.5t76.5 -23.5q87 0 139.5 84.5t35.5 210.5
q-31 -103 -166 -103q-107 0 -180 83t-68 192zM184 1516q-3 -66 38.5 -112.5t105.5 -49.5q65 -3 113 40t51 109q0 67 -44 113t-108 49t-108.5 -40.5t-47.5 -108.5z" />
    <glyph glyph-name="uni2080" unicode="&#x2080;" horiz-adv-x="747" 
d="M86 82q0 72 8 130.5t28 111.5t52 89.5t82.5 57.5t116.5 21q67 0 117.5 -21.5t82 -57t51.5 -89.5t27.5 -112t7.5 -130q0 -71 -7.5 -128.5t-27.5 -110.5t-51.5 -89t-82 -57t-117.5 -21q-66 0 -116.5 21t-82.5 57t-52 89t-28 110.5t-8 128.5zM186 82q0 -68 8.5 -120
t28.5 -96t58 -67.5t92 -23.5t92 23.5t57.5 67.5t28 96t8.5 120q0 69 -8.5 121t-28 96.5t-57.5 68t-92 23.5t-92 -23.5t-58 -68t-28.5 -97t-8.5 -120.5z" />
    <glyph glyph-name="uni2081" unicode="&#x2081;" horiz-adv-x="411" 
d="M55 301v105l240 88v-811h-109v665z" />
    <glyph glyph-name="uni2082" unicode="&#x2082;" horiz-adv-x="665" 
d="M72 285q15 96 85.5 153.5t166.5 57.5q106 0 178.5 -67t72.5 -171q0 -105 -88 -207l-113.5 -134l-105.5 -126h307v-108h-493v49l326 393q59 72 59 133q0 57 -41 93t-102 36q-58 0 -101.5 -34.5t-50.5 -92.5z" />
    <glyph glyph-name="uni2083" unicode="&#x2083;" horiz-adv-x="667" 
d="M55 -162q16 8 45 25.5t45 25.5q20 -44 62.5 -73t93.5 -35q67 -5 120 34.5t56 98.5q3 58 -45 101.5t-113 43.5h-90v105h90q44 0 75.5 27t37.5 67q7 52 -22.5 87.5t-85.5 41.5q-90 9 -144 -72q-16 11 -43 34.5t-35 29.5q33 58 95.5 90.5t136.5 28.5q97 -6 160 -72t61 -152
q-2 -48 -27 -90.5t-69 -68.5q60 -21 97.5 -85t31.5 -130q-9 -102 -95.5 -169t-199.5 -59q-78 6 -142.5 51.5t-95.5 114.5z" />
    <glyph glyph-name="uni2084" unicode="&#x2084;" horiz-adv-x="741" 
d="M39 -152l444 637h82v-534h117v-103h-117v-165h-108v165h-418zM225 -49h232v338z" />
    <glyph glyph-name="uni2085" unicode="&#x2085;" horiz-adv-x="696" 
d="M61 -147l89 63q24 -60 73 -98.5t105 -38.5q86 0 140 46.5t54 115.5q0 70 -49 107.5t-113 37.5q-61 0 -109 -14.5t-138 -59.5l-23 25l80 448h408v-104h-318l-41 -219q70 33 141 33q114 0 191.5 -67t77.5 -187q0 -122 -84 -196.5t-217 -74.5q-83 0 -154.5 50.5
t-112.5 132.5z" />
    <glyph glyph-name="uni2086" unicode="&#x2086;" horiz-adv-x="692" 
d="M90 -49q-3 54 -3.5 98t3.5 103.5t14.5 105t32 93t52.5 78.5t79.5 51t110.5 20q77 -3 134.5 -36.5t94.5 -117.5l-96 -41q-24 45 -60.5 68.5t-76.5 23.5q-87 0 -139 -84.5t-35 -210.5q31 103 166 103q107 0 179.5 -83t67.5 -192t-82.5 -183.5t-185.5 -70.5
q-107 5 -176.5 77.5t-79.5 197.5zM201 -53q0 -67 43.5 -113t107.5 -49t108.5 40.5t47.5 108.5q3 66 -38 112.5t-105 49.5q-65 3 -113 -40t-51 -109z" />
    <glyph glyph-name="uni2087" unicode="&#x2087;" horiz-adv-x="653" 
d="M68 -317l383 694h-369v108h553l-440 -802h-127z" />
    <glyph glyph-name="uni2088" unicode="&#x2088;" horiz-adv-x="704" 
d="M76 -68q0 66 33.5 124t89.5 94q-60 54 -60 141q0 86 61 145.5t152 59.5t153 -60t62 -145q0 -87 -61 -141q57 -35 90 -93t33 -125q0 -109 -80 -184.5t-197 -75.5q-118 0 -197 75.5t-79 184.5zM184 -68q0 -64 48.5 -108.5t119.5 -44.5t119.5 44.5t48.5 108.5t-48.5 111
t-119.5 47q-72 0 -120 -47.5t-48 -110.5zM246 291q0 -42 30.5 -75t77.5 -32q43 0 74 33t31 74q0 40 -31 68t-76 28q-44 0 -75 -28t-31 -68z" />
    <glyph glyph-name="uni2089" unicode="&#x2089;" horiz-adv-x="692" 
d="M78 240q5 109 82.5 183.5t185.5 70.5q107 -5 176.5 -77.5t79.5 -197.5q3 -54 3.5 -98t-3.5 -103.5t-14.5 -105t-32 -93t-52.5 -78.5t-79.5 -51t-110.5 -20q-77 3 -134.5 36.5t-94.5 117.5l96 41q24 -45 60.5 -68.5t76.5 -23.5q87 0 139.5 84.5t35.5 210.5
q-31 -103 -166 -103q-107 0 -180 83t-68 192zM184 236q-3 -66 38.5 -112.5t105.5 -49.5q65 -3 113 40t51 109q0 67 -44 113t-108 49t-108.5 -40.5t-47.5 -108.5z" />
    <glyph glyph-name="colonmonetary" unicode="&#x20a1;" horiz-adv-x="1392" 
d="M106 702q0 191 80.5 351.5t226.5 260t330 111.5l80 224l97 -35l-68 -189q90 -9 172 -39l68 187l96 -33l-70 -194q90 -45 174 -129l-94 -95q-50 50 -125 95l-391 -1092q58 -10 109 -10q119 0 224 45.5t185 126.5l94 -97q-97 -100 -226.5 -155t-276.5 -55q-76 0 -154 16
l-78 -219l-96 35l76 213q-86 36 -156 88l-92 -260l-96 32l106 301q-93 99 -144 232t-51 284zM242 702q0 -212 112 -368l338 948q-201 -35 -325.5 -197.5t-124.5 -382.5zM432 248q69 -60 154 -94l393 1106q-76 29 -174 32z" />
    <glyph glyph-name="lira" unicode="&#x20a4;" horiz-adv-x="1316" 
d="M109 0v135h200v271h-166v116h166v140h-166v116h166v264q0 117 59 209t153.5 139.5t203.5 47.5q168 0 283.5 -109.5t115.5 -286.5h-135q0 117 -76.5 189t-187.5 72q-113 0 -197 -73t-84 -188v-264h332v-116h-332v-140h332v-116h-332v-271h584q19 0 31 14.5t12 36.5v121
h135v-121q0 -79 -52 -132.5t-126 -53.5h-919z" />
    <glyph glyph-name="uni20A6" unicode="&#x20a6;" horiz-adv-x="1482" 
d="M125 512v102h123v189h-123v102h123v506h145l307 -506h406v506h135v-506h117v-102h-117v-189h117v-102h-117v-512h-139l-311 512h-408v-512h-135v512h-123zM383 614h344l-115 189h-229v-189zM383 905h168l-168 277v-277zM762 803l115 -189h229v189h-344zM940 512l166 -274
v274h-166z" />
    <glyph glyph-name="peseta" unicode="&#x20a7;" horiz-adv-x="1445" 
d="M117 807v102h157v121h-157v103h157v278h555q154 0 248 -76.5t129 -201.5h144v-103h-125q0 -8 1 -25.5t1 -25.5q0 -24 -4 -70h127v-102h-150q-38 -117 -130 -186.5t-241 -69.5h-417v-551h-138v807h-157zM412 686h407q163 0 232 121h-639v-121zM412 909h673q7 40 7 70
q0 6 -5 51h-675v-121zM412 1133h649q-65 143 -232 143h-417v-143z" />
    <glyph glyph-name="uni20A8" unicode="&#x20a8;" horiz-adv-x="1415" 
d="M150 551v135h444q72 0 125 24t83 66.5t44 93t14 109.5q0 27 -2 39h-708v94h690q-27 74 -85.5 119t-150.5 45h-454v135h1165v-94h-445q81 -75 111 -205h334v-94h-322q2 -14 2 -39q0 -66 -12.5 -125.5t-40.5 -114.5t-70.5 -95.5t-106.5 -65.5t-144 -27l389 -551h-166
l-389 551h-305z" />
    <glyph glyph-name="uni20A9" unicode="&#x20a9;" horiz-adv-x="2013" 
d="M123 606v103h239l-63 188h-176v102h141l-139 412h143l135 -412h488l65 226h103l65 -226h488l135 412h143l-139 -412h137v-102h-172l-63 -188h235v-103h-270l-205 -606h-129l-178 606h-199l-176 -606h-129l-205 606h-274zM438 897l62 -188h307l53 188h-422zM535 606
l129 -393l112 393h-241zM938 709h139l-55 188h-29zM1153 897l55 -188h308l61 188h-424zM1237 606l115 -393l129 393h-244z" />
    <glyph glyph-name="afii57636" unicode="&#x20aa;" horiz-adv-x="1499" 
d="M207 0v1112h354q191 0 310.5 -120.5t119.5 -299.5v-332h-135v332q0 121 -82 203t-213 82h-219v-977h-135zM508 420v332h135v-332q0 -121 82 -203t213 -82h219v977h135v-1112h-354q-191 0 -310.5 120.5t-119.5 299.5z" />
    <glyph glyph-name="Euro" unicode="&#x20ac;" horiz-adv-x="1632" 
d="M111 535v96h956v-96h-600q47 -187 189 -303.5t339 -116.5q119 0 224.5 45.5t185.5 126.5l94 -97q-97 -100 -227 -155t-277 -55q-252 0 -433.5 155.5t-233.5 399.5h-217zM111 766v96h215q51 248 232.5 406.5t436.5 158.5q147 0 276 -55t226 -155l-94 -95
q-170 170 -408 170q-198 0 -341.5 -120t-188.5 -310h602v-96h-956z" />
    <glyph glyph-name="afii61289" unicode="&#x2113;" horiz-adv-x="790" 
d="M158 297v815q0 71 13 125.5t42.5 99.5t83 69t129.5 24q138 0 200 -86.5t62 -231.5v-385q0 -145 -62 -231t-200 -86h-133v-113q0 -182 133 -182h205v-135h-205q-76 0 -129.5 24t-83 68.5t-42.5 99t-13 125.5zM293 545h133q127 0 127 182v385q0 182 -127 182
q-133 0 -133 -182v-567z" />
    <glyph glyph-name="afii61352" unicode="&#x2116;" horiz-adv-x="1941" 
d="M207 0v1411h145l713 -1173v1173h135v-1411h-139l-719 1182v-1182h-135zM1323 1171q0 106 75 181t181 75t181 -75t75 -181t-75 -181t-181 -75t-181 75t-75 181zM1333 743v74h492v-74h-492zM1427 1171q0 -63 44.5 -107t107.5 -44t107.5 44t44.5 107t-44.5 107.5
t-107.5 44.5t-107.5 -44.5t-44.5 -107.5z" />
    <glyph glyph-name="trademark" unicode="&#x2122;" horiz-adv-x="1677" 
d="M139 1307v104h672l262 -571l262 571h99l90 -760h-103l-69 572l-232 -506h-92l-235 502l-68 -568h-104l79 656h-223v-656h-104v656h-234z" />
    <glyph glyph-name="estimated" unicode="&#x212e;" horiz-adv-x="1361" 
d="M135 573q0 164 66.5 298t196.5 215t300 81q169 0 298 -82.5t195 -217t66 -296.5h-878v-395q135 -129 311 -129q67 0 124.5 14.5t99.5 36.5t81 58t66.5 70t58.5 81l64 -39q-43 -67 -87 -115.5t-103 -89.5t-135 -62t-169 -21q-122 0 -227 47.5t-176.5 128t-111.5 189
t-40 228.5zM379 639h633v334q-59 54 -144 90.5t-170 36.5q-195 0 -319 -127v-334z" />
    <glyph glyph-name="minus" unicode="&#x2212;" horiz-adv-x="1187" 
d="M158 475v129h872v-129h-872z" />
    <glyph glyph-name="notequal" unicode="&#x2260;" horiz-adv-x="1234" 
d="M147 240v129h355l141 290h-496v129h560l116 240h107l-117 -240h274v-129h-337l-142 -290h479v-129h-542l-117 -240h-106l116 240h-291z" />
    <glyph glyph-name="lessequal" unicode="&#x2264;" horiz-adv-x="1374" 
d="M154 772v148l1042 399v-148l-885 -325l885 -328v-145zM166 0v129h1022v-129h-1022z" />
    <glyph glyph-name="greaterequal" unicode="&#x2265;" horiz-adv-x="1374" 
d="M178 373v145l885 328l-885 325v148l1043 -399v-148zM186 0v129h1022v-129h-1022z" />
    <glyph glyph-name="uniE000" unicode="&#xe000;" horiz-adv-x="952" 
d="M0 0v952h952v-952h-952z" />
    <glyph glyph-name="uniF6C3" unicode="&#xf6c3;" horiz-adv-x="532" 
d="M143 -479q119 165 88 348h156q1 -133 -40 -228.5t-105 -146.5z" />
    <glyph glyph-name="uniF6DD" unicode="&#xf6dd;" horiz-adv-x="2363" 
d="M156 0v1411h524q103 0 181 -36.5t122.5 -99t66 -137t21.5 -159.5q0 -66 -12.5 -125.5t-41 -114.5t-71 -95.5t-106.5 -65.5t-144 -27l389 -551h-165l-390 551h-237v-551h-137zM293 686h377q72 0 125 24t83 66.5t44 93t14 109.5t-14 110t-43 94t-80 68t-119 25h-387v-590z
M1303 -463v1419h135l2 -165q52 88 151.5 137t208.5 49q208 0 349 -140.5t141 -363.5q0 -222 -140.5 -357.5t-349.5 -135.5q-111 0 -210 45t-150 131v-619h-137zM1440 473q0 -85 32 -154.5t84 -112.5t115 -66t129 -23q152 0 252 97.5t100 258.5q0 159 -101 263t-251 104
q-153 0 -256.5 -98t-103.5 -269z" />
    <glyph glyph-name="uniF8FF" unicode="&#xf8ff;" horiz-adv-x="1734" 
d="M164 0v1407h1407v-1407h-1407zM336 162h18v76l27 -76h20l23 76v-76h18v108h-28l-19 -73l-28 73h-31v-108zM336 446h166l-152 154v365l522 -519l525 519v-365l-152 -154h172v773l-545 -539l-536 539v-773zM457 215q0 -22 13 -37.5t38 -15.5q22 0 34.5 15.5t12.5 37.5
q0 23 -12.5 39t-34.5 16q-25 0 -38 -16t-13 -39zM473 215q0 12 10.5 23.5t24.5 11.5q12 0 18 -11t6 -24q0 -12 -6 -22.5t-18 -10.5q-14 0 -24.5 11.5t-10.5 21.5zM555 203q0 -20 12.5 -30.5t32.5 -10.5q45 0 45 35q0 22 -31 28q-21 3 -26.5 5t-5.5 8q0 12 18 12q21 0 21 -12
h18q0 32 -39 32q-15 0 -27 -9t-12 -23q0 -11 8 -17t25 -14q27 0 27 -10t-4.5 -12.5t-16.5 -2.5q-18 0 -18 21h-27zM645 250h35v-88h16v88h31v20h-82v-20zM709 162h24l8 26h45l7 -26h22h19v45h26q8 0 13.5 -6t5.5 -13v-26h26q-6 6 -6 26q0 19 -14 27q10 4 12 8.5t2 14.5
q0 32 -27 32h-57v-108l-43 108h-18zM748 207l12 37h6l14 -37h-32zM834 221v29h26q19 0 19 -12q0 -17 -19 -17h-26zM913 162h41q24 0 38 16.5t14 42.5q0 22 -14 35.5t-38 13.5h-41v-108zM938 182v68h8q21 0 28 -8t7 -27q0 -13 -9 -23t-18 -10h-16zM1012 162h82v20h-58v25h51
v18h-51v25h51v20h-75v-108zM1094 203q0 -41 45 -41q19 0 32 10t13 25q0 21 -31 28q-23 3 -29 5t-6 8q0 12 15 12q24 0 24 -12h21q0 32 -39 32q-16 0 -30.5 -9t-14.5 -23q0 -11 9.5 -17t29.5 -14q24 0 24 -10q0 -15 -18 -15q-10 0 -18.5 5.5t-8.5 15.5h-18zM1192 162h14v108
h-14v-108zM1221 215q0 -22 13.5 -37.5t37.5 -15.5q18 0 24 14l9 -14h12v59h-45v-18h24q-9 -21 -24 -21q-14 0 -23.5 11.5t-9.5 21.5q0 12 9.5 23.5t23.5 11.5q6 0 12 -6t6 -15h27q-4 20 -17 30.5t-28 10.5q-24 0 -37.5 -16t-13.5 -39zM1329 162h17v67l45 -67h26v108h-26v-67
l-45 67h-17v-108z" />
    <glyph glyph-name="published" horiz-adv-x="1669" 
d="M119 702q0 147 56 281t151.5 231.5t228 155t279.5 57.5q196 0 361 -97.5t260 -264t95 -363.5q0 -147 -56 -280.5t-151.5 -230.5t-228.5 -154t-280 -57t-279.5 57t-228 154t-151.5 230.5t-56 280.5zM233 702q0 -166 79.5 -305t218 -220t303.5 -81t303 81t217.5 220
t79.5 305t-79.5 306t-217.5 221.5t-303 81.5q-124 0 -235.5 -48t-191.5 -130t-127 -194.5t-47 -236.5zM643 334v717h272q109 0 167.5 -68t58.5 -162q0 -39 -14 -78t-40 -73t-71 -55t-101 -21h-84h-75v-260h-113zM756 705h155q54 0 86.5 34.5t32.5 81.5t-31.5 82t-83.5 35
h-159v-233z" />
    <glyph glyph-name="frenchfranc" horiz-adv-x="1486" 
d="M207 0v1411h792v-135h-657v-447h635v-217q35 122 102 180t172 58q47 0 94 -12t62 -25l-16 -133q-65 33 -140 33q-70 0 -124.5 -45.5t-86 -122.5t-47.5 -167.5t-16 -189.5v-188h-137v694h-498v-694h-135z" />
    <glyph glyph-name="parenleft.case" horiz-adv-x="739" 
d="M111 690q0 449 148 700.5t396 251.5v-135q-187 0 -298 -215.5t-111 -601.5q0 -383 111 -600t298 -217v-135q-248 0 -396 253t-148 699z" />
    <glyph glyph-name="parenright.case" horiz-adv-x="739" 
d="M84 -127q187 0 298.5 217.5t111.5 599.5q0 386 -111.5 601.5t-298.5 215.5v135q249 0 397 -251.5t148 -700.5q0 -446 -148.5 -699t-396.5 -253v135z" />
    <glyph glyph-name="hyphen.case" horiz-adv-x="993" 
d="M147 629v129h699v-129h-699z" />
    <glyph glyph-name="at.case" horiz-adv-x="2021" 
d="M106 731q0 186 69.5 354.5t188.5 290.5t285 194t352 72q187 0 358.5 -66.5t299 -181t203 -278t75.5 -348.5q0 -77 -12 -154t-41 -155.5t-71.5 -138.5t-110 -98t-150.5 -38q-59 0 -108 14.5t-91 46t-65.5 89t-23.5 137.5v270v2q0 118 -83 200.5t-200 82.5t-200 -82.5
t-83 -200.5q0 -117 83 -199.5t200 -82.5q111 0 197 86v-146q-97 -65 -197 -65q-169 0 -288.5 119t-119.5 288t119.5 288.5t288.5 119.5q164 0 283 -113q119 -116 125 -276v-305q0 -152 163 -152q60 0 107.5 32t75 80.5t45 113t24 122t6.5 115.5q0 159 -65.5 299.5
t-176 238.5t-258.5 155t-309 57q-160 0 -303 -62.5t-245 -168t-162 -251t-60 -305.5t60 -304t162 -248t245 -165t303 -61h37v-125h-37q-186 0 -352 70.5t-285 191.5t-188.5 288t-69.5 353z" />
    <glyph glyph-name="bracketleft.case" horiz-adv-x="612" 
d="M182 -248v1874h336v-137h-199v-1598h199v-139h-336z" />
    <glyph glyph-name="bracketright.case" horiz-adv-x="612" 
d="M94 -109h199v1598h-199v137h336v-1874h-336v139z" />
    <glyph glyph-name="braceleft.case" horiz-adv-x="811" 
d="M86 637v117q53 0 92 43t39 98v352q-1 177 115 286t284 109h111v-124h-111q-110 0 -187 -76.5t-77 -194.5v-352q0 -63 -32.5 -121t-88.5 -80q52 -20 86.5 -78.5t34.5 -119.5v-349q0 -118 77 -194t187 -76h111v-125h-111q-168 0 -283.5 109t-115.5 286v349q0 55 -39 98
t-92 43z" />
    <glyph glyph-name="braceright.case" horiz-adv-x="811" 
d="M84 -123h111q110 0 187 76t77 194v349q0 61 34.5 119.5t86.5 78.5q-56 22 -88.5 80t-32.5 121v352q0 118 -77 194.5t-187 76.5h-111v124h111q168 0 284 -109t115 -286v-352q0 -55 39 -98t92 -43v-117q-53 0 -92 -43t-39 -98v-349q0 -177 -115.5 -286t-283.5 -109h-111
v125z" />
    <glyph glyph-name="exclamdown.case" horiz-adv-x="524" 
d="M150 1313q0 45 33 75.5t79 30.5t79.5 -30.5t33.5 -75.5t-33.5 -76t-79.5 -31t-79 31t-33 76zM195 0l12 1020h110l13 -1020h-135z" />
    <glyph glyph-name="guillemotleft.case" horiz-adv-x="980" 
d="M123 690l283 424h126l-282 -424l282 -424h-126zM430 690l283 424h127l-283 -424l283 -424h-127z" />
    <glyph glyph-name="periodcentered.case" horiz-adv-x="520" 
d="M147 754q0 45 33.5 75.5t79.5 30.5t79.5 -30.5t33.5 -75.5t-33.5 -76t-79.5 -31t-79.5 31t-33.5 76z" />
    <glyph glyph-name="guillemotright.case" horiz-adv-x="980" 
d="M141 266l283 424l-283 424h127l283 -424l-283 -424h-127zM449 266l282 424l-282 424h126l283 -424l-283 -424h-126z" />
    <glyph glyph-name="questiondown.case" horiz-adv-x="997" 
d="M86 377q0 142 83.5 244t209.5 139q85 26 130.5 73.5t45.5 135.5v59h135v-59q0 -257 -270 -338q-84 -27 -141.5 -94.5t-57.5 -159.5q0 -115 84 -187.5t197 -72.5q111 0 187.5 71.5t76.5 188.5h135q0 -177 -115.5 -286t-283.5 -109q-110 0 -204 47.5t-153 139t-59 208.5z
M510 1321q0 45 33.5 75.5t79.5 30.5t79 -30.5t33 -75.5t-33 -76t-79 -31t-79.5 31t-33.5 76z" />
    <glyph glyph-name="endash.case" horiz-adv-x="1222" 
d="M150 629v121h923v-121h-923z" />
    <glyph glyph-name="emdash.case" horiz-adv-x="1665" 
d="M150 629v121h1366v-121h-1366z" />
    <glyph glyph-name="bullet.case" horiz-adv-x="937" 
d="M174 705q0 120 86 200t209 80t209 -80t86 -200t-86 -200.5t-209 -80.5t-209 80.5t-86 200.5z" />
    <glyph glyph-name="guilsinglleft.case" horiz-adv-x="673" 
d="M123 690l283 424h126l-282 -424l282 -424h-126z" />
    <glyph glyph-name="guilsinglright.case" horiz-adv-x="673" 
d="M141 266l283 424l-283 424h127l283 -424l-283 -424h-127z" />
    <glyph glyph-name="cent.case" horiz-adv-x="1071" 
d="M104 709q0 199 117.5 330.5t300.5 158.5v223h103v-217q191 -9 323 -129l-96 -96q-104 90 -248 90q-154 0 -259 -99t-105 -261t105.5 -264.5t258.5 -102.5q145 0 248 92l98 -96q-131 -122 -325 -131v-230h-103v236q-182 27 -300 162t-118 334z" />
    <glyph glyph-name="zero.tnum" horiz-adv-x="1187" 
d="M111 678q0 123 13 222.5t46.5 190.5t87.5 152.5t139.5 98t198.5 36.5t198.5 -36.5t139 -98t86.5 -153t46 -190.5t13 -222q0 -122 -13 -221t-46 -190.5t-86.5 -152.5t-139 -97.5t-198.5 -36.5t-199 36.5t-139.5 98t-87 152.5t-46.5 190t-13 221zM246 678q0 -99 9 -178.5
t33.5 -153.5t63 -123t100.5 -78.5t144 -29.5t144 29.5t100 78.5t62 123t33 153.5t9 178.5q0 100 -9 179.5t-33 153.5t-62 123.5t-100 79t-144 29.5t-144 -29.5t-100.5 -79t-63 -123t-33.5 -154t-9 -179.5z" />
    <glyph glyph-name="one.tnum" horiz-adv-x="1187" 
d="M350 1106v123l367 133v-1362h-135v1186z" />
    <glyph glyph-name="two.tnum" horiz-adv-x="1187" 
d="M166 1057q24 147 139 234t273 87q176 0 296.5 -109t120.5 -280q0 -180 -147 -348l-428 -506h577v-135h-817v47l570 690q110 129 110 252q0 114 -81 184t-201 70q-111 0 -192.5 -59.5t-94.5 -159.5z" />
    <glyph glyph-name="three.tnum" horiz-adv-x="1187" 
d="M143 233l123 56q31 -70 104.5 -117t166.5 -55q86 -5 163 27.5t125.5 94.5t53.5 138q4 115 -88 201t-218 86h-131v129h131q102 -1 173.5 63.5t76.5 157.5q5 96 -55.5 159t-179.5 70q-85 5 -158 -29t-108 -94l-109 68q54 95 157.5 147t225.5 45q125 -9 212.5 -65
t125 -139.5t27.5 -182.5q-6 -82 -59 -153.5t-134 -106.5q76 -18 136 -78.5t89 -140.5t23 -158q-15 -168 -158 -277t-330 -97q-131 10 -235 78.5t-150 172.5z" />
    <glyph glyph-name="four.tnum" horiz-adv-x="1187" 
d="M53 291l748 1071h100v-946h205v-125h-205v-291h-135v291h-713zM301 416h465v676z" />
    <glyph glyph-name="five.tnum" horiz-adv-x="1187" 
d="M117 266l116 84q38 -98 136 -163.5t204 -65.5q159 0 250.5 86.5t91.5 220.5q0 68 -27.5 125t-72 92.5t-98 54.5t-109.5 19q-99 0 -174.5 -22.5t-200.5 -84.5l-53 72l119 678h668v-137h-551l-82 -451q168 84 274 84q91 0 171.5 -29t142.5 -82t98.5 -135.5t36.5 -183.5
q0 -205 -132 -326.5t-352 -121.5q-141 0 -267.5 80t-188.5 206z" />
    <glyph glyph-name="six.tnum" horiz-adv-x="1187" 
d="M174 438q-15 311 23 533q30 185 154 299t304 108q59 -2 106.5 -13.5t95 -36t86.5 -69.5t67 -110l-119 -51q-37 76 -98 108t-144 37q-77 3 -138 -26.5t-99.5 -81.5t-63 -125t-33 -152t-6.5 -168q33 86 128 128.5t196 39.5q119 -5 216 -68.5t148.5 -166.5t46.5 -222
q-8 -184 -136 -306t-310 -115q-179 8 -293 129.5t-131 328.5zM311 432q-1 -132 83.5 -221t209.5 -94q125 -4 212 79.5t93 211.5q5 130 -74.5 219.5t-205.5 93.5q-127 5 -220.5 -78t-97.5 -211z" />
    <glyph glyph-name="seven.tnum" horiz-adv-x="1187" 
d="M176 0l678 1227h-672v135h903l-55 -105l-694 -1257h-160z" />
    <glyph glyph-name="eight.tnum" horiz-adv-x="1187" 
d="M133 414q0 119 62 219t167 158q-118 94 -118 253q0 139 100 236.5t248 97.5q150 0 252 -97.5t102 -236.5q0 -76 -33.5 -142t-91.5 -111q106 -58 169 -158.5t63 -218.5q0 -182 -133.5 -308t-327.5 -126t-326.5 126t-132.5 308zM268 414q0 -125 93.5 -212t230.5 -87
t231.5 87t94.5 212q0 124 -94.5 214.5t-231.5 90.5h-14q-131 -4 -220.5 -94t-89.5 -211zM379 1044q0 -82 58 -140.5t145 -61.5h18q90 3 150.5 61.5t60.5 140.5q0 84 -63 141.5t-156 57.5q-90 0 -151.5 -57.5t-61.5 -141.5z" />
    <glyph glyph-name="nine.tnum" horiz-adv-x="1187" 
d="M145 954q8 184 136.5 306.5t310.5 115.5q179 -8 293 -129.5t131 -328.5q15 -311 -23 -533q-30 -185 -154 -299.5t-304 -108.5q-80 3 -143.5 22t-125 71t-98.5 137l119 51q65 -133 254 -145q77 -3 138 26.5t99.5 81.5t63 125t33 152t6.5 168q-33 -86 -128 -128.5
t-196 -39.5q-120 5 -216.5 68.5t-148.5 166t-47 221.5zM281 948q-5 -130 74.5 -219.5t205.5 -93.5q127 -5 220.5 78t97.5 211q1 132 -83.5 221t-209.5 94q-125 4 -212 -79.5t-93 -211.5z" />
    <glyph glyph-name="zero.taboldstyle" horiz-adv-x="1187" 
d="M94 512q0 119 40.5 219.5t109 167.5t158.5 104t190 37q101 0 191.5 -37t159 -104t109 -167.5t40.5 -219.5q0 -118 -40.5 -218.5t-109 -168.5t-159.5 -106.5t-191 -38.5q-99 0 -190 38.5t-159 106.5t-108.5 168.5t-40.5 218.5zM229 512q0 -175 106 -286t257 -111
q152 0 258 110.5t106 286.5t-105.5 284.5t-258.5 108.5q-151 0 -257 -108.5t-106 -284.5z" />
    <glyph glyph-name="one.taboldstyle" horiz-adv-x="1187" 
d="M317 725v133l453 191v-1049h-135v846z" />
    <glyph glyph-name="two.taboldstyle" horiz-adv-x="1187" 
d="M211 0v47l504 545q86 83 86 164q0 71 -58.5 117.5t-150.5 46.5q-86 0 -144.5 -41.5t-64.5 -112.5q-129 27 -131 27q12 120 112 192t236 72q148 0 246 -85t98 -216q0 -138 -125 -260l-346 -361h473v-135h-735z" />
    <glyph glyph-name="six.taboldstyle" horiz-adv-x="1187" 
d="M174 438q-15 311 23 533q30 185 154 299t304 108q59 -2 106.5 -13.5t95 -36t86.5 -69.5t67 -110l-119 -51q-37 76 -98 108t-144 37q-77 3 -138 -26.5t-99.5 -81.5t-63 -125t-33 -152t-6.5 -168q33 86 128 128.5t196 39.5q119 -5 216 -68.5t148.5 -166.5t46.5 -222
q-8 -184 -136 -306t-310 -115q-179 8 -293 129.5t-131 328.5zM311 432q-1 -132 83.5 -221t209.5 -94q125 -4 212 79.5t93 211.5q5 130 -74.5 219.5t-205.5 93.5q-127 5 -220.5 -78t-97.5 -211z" />
    <glyph glyph-name="eight.taboldstyle" horiz-adv-x="1187" 
d="M133 414q0 119 62 219t167 158q-118 94 -118 253q0 139 100 236.5t248 97.5q150 0 252 -97.5t102 -236.5q0 -76 -33.5 -142t-91.5 -111q106 -58 169 -158.5t63 -218.5q0 -182 -133.5 -308t-327.5 -126t-326.5 126t-132.5 308zM268 414q0 -125 93.5 -212t230.5 -87
t231.5 87t94.5 212q0 124 -94.5 214.5t-231.5 90.5h-14q-131 -4 -220.5 -94t-89.5 -211zM379 1044q0 -82 58 -140.5t145 -61.5h18q90 3 150.5 61.5t60.5 140.5q0 84 -63 141.5t-156 57.5q-90 0 -151.5 -57.5t-61.5 -141.5z" />
    <glyph glyph-name="three.taboldstyle" horiz-adv-x="1187" 
d="M147 -178l123 55q31 -70 104.5 -117t166.5 -55q86 -5 163 27.5t125.5 94.5t53.5 138q4 115 -87.5 201t-217.5 86h-132v129h132q102 -1 173 63.5t76 157.5q5 96 -55.5 159t-179.5 70q-85 5 -158 -28.5t-108 -93.5l-109 67q55 95 158 147.5t225 45.5q125 -9 212.5 -65
t125 -139.5t27.5 -182.5q-6 -82 -59 -153.5t-134 -106.5q76 -18 136 -78.5t89 -140.5t23 -158q-15 -168 -158 -277.5t-330 -97.5q-131 10 -235 79t-150 173z" />
    <glyph glyph-name="four.taboldstyle" horiz-adv-x="1187" 
d="M53 -119l748 1071h100v-946h205v-125h-205v-291h-135v291h-713zM301 6h465v676z" />
    <glyph glyph-name="five.taboldstyle" horiz-adv-x="1187" 
d="M117 -139l116 84q38 -98 136 -164t204 -66q159 0 250.5 87t91.5 221q0 68 -27.5 125t-72 92t-98 54t-109.5 19q-100 0 -175.5 -22t-199.5 -84l-53 72l119 677h668v-137h-551l-82 -450q168 84 274 84q91 0 171.5 -29t142.5 -82t98.5 -135.5t36.5 -183.5q0 -205 -132 -327
t-352 -122q-140 0 -267 80.5t-189 206.5z" />
    <glyph glyph-name="seven.taboldstyle" horiz-adv-x="1187" 
d="M176 -410l678 1227h-672v135h903l-749 -1362h-160z" />
    <glyph glyph-name="nine.taboldstyle" horiz-adv-x="1187" 
d="M152 545q8 184 136 306.5t310 115.5q179 -8 293 -129.5t131 -329.5q15 -311 -23 -533q-30 -185 -154 -299t-304 -108q-59 2 -108.5 13.5t-99 36t-90.5 70t-69 109.5l119 51q65 -133 254 -145q77 -3 138 26.5t99.5 81.5t63 125t33 152t6.5 168q-33 -86 -128 -128.5
t-196 -39.5q-119 5 -216 68.5t-148.5 166.5t-46.5 222zM287 539q-5 -130 75 -220t205 -94q127 -5 220.5 78t97.5 211q1 132 -83.5 221t-209.5 94q-125 4 -212 -79t-93 -211z" />
    <glyph glyph-name="zero.oldstyle" horiz-adv-x="1226" 
d="M115 512q0 119 40 219.5t108.5 167.5t158.5 104t190 37q101 0 191.5 -37t159 -104t109 -167.5t40.5 -219.5q0 -118 -40.5 -218.5t-109 -168.5t-159.5 -106.5t-191 -38.5q-99 0 -189.5 38.5t-158.5 106.5t-108.5 168.5t-40.5 218.5zM250 512q0 -176 105.5 -286.5
t256.5 -110.5q152 0 258.5 110.5t106.5 286.5t-106 284.5t-259 108.5q-151 0 -256.5 -108.5t-105.5 -284.5z" />
    <glyph glyph-name="one.oldstyle" horiz-adv-x="724" 
d="M86 725v133l453 191v-1049h-136v846z" />
    <glyph glyph-name="two.oldstyle" horiz-adv-x="962" 
d="M98 0v47l504 545q86 83 86 164q0 71 -58.5 117.5t-150.5 46.5q-86 0 -144.5 -41.5t-64.5 -112.5q-129 27 -131 27q12 120 112 192t236 72q148 0 246 -85t98 -216q0 -139 -124 -260l-347 -361h474v-135h-736z" />
    <glyph glyph-name="three.oldstyle" horiz-adv-x="1054" 
d="M82 -178l123 55q31 -70 104 -117t166 -55q86 -5 163 27.5t125.5 94.5t53.5 138q4 115 -87.5 201t-217.5 86h-131v129h131q102 -1 173.5 63.5t76.5 157.5q5 96 -56 159t-180 70q-85 5 -158 -28.5t-108 -93.5l-108 67q55 95 158 147.5t225 45.5q125 -9 212.5 -65
t124.5 -139.5t27 -182.5q-6 -82 -58.5 -153.5t-133.5 -106.5q76 -18 136 -78.5t88.5 -140.5t22.5 -158q-15 -168 -157.5 -277.5t-329.5 -97.5q-131 10 -235 79t-150 173z" />
    <glyph glyph-name="four.oldstyle" horiz-adv-x="1177" 
d="M49 -119l748 1071h100v-946h205v-125h-205v-291h-135v291h-713zM297 6h465v676z" />
    <glyph glyph-name="five.oldstyle" horiz-adv-x="1116" 
d="M82 -139l117 84q38 -98 136 -164t204 -66q159 0 250.5 87t91.5 221q0 68 -27.5 125t-72.5 92t-98.5 54t-109.5 19q-100 0 -175 -22t-199 -84l-54 72l119 677h668v-137h-551l-82 -450q168 84 274 84q91 0 171.5 -29t142.5 -82t98.5 -135.5t36.5 -183.5q0 -205 -131.5 -327
t-351.5 -122q-141 0 -268 80.5t-189 206.5z" />
    <glyph glyph-name="six.oldstyle" horiz-adv-x="1138" 
d="M150 438q-15 316 22 533q30 185 154.5 299t304.5 108q59 -2 106.5 -13.5t94.5 -36t86 -69.5t67 -110l-119 -51q-37 76 -97.5 108t-143.5 37q-77 3 -138 -26.5t-99.5 -81.5t-63 -125t-33 -152t-6.5 -168q33 86 127.5 128.5t195.5 39.5q120 -5 216.5 -68.5t148.5 -166.5
t47 -222q-8 -184 -136.5 -306t-310.5 -115q-179 8 -292.5 129t-130.5 329zM287 432q-1 -132 83.5 -221t209.5 -94q125 -4 212 79.5t93 211.5q5 129 -75 219t-206 94q-127 5 -220 -78t-97 -211z" />
    <glyph glyph-name="seven.oldstyle" horiz-adv-x="1021" 
d="M94 -410l678 1227h-672v135h904l-750 -1362h-160z" />
    <glyph glyph-name="eight.oldstyle" horiz-adv-x="1157" 
d="M119 414q0 119 62 219t167 158q-119 95 -119 253q0 139 100.5 236.5t248.5 97.5q150 0 252 -97.5t102 -236.5q0 -76 -33.5 -142t-91.5 -111q106 -58 168.5 -158.5t62.5 -218.5q0 -182 -133 -308t-327 -126t-326.5 126t-132.5 308zM254 414q0 -125 93.5 -212t230.5 -87
t231 87t94 212t-94.5 215t-230.5 90h-15q-131 -4 -220 -94t-89 -211zM365 1044q0 -82 57.5 -140.5t144.5 -61.5h19q90 3 150.5 61.5t60.5 140.5q0 84 -63 141.5t-156 57.5q-90 0 -151.5 -57.5t-61.5 -141.5z" />
    <glyph glyph-name="nine.oldstyle" horiz-adv-x="1095" 
d="M106 545q8 184 136.5 306.5t310.5 115.5q179 -8 293 -129.5t131 -329.5q15 -311 -23 -533q-30 -185 -154 -299t-304 -108q-59 2 -108.5 13.5t-99 36t-90.5 70t-69 109.5l119 51q65 -133 254 -145q77 -3 138 26.5t99.5 81.5t63 125t33 152t6.5 168q-33 -86 -128 -128.5
t-196 -39.5q-120 5 -216.5 68.5t-148.5 166.5t-47 222zM242 539q-5 -130 75 -220t205 -94q127 -5 220.5 78t97.5 211q1 132 -83.5 221t-209.5 94q-125 4 -212 -79t-93 -211z" />
    <glyph glyph-name="Lslash.sc" horiz-adv-x="888" 
d="M86 510v104l117 74v512h123v-434l186 117v-105l-186 -119v-536h505v-123h-628v582z" />
    <glyph glyph-name="Zcaron.sc" horiz-adv-x="1019" 
d="M94 0v119l670 958h-645v123h796v-121l-671 -956h671v-123h-821zM258 1561h123l123 -152l125 152h123l-170 -240h-154z" />
    <glyph glyph-name="exclam.sc" horiz-adv-x="520" 
d="M162 78q0 39 29 65.5t69 26.5q42 0 71 -26.5t29 -65.5q0 -41 -29 -67.5t-71 -26.5q-41 0 -69.5 26.5t-28.5 67.5zM199 1200h123l-13 -878h-98z" />
    <glyph glyph-name="ampersand.sc" horiz-adv-x="1198" 
d="M123 367q0 102 53.5 188.5t145.5 138.5q-48 39 -75.5 98t-27.5 126q0 122 88.5 207t218.5 85q89 0 163 -41.5t114 -111.5l-103 -64q-27 44 -73 70.5t-101 26.5q-81 0 -133.5 -49t-52.5 -123q0 -75 50.5 -127t127.5 -52h266v154h119v-156h158v-106h-158v-264q0 -61 7 -105
t26.5 -83.5t59 -60t98.5 -20.5v-114q-100 0 -171 42.5t-96 112.5q-41 -70 -128 -112.5t-185 -42.5q-171 0 -281 110t-110 273zM244 367q0 -112 75 -187.5t195 -75.5q115 0 190 71.5t80 178.5v277h-270q-113 0 -191.5 -79t-78.5 -185z" />
    <glyph glyph-name="question.sc" horiz-adv-x="882" 
d="M98 870q0 153 99 247.5t241 94.5q144 0 249.5 -94t105.5 -244q0 -119 -71.5 -205.5t-178.5 -119.5q-75 -22 -110.5 -53t-35.5 -101v-73h-121v73q0 60 16.5 105.5t49 76.5t71.5 51.5t93 37.5q69 22 116.5 77.5t47.5 130.5q0 96 -69 156t-163 60q-92 0 -154.5 -60.5
t-62.5 -159.5h-123zM238 76q0 41 28.5 67.5t69.5 26.5q42 0 71 -26.5t29 -67.5q0 -39 -29 -65.5t-71 -26.5q-40 0 -69 26.5t-29 65.5z" />
    <glyph glyph-name="A.sc" horiz-adv-x="1161" 
d="M55 0l461 1200h131l459 -1200h-131l-121 313h-547l-121 -313h-131zM350 428h461l-229 602z" />
    <glyph glyph-name="B.sc" horiz-adv-x="1124" 
d="M193 0v1200h440q146 0 229.5 -81t83.5 -220q0 -206 -147 -260q91 -18 151 -108.5t60 -192.5q0 -143 -91 -240.5t-247 -97.5h-479zM317 121h353q97 0 157 64t60 153q0 87 -64 163.5t-159 76.5h-347v-457zM317 692h326q87 0 133.5 59.5t46.5 147.5q0 86 -56 133t-149 47
h-301v-387z" />
    <glyph glyph-name="C.sc" horiz-adv-x="1200" 
d="M113 598q0 169 74.5 309t209 222.5t301.5 82.5q127 0 238 -48t192 -134l-86 -84q-146 146 -344 146q-133 0 -239.5 -66.5t-164.5 -179.5t-58 -248q0 -208 130.5 -351t331.5 -143t346 148l86 -86q-81 -86 -193 -135t-239 -49q-166 0 -301 83t-209.5 223.5t-74.5 309.5z
" />
    <glyph glyph-name="D.sc" horiz-adv-x="1294" 
d="M193 0v1200h450q166 0 288 -80t183.5 -215t61.5 -307q0 -171 -61.5 -305.5t-183.5 -213.5t-288 -79h-450zM315 123h328q197 0 303.5 131.5t106.5 343.5q0 138 -45 245t-139 170.5t-226 63.5h-328v-954z" />
    <glyph glyph-name="E.sc" horiz-adv-x="1015" 
d="M193 0v1200h688v-121h-566v-430h496v-121h-496v-407h584v-121h-706z" />
    <glyph glyph-name="F.sc" horiz-adv-x="946" 
d="M193 0v1200h677v-121h-555v-430h441v-121h-441v-528h-122z" />
    <glyph glyph-name="G.sc" horiz-adv-x="1355" 
d="M113 598q0 168 79 309t217.5 223t305.5 82q220 0 387 -141l-88 -86q-130 107 -299 107q-133 0 -243.5 -66.5t-173 -180t-62.5 -247.5q0 -135 62.5 -248.5t172.5 -179.5t244 -66q188 0 299.5 99.5t122.5 273.5h-349v113h486q0 -301 -148 -454.5t-411 -153.5
q-167 0 -305.5 82.5t-217.5 224t-79 309.5z" />
    <glyph glyph-name="H.sc" horiz-adv-x="1275" 
d="M193 0v1200h122v-547h646v547h122v-1200h-122v539h-646v-539h-122z" />
    <glyph glyph-name="I.sc" horiz-adv-x="507" 
d="M193 0v1200h122v-1200h-122z" />
    <glyph glyph-name="J.sc" horiz-adv-x="507" 
d="M-156 -432l13 121q11 -4 48.5 -9.5t51.5 -5.5q121 0 178.5 73.5t57.5 189.5v1263h122v-1263q0 -81 -19.5 -148.5t-60.5 -121t-112 -83.5t-166 -30q-59 0 -113 14z" />
    <glyph glyph-name="K.sc" horiz-adv-x="1017" 
d="M193 0v1200h122v-573l443 573h145l-465 -600l568 -600h-166l-525 555v-555h-122z" />
    <glyph glyph-name="L.sc" horiz-adv-x="878" 
d="M193 0v1200h122v-1079h506v-121h-628z" />
    <glyph glyph-name="M.sc" horiz-adv-x="1679" 
d="M123 0l145 1200h121l451 -926l448 926h121l147 -1200h-120l-121 979l-414 -848h-121l-415 848l-121 -979h-121z" />
    <glyph glyph-name="N.sc" horiz-adv-x="1232" 
d="M193 0v1200h129l596 -981v981h122v-1200h-125l-600 987v-987h-122z" />
    <glyph glyph-name="O.sc" horiz-adv-x="1433" 
d="M113 598q0 168 79 309t217.5 223t305.5 82q168 0 307.5 -82t219 -223t79.5 -309t-79.5 -309.5t-219 -224t-307.5 -82.5q-167 0 -305.5 82.5t-217.5 224t-79 309.5zM236 598q0 -135 62.5 -248.5t172.5 -179.5t244 -66q204 0 343.5 143.5t139.5 350.5q0 205 -139.5 349.5
t-343.5 144.5q-133 0 -243.5 -66.5t-173 -180t-62.5 -247.5z" />
    <glyph glyph-name="P.sc" horiz-adv-x="1089" 
d="M193 0v1200h473q89 0 156.5 -31.5t106.5 -84.5t58 -117t19 -136q0 -73 -19 -136.5t-58 -116t-106.5 -83t-156.5 -30.5h-349v-465h-124zM317 586h340q115 0 170.5 70.5t55.5 174.5q0 103 -54 175.5t-163 72.5h-349v-493z" />
    <glyph glyph-name="Q.sc" horiz-adv-x="1433" 
d="M113 598q0 168 79 309t217.5 223t305.5 82q168 0 307.5 -82t219 -223t79.5 -309q0 -166 -80 -306.5t-215 -223.5l129 -201l-100 -66l-137 215q-93 -34 -203 -34q-167 0 -305.5 82.5t-217.5 224t-79 309.5zM236 598q0 -134 62 -246.5t171 -178.5t242 -67q73 0 137 15
l-133 217l100 65l146 -233q109 66 173 179t64 249q0 205 -139.5 349.5t-343.5 144.5q-133 0 -243.5 -66.5t-173 -180t-62.5 -247.5z" />
    <glyph glyph-name="R.sc" horiz-adv-x="1101" 
d="M193 0v1200h448q71 0 129 -21t96 -56t63.5 -83t36.5 -100t11 -109q0 -71 -17.5 -133t-54 -114t-99.5 -83.5t-147 -35.5l330 -465h-151l-328 465h-193v-465h-124zM317 586h314q60 0 104.5 20.5t69.5 55.5t37 77.5t12 91.5q0 48 -12 91t-36 79t-67 57t-100 21h-322v-493z
" />
    <glyph glyph-name="S.sc" horiz-adv-x="1032" 
d="M119 344h123q0 -94 76.5 -171t193.5 -77q122 0 196.5 60.5t88.5 140.5q8 52 -6.5 95t-48 72.5t-75.5 49t-94 31.5l-159 37q-285 65 -285 303q0 95 54.5 171t140.5 116t184 40q163 0 270 -94.5t107 -249.5h-123q0 101 -72.5 162.5t-181.5 61.5q-102 0 -179 -58t-77 -149
q0 -145 188 -187l164 -36q77 -18 137.5 -48.5t106 -77t64.5 -113t6 -147.5q-23 -119 -128.5 -206.5t-277.5 -87.5q-86 0 -161 32t-125 83.5t-78.5 116t-28.5 130.5z" />
    <glyph glyph-name="T.sc" horiz-adv-x="999" 
d="M57 1077v123h885v-123h-381v-1077h-123v1077h-381z" />
    <glyph glyph-name="U.sc" horiz-adv-x="1214" 
d="M180 408v792h123v-792q0 -135 88.5 -219.5t216.5 -84.5q126 0 214.5 84.5t88.5 219.5v792h123v-792q0 -189 -124 -307.5t-302 -118.5q-179 0 -303.5 118.5t-124.5 307.5z" />
    <glyph glyph-name="V.sc" horiz-adv-x="1001" 
d="M78 1200h127l297 -997l295 997h127l-359 -1200h-127z" />
    <glyph glyph-name="W.sc" horiz-adv-x="1626" 
d="M61 1200h132l329 -1005l244 845h94l244 -845l330 1005h131l-406 -1200h-115l-231 795l-231 -795h-115z" />
    <glyph glyph-name="X.sc" horiz-adv-x="1077" 
d="M45 0l420 645l-373 555h150l297 -450l299 450h147l-373 -555l422 -645h-149l-346 543l-346 -543h-148z" />
    <glyph glyph-name="Y.sc" horiz-adv-x="1118" 
d="M45 1200h148l366 -512l373 512h147l-456 -643v-557h-127v557z" />
    <glyph glyph-name="Z.sc" horiz-adv-x="1019" 
d="M94 0v119l670 958h-645v123h796v-121l-671 -956h671v-123h-821z" />
    <glyph glyph-name="Scaron.sc" horiz-adv-x="1032" 
d="M119 344h123q0 -94 76.5 -171t193.5 -77q122 0 196.5 60.5t88.5 140.5q8 52 -6.5 95t-48 72.5t-75.5 49t-94 31.5l-159 37q-285 65 -285 303q0 95 54.5 171t140.5 116t184 40q163 0 270 -94.5t107 -249.5h-123q0 101 -72.5 162.5t-181.5 61.5q-102 0 -179 -58t-77 -149
q0 -145 188 -187l164 -36q77 -18 137.5 -48.5t106 -77t64.5 -113t6 -147.5q-23 -119 -128.5 -206.5t-277.5 -87.5q-86 0 -161 32t-125 83.5t-78.5 116t-28.5 130.5zM272 1591h123l123 -149l125 149h121l-168 -239h-154z" />
    <glyph glyph-name="OE.sc" horiz-adv-x="2019" 
d="M113 598q0 168 79 309t217.5 223t305.5 82q147 0 272 -64.5t209 -176.5v229h688v-123h-565v-428h493v-123h-493v-403h584v-123h-707v225q-84 -113 -209 -178t-272 -65q-167 0 -305.5 82.5t-217.5 224t-79 309.5zM236 598q0 -134 62.5 -247t173 -179t243.5 -66
q198 0 335.5 135.5t145.5 333.5v43q-5 129 -69 237t-173 171.5t-239 63.5q-133 0 -243.5 -66t-173 -179t-62.5 -247z" />
    <glyph glyph-name="Ydieresis.sc" horiz-adv-x="1118" 
d="M45 1200h148l366 -512l373 512h147l-456 -643v-557h-127v557zM317 1466q0 38 27 63t66 25t65.5 -25t26.5 -63q0 -37 -27 -61.5t-65 -24.5q-39 0 -66 25t-27 61zM623 1466q0 38 27 63t65 25q39 0 65.5 -25t26.5 -63q0 -37 -27 -61.5t-65 -24.5q-37 0 -64.5 25t-27.5 61z
" />
    <glyph glyph-name="exclamdown.sc" horiz-adv-x="518" 
d="M160 1122q0 41 29 68t69 27q42 0 71 -27t29 -68q0 -39 -29 -65.5t-71 -26.5q-40 0 -69 26.5t-29 65.5zM197 0l12 879h98l12 -879h-122z" />
    <glyph glyph-name="questiondown.sc" horiz-adv-x="870" 
d="M109 -63q0 120 71 206t178 119q70 21 108 60t38 110v60h121v-60q0 -214 -230 -285q-70 -21 -118 -78t-48 -132q0 -95 70.5 -155.5t163.5 -60.5q92 0 154.5 60.5t62.5 159.5h123q0 -152 -98.5 -246t-241.5 -94q-145 0 -249.5 93.5t-104.5 242.5zM465 737q0 39 29 65.5
t69 26.5q42 0 71.5 -26.5t29.5 -65.5q0 -41 -29.5 -67.5t-71.5 -26.5q-41 0 -69.5 26.5t-28.5 67.5z" />
    <glyph glyph-name="Agrave.sc" horiz-adv-x="1161" 
d="M55 0l461 1200h131l459 -1200h-131l-121 313h-547l-121 -313h-131zM350 428h461l-229 602zM365 1561h149l131 -240h-125z" />
    <glyph glyph-name="Aacute.sc" horiz-adv-x="1161" 
d="M55 0l461 1200h131l459 -1200h-131l-121 313h-547l-121 -313h-131zM350 428h461l-229 602zM512 1321l131 240h150l-156 -240h-125z" />
    <glyph glyph-name="Acircumflex.sc" horiz-adv-x="1161" 
d="M55 0l461 1200h131l459 -1200h-131l-121 313h-547l-121 -313h-131zM334 1321l170 240h153l170 -240h-122l-125 149l-123 -149h-123zM350 428h461l-229 602z" />
    <glyph glyph-name="Atilde.sc" horiz-adv-x="1161" 
d="M55 0l461 1200h131l459 -1200h-131l-121 313h-547l-121 -313h-131zM350 428h461l-229 602zM352 1362q6 100 49 145t101 45q26 0 50 -11.5t38 -25t33 -25t36 -11.5q20 0 38.5 17.5t19.5 55.5h92q-7 -99 -50.5 -142.5t-99.5 -43.5q-34 0 -63 18.5t-51.5 37t-42.5 18.5
q-21 0 -39 -19.5t-19 -58.5h-92z" />
    <glyph glyph-name="Adieresis.sc" horiz-adv-x="1161" 
d="M55 0l461 1200h131l459 -1200h-131l-121 313h-547l-121 -313h-131zM334 1466q0 38 26.5 63t65.5 25t65.5 -25t26.5 -63q0 -37 -27 -61.5t-65 -24.5t-65 24.5t-27 61.5zM350 428h461l-229 602zM639 1466q0 38 27 63t65 25q39 0 65.5 -25t26.5 -63q0 -37 -27 -61.5
t-65 -24.5q-37 0 -64.5 25t-27.5 61z" />
    <glyph glyph-name="Aring.sc" horiz-adv-x="1161" 
d="M55 0l461 1200h131l459 -1200h-131l-121 313h-547l-121 -313h-131zM350 428h461l-229 602zM408 1487q0 72 49.5 122t120.5 50q73 0 123.5 -50t50.5 -122t-50 -121t-124 -49q-71 0 -120.5 49t-49.5 121zM500 1487q0 -34 22.5 -57t57.5 -23q34 0 56.5 23t22.5 57t-23 58
t-56 24q-35 0 -57.5 -24t-22.5 -58z" />
    <glyph glyph-name="AE.sc" horiz-adv-x="1685" 
d="M41 0l758 1200h751v-123h-565v-428h494v-123h-494v-403h584v-123h-707v313h-477l-199 -313h-145zM457 428h405v637z" />
    <glyph glyph-name="Ccedilla.sc" horiz-adv-x="1204" 
d="M115 598q0 169 74.5 309t209 222.5t301.5 82.5q127 0 238 -48t192 -134l-86 -84q-146 146 -344 146q-133 0 -239.5 -66.5t-164.5 -179.5t-58 -248q0 -208 130.5 -351t331.5 -143q202 0 347 148l86 -86q-78 -83 -184 -131t-226 -51l43 -101q17 -44 14 -88q-6 -66 -60 -111
t-128 -38q-61 6 -107.5 58t-46.5 124l97 -8q-1 -42 34 -67.5t72 -10.5q30 12 42 43.5t-1 60.5l-59 142q-223 28 -365.5 200.5t-142.5 409.5z" />
    <glyph glyph-name="Egrave.sc" horiz-adv-x="1015" 
d="M193 0v1200h688v-121h-566v-430h496v-121h-496v-407h584v-121h-706zM340 1561h152l129 -240h-125z" />
    <glyph glyph-name="Eacute.sc" horiz-adv-x="1015" 
d="M193 0v1200h688v-121h-566v-430h496v-121h-496v-407h584v-121h-706zM426 1321l131 240h150l-156 -240h-125z" />
    <glyph glyph-name="Ecircumflex.sc" horiz-adv-x="1015" 
d="M193 0v1200h688v-121h-566v-430h496v-121h-496v-407h584v-121h-706zM266 1321l170 240h152l170 -240h-123l-123 149l-125 -149h-121z" />
    <glyph glyph-name="Edieresis.sc" horiz-adv-x="1015" 
d="M193 0v1200h688v-121h-566v-430h496v-121h-496v-407h584v-121h-706zM266 1466q0 38 26.5 63t65.5 25q38 0 65.5 -25.5t27.5 -62.5q0 -36 -28 -61t-65 -25q-38 0 -65 24.5t-27 61.5zM571 1466q0 38 27 63t66 25t65.5 -25t26.5 -63q0 -37 -27 -61.5t-65 -24.5q-39 0 -66 25
t-27 61z" />
    <glyph glyph-name="Igrave.sc" horiz-adv-x="507" 
d="M35 1561h151l129 -240h-125zM193 0v1200h122v-1200h-122z" />
    <glyph glyph-name="Iacute.sc" horiz-adv-x="507" 
d="M190 1321l129 240h152l-156 -240h-125zM193 0v1200h122v-1200h-122z" />
    <glyph glyph-name="Icircumflex.sc" horiz-adv-x="507" 
d="M8 1321l170 240h154l170 -240h-123l-125 149l-123 -149h-123zM193 0v1200h122v-1200h-122z" />
    <glyph glyph-name="Idieresis.sc" horiz-adv-x="507" 
d="M10 1466q0 38 26.5 63t65.5 25q38 0 65.5 -25.5t27.5 -62.5q0 -36 -28 -61t-65 -25q-38 0 -65 24.5t-27 61.5zM193 0v1200h122v-1200h-122zM315 1466q0 37 27.5 62.5t65.5 25.5q39 0 65.5 -25t26.5 -63q0 -37 -27 -61.5t-65 -24.5q-37 0 -65 25t-28 61z" />
    <glyph glyph-name="Eth.sc" horiz-adv-x="1302" 
d="M31 545v108h170v547h450q166 0 288 -80t183.5 -215t61.5 -307q0 -171 -61.5 -305.5t-183.5 -213.5t-288 -79h-450v545h-170zM324 123h327q197 0 303.5 131.5t106.5 343.5q0 138 -45 245t-139 170.5t-226 63.5h-327v-424h297v-108h-297v-422z" />
    <glyph glyph-name="Ntilde.sc" horiz-adv-x="1232" 
d="M193 0v1200h129l596 -981v981h122v-1200h-125l-600 987v-987h-122zM389 1362q5 99 48.5 144.5t99.5 45.5q27 0 51 -11.5t38.5 -25t32.5 -25t35 -11.5q22 0 40 17.5t18 55.5h92q-5 -99 -48.5 -142.5t-101.5 -43.5q-33 0 -62 18.5t-52 37t-43 18.5q-19 0 -38 -20t-20 -58
h-90z" />
    <glyph glyph-name="Ograve.sc" horiz-adv-x="1433" 
d="M113 598q0 168 79 309t217.5 223t305.5 82q168 0 307.5 -82t219 -223t79.5 -309t-79.5 -309.5t-219 -224t-307.5 -82.5q-167 0 -305.5 82.5t-217.5 224t-79 309.5zM236 598q0 -135 62.5 -248.5t172.5 -179.5t244 -66q204 0 343.5 143.5t139.5 350.5q0 205 -139.5 349.5
t-343.5 144.5q-133 0 -243.5 -66.5t-173 -180t-62.5 -247.5zM510 1561h152l129 -240h-123z" />
    <glyph glyph-name="Oacute.sc" horiz-adv-x="1433" 
d="M113 598q0 168 79 309t217.5 223t305.5 82q168 0 307.5 -82t219 -223t79.5 -309t-79.5 -309.5t-219 -224t-307.5 -82.5q-167 0 -305.5 82.5t-217.5 224t-79 309.5zM236 598q0 -135 62.5 -248.5t172.5 -179.5t244 -66q204 0 343.5 143.5t139.5 350.5q0 205 -139.5 349.5
t-343.5 144.5q-133 0 -243.5 -66.5t-173 -180t-62.5 -247.5zM631 1321l131 240h149l-155 -240h-125z" />
    <glyph glyph-name="Ocircumflex.sc" horiz-adv-x="1433" 
d="M113 598q0 168 79 309t217.5 223t305.5 82q168 0 307.5 -82t219 -223t79.5 -309t-79.5 -309.5t-219 -224t-307.5 -82.5q-167 0 -305.5 82.5t-217.5 224t-79 309.5zM236 598q0 -135 62.5 -248.5t172.5 -179.5t244 -66q204 0 343.5 143.5t139.5 350.5q0 205 -139.5 349.5
t-343.5 144.5q-133 0 -243.5 -66.5t-173 -180t-62.5 -247.5zM469 1321l170 240h154l170 -240h-123l-125 149l-123 -149h-123z" />
    <glyph glyph-name="Otilde.sc" horiz-adv-x="1433" 
d="M113 598q0 168 79 309t217.5 223t305.5 82q168 0 307.5 -82t219 -223t79.5 -309t-79.5 -309.5t-219 -224t-307.5 -82.5q-167 0 -305.5 82.5t-217.5 224t-79 309.5zM236 598q0 -135 62.5 -248.5t172.5 -179.5t244 -66q204 0 343.5 143.5t139.5 350.5q0 205 -139.5 349.5
t-343.5 144.5q-133 0 -243.5 -66.5t-173 -180t-62.5 -247.5zM489 1362q5 99 48.5 144.5t99.5 45.5q34 0 62.5 -18t52 -36.5t43.5 -18.5q22 0 39.5 17.5t17.5 55.5h92q-5 -99 -48 -142.5t-101 -43.5q-33 0 -62 18.5t-52.5 37t-43.5 18.5q-19 0 -37.5 -20t-19.5 -58h-91z" />
    <glyph glyph-name="Odieresis.sc" horiz-adv-x="1433" 
d="M113 598q0 168 79 309t217.5 223t305.5 82q168 0 307.5 -82t219 -223t79.5 -309t-79.5 -309.5t-219 -224t-307.5 -82.5q-167 0 -305.5 82.5t-217.5 224t-79 309.5zM236 598q0 -135 62.5 -248.5t172.5 -179.5t244 -66q204 0 343.5 143.5t139.5 350.5q0 205 -139.5 349.5
t-343.5 144.5q-133 0 -243.5 -66.5t-173 -180t-62.5 -247.5zM473 1466q0 38 26.5 63t65.5 25q38 0 65 -25t27 -63q0 -36 -27.5 -61t-64.5 -25q-38 0 -65 24.5t-27 61.5zM778 1466q0 38 26.5 63t65.5 25t66 -25t27 -63q0 -36 -27 -61t-66 -25q-38 0 -65 24.5t-27 61.5z" />
    <glyph glyph-name="Oslash.sc" horiz-adv-x="1431" 
d="M111 598q0 168 79 309t217.5 223t305.5 82q231 0 397 -147l147 154l68 -68l-149 -156q143 -168 143 -397q0 -168 -79.5 -309.5t-219 -224t-307.5 -82.5q-220 0 -387 141l-140 -143l-67 67l139 143q-147 174 -147 408zM233 598q0 -183 111 -319l680 698q-138 115 -311 115
q-133 0 -244 -66.5t-173.5 -180t-62.5 -247.5zM412 211q130 -107 301 -107q204 0 343.5 143.5t139.5 350.5q0 177 -106 311z" />
    <glyph glyph-name="Ugrave.sc" horiz-adv-x="1214" 
d="M180 408v792h123v-792q0 -135 88.5 -219.5t216.5 -84.5q126 0 214.5 84.5t88.5 219.5v792h123v-792q0 -189 -124 -307.5t-302 -118.5q-179 0 -303.5 118.5t-124.5 307.5zM426 1561h152l129 -240h-123z" />
    <glyph glyph-name="Uacute.sc" horiz-adv-x="1214" 
d="M180 408v792h123v-792q0 -135 88.5 -219.5t216.5 -84.5q126 0 214.5 84.5t88.5 219.5v792h123v-792q0 -189 -124 -307.5t-302 -118.5q-179 0 -303.5 118.5t-124.5 307.5zM524 1321l129 240h152l-158 -240h-123z" />
    <glyph glyph-name="Ucircumflex.sc" horiz-adv-x="1214" 
d="M180 408v792h123v-792q0 -135 88.5 -219.5t216.5 -84.5q126 0 214.5 84.5t88.5 219.5v792h123v-792q0 -189 -124 -307.5t-302 -118.5q-179 0 -303.5 118.5t-124.5 307.5zM365 1321l170 240h153l170 -240h-123l-125 149l-123 -149h-122z" />
    <glyph glyph-name="Udieresis.sc" horiz-adv-x="1214" 
d="M180 408v792h123v-792q0 -135 88.5 -219.5t216.5 -84.5q126 0 214.5 84.5t88.5 219.5v792h123v-792q0 -189 -124 -307.5t-302 -118.5q-179 0 -303.5 118.5t-124.5 307.5zM362 1466q0 38 27 63t64 25q39 0 65.5 -25t26.5 -63q0 -37 -27 -61.5t-65 -24.5q-37 0 -64 25
t-27 61zM668 1466q0 38 26.5 63t65.5 25q38 0 65 -25t27 -63q0 -36 -27.5 -61t-64.5 -25q-38 0 -65 24.5t-27 61.5z" />
    <glyph glyph-name="Yacute.sc" horiz-adv-x="1118" 
d="M45 1200h148l366 -512l373 512h147l-456 -643v-557h-127v557zM487 1321l131 240h150l-156 -240h-125z" />
    <glyph glyph-name="Thorn.sc" horiz-adv-x="1036" 
d="M193 0v1200h124v-221h275q153 0 255.5 -100.5t102.5 -262.5q0 -164 -102 -265t-256 -101h-275v-250h-124zM317 371h275q100 0 167.5 68.5t67.5 176.5t-68 174t-169 66h-273v-485z" />
    <glyph glyph-name="Amacron.sc" horiz-adv-x="1161" 
d="M55 0l461 1200h131l459 -1200h-131l-121 313h-547l-121 -313h-131zM350 428h461l-229 602zM371 1434v114h420v-114h-420z" />
    <glyph glyph-name="Abreve.sc" horiz-adv-x="1161" 
d="M55 0l461 1200h131l459 -1200h-131l-121 313h-547l-121 -313h-131zM350 428h461l-229 602zM362 1583h97q6 -51 38 -84t83 -33q56 0 86.5 34.5t33.5 82.5h97q0 -98 -59.5 -157.5t-157.5 -59.5q-108 0 -163 63.5t-55 153.5z" />
    <glyph glyph-name="Cacute.sc" horiz-adv-x="1200" 
d="M113 598q0 169 74.5 309t209 222.5t301.5 82.5q127 0 238 -48t192 -134l-86 -84q-146 146 -344 146q-133 0 -239.5 -66.5t-164.5 -179.5t-58 -248q0 -208 130.5 -351t331.5 -143t346 148l86 -86q-81 -86 -193 -135t-239 -49q-166 0 -301 83t-209.5 223.5t-74.5 309.5z
M578 1352l129 239h151l-158 -239h-122z" />
    <glyph glyph-name="Ccircumflex.sc" horiz-adv-x="1200" 
d="M113 598q0 169 74.5 309t209 222.5t301.5 82.5q127 0 238 -48t192 -134l-86 -84q-146 146 -344 146q-133 0 -239.5 -66.5t-164.5 -179.5t-58 -248q0 -208 130.5 -351t331.5 -143t346 148l86 -86q-81 -86 -193 -135t-239 -49q-166 0 -301 83t-209.5 223.5t-74.5 309.5z
M440 1352l168 239h154l170 -239h-123l-125 151l-123 -151h-121z" />
    <glyph glyph-name="Cdotaccent.sc" horiz-adv-x="1200" 
d="M113 598q0 169 74.5 309t209 222.5t301.5 82.5q127 0 238 -48t192 -134l-86 -84q-146 146 -344 146q-133 0 -239.5 -66.5t-164.5 -179.5t-58 -248q0 -208 130.5 -351t331.5 -143t346 148l86 -86q-81 -86 -193 -135t-239 -49q-166 0 -301 83t-209.5 223.5t-74.5 309.5z
M571 1501q0 37 27.5 62.5t65.5 25.5q39 0 65.5 -25t26.5 -63q0 -37 -27 -61.5t-65 -24.5q-37 0 -65 25t-28 61z" />
    <glyph glyph-name="Ccaron.sc" horiz-adv-x="1200" 
d="M113 598q0 169 74.5 309t209 222.5t301.5 82.5q127 0 238 -48t192 -134l-86 -84q-146 146 -344 146q-133 0 -239.5 -66.5t-164.5 -179.5t-58 -248q0 -208 130.5 -351t331.5 -143t346 148l86 -86q-81 -86 -193 -135t-239 -49q-166 0 -301 83t-209.5 223.5t-74.5 309.5z
M424 1591h123l125 -149l123 149h123l-170 -239h-154z" />
    <glyph glyph-name="Dcaron.sc" horiz-adv-x="1294" 
d="M193 0v1200h450q166 0 288 -80t183.5 -215t61.5 -307q0 -171 -61.5 -305.5t-183.5 -213.5t-288 -79h-450zM315 123h328q197 0 303.5 131.5t106.5 343.5q0 138 -45 245t-139 170.5t-226 63.5h-328v-954zM373 1591h123l125 -149l122 149h123l-170 -239h-153z" />
    <glyph glyph-name="Aogonek.sc" horiz-adv-x="1161" 
d="M55 0l461 1200h131l459 -1200h-51l-45 -154q-10 -32 1 -62.5t40 -41.5q37 -15 72 10.5t34 67.5l96 8q0 -73 -45 -125.5t-106 -58.5q-101 -10 -155 66.5t-23 160.5q19 56 51 129l-121 313h-547l-121 -313h-131zM350 428h461l-229 602z" />
    <glyph glyph-name="Emacron.sc" horiz-adv-x="1015" 
d="M193 0v1200h688v-121h-566v-430h496v-121h-496v-407h584v-121h-706zM307 1434v114h418v-114h-418z" />
    <glyph glyph-name="Ebreve.sc" horiz-adv-x="1015" 
d="M193 0v1200h688v-121h-566v-430h496v-121h-496v-407h584v-121h-706zM293 1583h96q6 -51 38 -84t83 -33q56 0 87 34.5t34 82.5h98q0 -98 -60.5 -157.5t-158.5 -59.5q-108 0 -162.5 63.5t-54.5 153.5z" />
    <glyph glyph-name="Edotaccent.sc" horiz-adv-x="1015" 
d="M193 0v1200h688v-121h-566v-430h496v-121h-496v-407h584v-121h-706zM453 1501q0 38 27.5 63t66.5 25q38 0 65 -25t27 -63q0 -36 -27.5 -61t-64.5 -25q-39 0 -66.5 25t-27.5 61z" />
    <glyph glyph-name="Ecaron.sc" horiz-adv-x="1015" 
d="M193 0v1200h688v-121h-566v-430h496v-121h-496v-407h584v-121h-706zM289 1591h121l125 -149l122 149h123l-170 -239h-153z" />
    <glyph glyph-name="Gcircumflex.sc" horiz-adv-x="1355" 
d="M113 598q0 168 79 309t217.5 223t305.5 82q220 0 387 -141l-88 -86q-130 107 -299 107q-133 0 -243.5 -66.5t-173 -180t-62.5 -247.5q0 -135 62.5 -248.5t172.5 -179.5t244 -66q188 0 299.5 99.5t122.5 273.5h-349v113h486q0 -301 -148 -454.5t-411 -153.5
q-167 0 -305.5 82.5t-217.5 224t-79 309.5zM438 1352l170 239h154l170 -239h-123l-125 151l-123 -151h-123z" />
    <glyph glyph-name="Gbreve.sc" horiz-adv-x="1355" 
d="M113 598q0 168 79 309t217.5 223t305.5 82q220 0 387 -141l-88 -86q-130 107 -299 107q-133 0 -243.5 -66.5t-173 -180t-62.5 -247.5q0 -135 62.5 -248.5t172.5 -179.5t244 -66q188 0 299.5 99.5t122.5 273.5h-349v113h486q0 -301 -148 -454.5t-411 -153.5
q-167 0 -305.5 82.5t-217.5 224t-79 309.5zM469 1583h98q6 -51 38 -84t83 -33q56 0 86 34.5t33 82.5h98q0 -98 -59.5 -157.5t-157.5 -59.5q-109 0 -164 63t-55 154z" />
    <glyph glyph-name="Eogonek.sc" horiz-adv-x="1015" 
d="M193 0v1200h688v-121h-566v-430h496v-121h-496v-407h584v-121l-63 -152q-12 -30 0.5 -60t42.5 -42q37 -15 71.5 9.5t34.5 68.5l94 6q0 -71 -45.5 -123.5t-105.5 -58.5q-72 -7 -130.5 40.5t-64.5 112.5q-3 46 19 86l63 113h-622z" />
    <glyph glyph-name="Dcroat.sc" horiz-adv-x="1302" 
d="M31 545v108h170v547h450q166 0 288 -80t183.5 -215t61.5 -307q0 -171 -61.5 -305.5t-183.5 -213.5t-288 -79h-450v545h-170zM324 123h327q197 0 303.5 131.5t106.5 343.5q0 138 -45 245t-139 170.5t-226 63.5h-327v-424h297v-108h-297v-422z" />
    <glyph glyph-name="Gdotaccent.sc" horiz-adv-x="1355" 
d="M113 598q0 168 79 309t217.5 223t305.5 82q220 0 387 -141l-88 -86q-130 107 -299 107q-133 0 -243.5 -66.5t-173 -180t-62.5 -247.5q0 -135 62.5 -248.5t172.5 -179.5t244 -66q188 0 299.5 99.5t122.5 273.5h-349v113h486q0 -301 -148 -454.5t-411 -153.5
q-167 0 -305.5 82.5t-217.5 224t-79 309.5zM598 1501q0 38 27.5 63t66.5 25q38 0 65 -25t27 -63q0 -36 -27.5 -61t-64.5 -25q-39 0 -66.5 25t-27.5 61z" />
    <glyph glyph-name="Hcircumflex.sc" horiz-adv-x="1275" 
d="M193 0v1200h122v-547h646v547h122v-1200h-122v539h-646v-539h-122zM391 1352l170 239h152l170 -239h-121l-125 151l-123 -151h-123z" />
    <glyph glyph-name="Hbar.sc" horiz-adv-x="1294" 
d="M78 901v86h125v213h123v-213h643v213h123v-213h127v-86h-127v-901h-123v537h-643v-537h-123v901h-125zM326 653h643v248h-643v-248z" />
    <glyph glyph-name="Itilde.sc" horiz-adv-x="507" 
d="M27 1393q6 100 48.5 145t100.5 45q33 0 61.5 -18t52 -36t44.5 -18t38.5 17.5t18.5 54.5h92q-7 -98 -50 -141t-99 -43q-34 0 -63 17.5t-52 35.5t-43 18q-21 0 -38.5 -19t-18.5 -58h-92zM193 0v1200h122v-1200h-122z" />
    <glyph glyph-name="Imacron.sc" horiz-adv-x="507" 
d="M45 1434v114h418v-114h-418zM193 0v1200h122v-1200h-122z" />
    <glyph glyph-name="Iogonek.sc" horiz-adv-x="507" 
d="M139 -129q7 21 27.5 67.5t26.5 61.5v1200h122v-1200h-57l-33 -154q-15 -82 43 -104q37 -15 72 10t35 68l94 8q0 -73 -45.5 -125.5t-106.5 -58.5q-101 -10 -154 65.5t-24 161.5z" />
    <glyph glyph-name="IJ.sc" horiz-adv-x="1015" 
d="M193 0v1200h122v-1200h-122zM352 -432l13 121q11 -4 48.5 -9.5t51.5 -5.5q121 0 178 73.5t57 189.5v1263h123v-1263q0 -81 -19.5 -148.5t-60.5 -121t-112 -83.5t-166 -30q-59 0 -113 14z" />
    <glyph glyph-name="Jcircumflex.sc" horiz-adv-x="507" 
d="M-156 -432l13 121q11 -4 48.5 -9.5t51.5 -5.5q121 0 178.5 73.5t57.5 189.5v1263h122v-1263q0 -81 -19.5 -148.5t-60.5 -121t-112 -83.5t-166 -30q-59 0 -113 14zM6 1352l170 239h152l170 -239h-121l-125 151l-123 -151h-123z" />
    <glyph glyph-name="Lacute.sc" horiz-adv-x="878" 
d="M193 0v1200h122v-1079h506v-121h-628zM195 1350l129 239h151l-156 -239h-124z" />
    <glyph glyph-name="Lcaron.sc" horiz-adv-x="878" 
d="M193 0v1200h122v-1079h506v-121h-628zM463 852q103 144 100 348h125q-9 -116 -44 -217.5t-105 -153.5z" />
    <glyph glyph-name="Ldot.sc" horiz-adv-x="878" 
d="M193 0v1200h122v-1079h506v-121h-628zM469 496q0 38 26.5 63t65.5 25q38 0 65 -25t27 -63q0 -36 -27.5 -61t-64.5 -25q-38 0 -65 24.5t-27 61.5z" />
    <glyph glyph-name="Nacute.sc" horiz-adv-x="1232" 
d="M193 0v1200h129l596 -981v981h122v-1200h-125l-600 987v-987h-122zM545 1352l131 239h149l-155 -239h-125z" />
    <glyph glyph-name="Ncaron.sc" horiz-adv-x="1232" 
d="M193 0v1200h129l596 -981v981h122v-1200h-125l-600 987v-987h-122zM369 1591h123l124 -149l123 149h123l-170 -239h-153z" />
    <glyph glyph-name="Omacron.sc" horiz-adv-x="1433" 
d="M113 598q0 168 79 309t217.5 223t305.5 82q168 0 307.5 -82t219 -223t79.5 -309t-79.5 -309.5t-219 -224t-307.5 -82.5q-167 0 -305.5 82.5t-217.5 224t-79 309.5zM236 598q0 -135 62.5 -248.5t172.5 -179.5t244 -66q204 0 343.5 143.5t139.5 350.5q0 205 -139.5 349.5
t-343.5 144.5q-133 0 -243.5 -66.5t-173 -180t-62.5 -247.5zM506 1434v114h420v-114h-420z" />
    <glyph glyph-name="Obreve.sc" horiz-adv-x="1433" 
d="M113 598q0 168 79 309t217.5 223t305.5 82q168 0 307.5 -82t219 -223t79.5 -309t-79.5 -309.5t-219 -224t-307.5 -82.5q-167 0 -305.5 82.5t-217.5 224t-79 309.5zM236 598q0 -135 62.5 -248.5t172.5 -179.5t244 -66q204 0 343.5 143.5t139.5 350.5q0 205 -139.5 349.5
t-343.5 144.5q-133 0 -243.5 -66.5t-173 -180t-62.5 -247.5zM500 1583h96q6 -51 38 -84t83 -33q56 0 87 34.5t34 82.5h96q0 -98 -59.5 -157.5t-157.5 -59.5q-108 0 -162.5 63.5t-54.5 153.5z" />
    <glyph glyph-name="Ohungarumlaut.sc" horiz-adv-x="1433" 
d="M113 598q0 168 79 309t217.5 223t305.5 82q168 0 307.5 -82t219 -223t79.5 -309t-79.5 -309.5t-219 -224t-307.5 -82.5q-167 0 -305.5 82.5t-217.5 224t-79 309.5zM236 598q0 -135 62.5 -248.5t172.5 -179.5t244 -66q204 0 343.5 143.5t139.5 350.5q0 205 -139.5 349.5
t-343.5 144.5q-133 0 -243.5 -66.5t-173 -180t-62.5 -247.5zM528 1352l123 239h133l-127 -239h-129zM741 1352l129 239h146l-152 -239h-123z" />
    <glyph glyph-name="Racute.sc" horiz-adv-x="1101" 
d="M193 0v1200h448q71 0 129 -21t96 -56t63.5 -83t36.5 -100t11 -109q0 -71 -17.5 -133t-54 -114t-99.5 -83.5t-147 -35.5l330 -465h-151l-328 465h-193v-465h-124zM317 586h314q60 0 104.5 20.5t69.5 55.5t37 77.5t12 91.5q0 48 -12 91t-36 79t-67 57t-100 21h-322v-493z
M412 1352l131 239h149l-155 -239h-125z" />
    <glyph glyph-name="Rcaron.sc" horiz-adv-x="1101" 
d="M193 0v1200h448q71 0 129 -21t96 -56t63.5 -83t36.5 -100t11 -109q0 -71 -17.5 -133t-54 -114t-99.5 -83.5t-147 -35.5l330 -465h-151l-328 465h-193v-465h-124zM305 1591h123l125 -149l123 149h123l-170 -239h-154zM317 586h314q60 0 104.5 20.5t69.5 55.5t37 77.5
t12 91.5q0 48 -12 91t-36 79t-67 57t-100 21h-322v-493z" />
    <glyph glyph-name="Sacute.sc" horiz-adv-x="1032" 
d="M119 344h123q0 -93 76 -166.5t194 -73.5q123 0 197.5 57.5t87.5 135.5q8 52 -6.5 95t-48 72.5t-75.5 49t-94 31.5l-159 37q-285 65 -285 303q0 95 54.5 171t140.5 116t184 40q163 0 270 -94.5t107 -249.5h-123q0 101 -72.5 162.5t-181.5 61.5q-102 0 -179 -58t-77 -149
q0 -145 188 -187l164 -36q77 -18 137.5 -48.5t106 -77t64.5 -113t6 -147.5q-23 -119 -128.5 -206.5t-277.5 -87.5q-86 0 -161 32t-125 83.5t-78.5 116t-28.5 130.5zM420 1352l129 239h151l-157 -239h-123z" />
    <glyph glyph-name="Scircumflex.sc" horiz-adv-x="1032" 
d="M119 344h123q0 -93 76 -166.5t194 -73.5q123 0 197.5 57.5t87.5 135.5q8 52 -6.5 95t-48 72.5t-75.5 49t-94 31.5l-159 37q-285 65 -285 303q0 95 54.5 171t140.5 116t184 40q163 0 270 -94.5t107 -249.5h-123q0 101 -72.5 162.5t-181.5 61.5q-102 0 -179 -58t-77 -149
q0 -145 188 -187l164 -36q77 -18 137.5 -48.5t106 -77t64.5 -113t6 -147.5q-23 -119 -128.5 -206.5t-277.5 -87.5q-86 0 -161 32t-125 83.5t-78.5 116t-28.5 130.5zM270 1352l170 239h154l170 -239h-123l-125 151l-123 -151h-123z" />
    <glyph glyph-name="Scedilla.sc" horiz-adv-x="1036" 
d="M121 344h123q0 -93 76 -166.5t194 -73.5q123 0 197.5 57.5t87.5 135.5q16 99 -48.5 160.5t-175.5 87.5l-161 37q-283 65 -283 303q0 95 54.5 171t140.5 116t184 40q163 0 270 -94.5t107 -249.5h-123q0 101 -72.5 162.5t-181.5 61.5q-102 0 -179 -58t-77 -149
q0 -145 188 -187l164 -36q77 -18 137.5 -48.5t106 -77t64.5 -113t6 -147.5q-19 -100 -97.5 -179.5t-204.5 -102.5l52 -111q2 -4 2 -12q23 -68 -7.5 -131t-99.5 -86q-81 -27 -152 24.5t-71 149.5l94 -8q0 -43 35 -68t72 -10q31 12 42.5 42.5t0.5 61.5l-51 136h-13
q-117 0 -210.5 53t-142 135t-48.5 174z" />
    <glyph glyph-name="Utilde.sc" horiz-adv-x="1214" 
d="M180 408v792h123v-792q0 -135 88.5 -219.5t216.5 -84.5q126 0 214.5 84.5t88.5 219.5v792h123v-792q0 -189 -124 -307.5t-302 -118.5q-179 0 -303.5 118.5t-124.5 307.5zM375 1362q6 100 48.5 145t100.5 45q26 0 50 -11.5t38.5 -25t33.5 -25t36 -11.5q20 0 38 17.5
t19 55.5h92q-7 -99 -50 -142.5t-99 -43.5q-34 0 -63 18.5t-52 37t-43 18.5q-21 0 -38.5 -19.5t-18.5 -58.5h-92z" />
    <glyph glyph-name="Umacron.sc" horiz-adv-x="1214" 
d="M180 408v792h123v-792q0 -135 88.5 -219.5t216.5 -84.5q126 0 214.5 84.5t88.5 219.5v792h123v-792q0 -189 -124 -307.5t-302 -118.5q-179 0 -303.5 118.5t-124.5 307.5zM406 1434v114h419v-114h-419z" />
    <glyph glyph-name="Ubreve.sc" horiz-adv-x="1214" 
d="M180 408v792h123v-792q0 -135 88.5 -219.5t216.5 -84.5q126 0 214.5 84.5t88.5 219.5v792h123v-792q0 -189 -124 -307.5t-302 -118.5q-179 0 -303.5 118.5t-124.5 307.5zM389 1583h98q6 -52 37 -84.5t82 -32.5q56 0 87 34.5t34 82.5h98q0 -98 -59.5 -157.5t-159.5 -59.5
q-108 0 -162.5 63.5t-54.5 153.5z" />
    <glyph glyph-name="Uring.sc" horiz-adv-x="1214" 
d="M180 408v792h123v-792q0 -135 88.5 -219.5t216.5 -84.5q126 0 214.5 84.5t88.5 219.5v792h123v-792q0 -189 -124 -307.5t-302 -118.5q-179 0 -303.5 118.5t-124.5 307.5zM436 1518q0 74 49 124t121 50t122 -50.5t50 -123.5q0 -71 -50 -120.5t-122 -49.5t-121 49.5
t-49 120.5zM526 1520q0 -34 23 -57t57 -23t58 23t24 57q0 33 -24 56t-58 23t-57 -22.5t-23 -56.5z" />
    <glyph glyph-name="Uhungarumlaut.sc" horiz-adv-x="1214" 
d="M180 408v792h123v-792q0 -135 88.5 -219.5t216.5 -84.5q126 0 214.5 84.5t88.5 219.5v792h123v-792q0 -189 -124 -307.5t-302 -118.5q-179 0 -303.5 118.5t-124.5 307.5zM403 1352l123 239h133l-127 -239h-129zM616 1352l127 239h148l-152 -239h-123z" />
    <glyph glyph-name="Uogonek.sc" horiz-adv-x="1214" 
d="M180 408v792h123v-792q0 -135 88.5 -219.5t216.5 -84.5q126 0 214.5 84.5t88.5 219.5v792h123v-792q0 -172 -102.5 -285.5t-259.5 -134.5l-56 -142q-12 -29 -0.5 -60.5t41.5 -43.5q40 -18 69.5 7.5t37.5 70.5l96 8q0 -73 -45 -124.5t-106 -57.5q-73 -7 -130 39t-63 112
q-3 46 16 86l52 101q-172 8 -288 124.5t-116 299.5z" />
    <glyph glyph-name="Wcircumflex.sc" horiz-adv-x="1626" 
d="M61 1200h132l329 -1005l244 845h94l244 -845l330 1005h131l-406 -1200h-115l-231 795l-231 -795h-115zM565 1352l170 239h154l170 -239h-123l-125 151l-123 -151h-123z" />
    <glyph glyph-name="Ycircumflex.sc" horiz-adv-x="1118" 
d="M45 1200h148l366 -512l373 512h147l-456 -643v-557h-127v557zM313 1352l170 239h154l170 -239h-123l-125 151l-123 -151h-123z" />
    <glyph glyph-name="Tcaron.sc" horiz-adv-x="1001" 
d="M57 1077v123h887v-123h-383v-1077h-123v1077h-381zM252 1591h123l125 -149l123 149h122l-170 -239h-153z" />
    <glyph glyph-name="Tbar.sc" horiz-adv-x="999" 
d="M57 1077v123h887v-123h-383v-372h232v-84h-232v-621h-123v621h-227v84h227v372h-381z" />
    <glyph glyph-name="Zacute.sc" horiz-adv-x="1019" 
d="M94 0v119l670 958h-645v123h796v-121l-671 -956h671v-123h-821zM406 1352l129 239h151l-158 -239h-122z" />
    <glyph glyph-name="Zdotaccent.sc" horiz-adv-x="1019" 
d="M94 0v119l670 958h-645v123h796v-121l-671 -956h671v-123h-821zM414 1501q0 38 26.5 63t65.5 25q38 0 65 -25t27 -63q0 -36 -27.5 -61t-64.5 -25q-38 0 -65 24.5t-27 61.5z" />
    <glyph glyph-name="Wgrave.sc" horiz-adv-x="1626" 
d="M61 1200h132l329 -1005l244 845h94l244 -845l330 1005h131l-406 -1200h-115l-231 795l-231 -795h-115zM584 1591h151l129 -239h-125z" />
    <glyph glyph-name="Wacute.sc" horiz-adv-x="1626" 
d="M61 1200h132l329 -1005l244 845h94l244 -845l330 1005h131l-406 -1200h-115l-231 795l-231 -795h-115zM766 1352l129 239h152l-158 -239h-123z" />
    <glyph glyph-name="Wdieresis.sc" horiz-adv-x="1626" 
d="M61 1200h132l329 -1005l244 845h94l244 -845l330 1005h131l-406 -1200h-115l-231 795l-231 -795h-115zM567 1499q0 38 26.5 62t65.5 24q38 0 64.5 -24.5t26.5 -61.5t-26.5 -61.5t-64.5 -24.5q-39 0 -65.5 24t-26.5 62zM872 1499q0 38 27 62t66 24t65.5 -24t26.5 -62
t-26.5 -62t-65.5 -24t-66 24t-27 62z" />
    <glyph glyph-name="Aringacute.sc" horiz-adv-x="1161" 
d="M55 0l461 1200h131l459 -1200h-131l-121 313h-547l-121 -313h-131zM350 428h461l-229 602zM408 1516q0 58 31 102t83 61l115 211h149l-141 -215q50 -23 76.5 -70.5t23.5 -105.5q-5 -65 -52.5 -108t-114.5 -43q-71 0 -120.5 49t-49.5 119zM500 1518q0 -34 22.5 -57
t57.5 -23q34 0 56.5 23t22.5 57t-22.5 57.5t-56.5 23.5q-35 0 -57.5 -23.5t-22.5 -57.5z" />
    <glyph glyph-name="AEacute.sc" horiz-adv-x="1685" 
d="M41 0l758 1200h751v-123h-565v-428h494v-123h-494v-403h584v-123h-707v313h-477l-199 -313h-145zM457 428h405v637zM848 1352l131 239h149l-155 -239h-125z" />
    <glyph glyph-name="Oslashacute.sc" horiz-adv-x="1431" 
d="M111 598q0 168 79 309t217.5 223t305.5 82q231 0 397 -147l147 154l68 -68l-149 -156q143 -168 143 -397q0 -168 -79.5 -309.5t-219 -224t-307.5 -82.5q-220 0 -387 141l-140 -143l-67 67l139 143q-147 174 -147 408zM233 598q0 -183 111 -319l680 698q-138 115 -311 115
q-133 0 -244 -66.5t-173.5 -180t-62.5 -247.5zM412 211q130 -107 301 -107q204 0 343.5 143.5t139.5 350.5q0 177 -106 311zM629 1352l129 239h151l-155 -239h-125z" />
    <glyph glyph-name="Ibreve.sc" horiz-adv-x="507" 
d="M37 1583h96q8 -52 39.5 -84.5t81.5 -32.5q56 0 87 34.5t34 82.5h98q0 -98 -59.5 -157.5t-159.5 -59.5q-108 0 -162.5 63.5t-54.5 153.5zM193 0v1200h122v-1200h-122z" />
    <glyph glyph-name="Eng.sc" horiz-adv-x="1232" 
d="M193 0v1200h129l596 -989v989h122v-1198q0 -77 -8 -138t-31.5 -121t-62.5 -100t-104.5 -64.5t-153.5 -24.5q-49 0 -111 16l11 121q11 -4 47 -8.5t51 -4.5q123 -1 181.5 71.5t58.5 187.5v65l-603 983v-985h-122z" />
    <glyph glyph-name="Ygrave.sc" horiz-adv-x="1118" 
d="M45 1200h148l366 -512l373 512h147l-456 -643v-557h-127v557zM377 1561h149l131 -240h-125z" />
    <glyph glyph-name="Gcommaaccent.sc" horiz-adv-x="1355" 
d="M113 598q0 168 79 309t217.5 223t305.5 82q220 0 387 -141l-88 -86q-130 107 -299 107q-133 0 -243.5 -66.5t-173 -180t-62.5 -247.5q0 -135 62.5 -248.5t172.5 -179.5t244 -66q188 0 299.5 99.5t122.5 273.5h-349v113h486q0 -301 -148 -454.5t-411 -153.5
q-167 0 -305.5 82.5t-217.5 224t-79 309.5zM555 -406q100 136 76 297h137q1 -116 -34 -196t-91 -125z" />
    <glyph glyph-name="Kcommaaccent.sc" horiz-adv-x="1017" 
d="M193 0v1200h122v-573l443 573h145l-465 -600l568 -600h-166l-525 555v-555h-122zM442 -406q100 136 76 297h137q1 -116 -34 -196t-91 -125z" />
    <glyph glyph-name="Lcommaaccent.sc" horiz-adv-x="878" 
d="M193 0v1200h122v-1079h506v-121h-628zM358 -406q100 136 76 297h137q1 -116 -34 -196t-91 -125z" />
    <glyph glyph-name="Ncommaaccent.sc" horiz-adv-x="1232" 
d="M193 0v1200h129l596 -981v981h122v-1200h-125l-600 987v-987h-122zM492 -406q99 134 75 297h138q1 -116 -34 -196t-91 -125z" />
    <glyph glyph-name="Rcommaaccent.sc" horiz-adv-x="1101" 
d="M193 0v1200h448q71 0 129 -21t96 -56t63.5 -83t36.5 -100t11 -109q0 -71 -17.5 -133t-54 -114t-99.5 -83.5t-147 -35.5l330 -465h-151l-328 465h-193v-465h-124zM317 586h314q60 0 104.5 20.5t69.5 55.5t37 77.5t12 91.5q0 48 -12 91t-36 79t-67 57t-100 21h-322v-493z
M424 -406q100 136 76 297h137q1 -116 -34 -196t-91 -125z" />
    <glyph glyph-name="Tcommaaccent.sc" horiz-adv-x="999" 
d="M57 1077v123h885v-123h-381v-1077h-123v1077h-381zM367 -406q99 134 75 297h138q1 -116 -34 -196t-91 -125z" />
    <glyph glyph-name="Scommaaccent.sc" horiz-adv-x="1032" 
d="M119 344h123q0 -94 76.5 -171t193.5 -77q122 0 196.5 60.5t88.5 140.5q8 52 -6.5 95t-48 72.5t-75.5 49t-94 31.5l-159 37q-285 65 -285 303q0 95 54.5 171t140.5 116t184 40q163 0 270 -94.5t107 -249.5h-123q0 101 -72.5 162.5t-181.5 61.5q-102 0 -179 -58t-77 -149
q0 -145 188 -187l164 -36q77 -18 137.5 -48.5t106 -77t64.5 -113t6 -147.5q-23 -119 -128.5 -206.5t-277.5 -87.5q-86 0 -161 32t-125 83.5t-78.5 116t-28.5 130.5zM381 -406q100 136 76 297h137q1 -116 -34 -196t-91 -125z" />
    <glyph glyph-name="Idotaccent.sc" horiz-adv-x="507" 
d="M162 1501q0 38 26.5 63t65.5 25t65.5 -25t26.5 -63q0 -37 -27 -61.5t-65 -24.5t-65 24.5t-27 61.5zM193 0v1200h122v-1200h-122z" />
    <glyph glyph-name="zero.numr" horiz-adv-x="747" 
d="M86 958q0 72 8 130.5t28 111.5t52 89.5t82.5 57.5t116.5 21q67 0 117.5 -21.5t82 -57t51.5 -89.5t27.5 -112t7.5 -130q0 -71 -7.5 -128.5t-27.5 -110t-51.5 -88.5t-82 -57t-117.5 -21q-82 0 -140 31t-89 89t-44.5 127t-13.5 158zM186 958q0 -68 8.5 -120t28.5 -96
t58 -67.5t92 -23.5t92 23.5t57.5 67.5t28 96t8.5 120q0 69 -8.5 121t-28 97t-57.5 68.5t-92 23.5t-92 -24t-58 -68.5t-28.5 -97t-8.5 -120.5z" />
    <glyph glyph-name="one.numr" horiz-adv-x="411" 
d="M55 1178v104l240 88v-811h-109v666z" />
    <glyph glyph-name="two.numr" horiz-adv-x="661" 
d="M70 1161q15 96 85.5 153.5t166.5 57.5q106 0 178.5 -66.5t72.5 -170.5q0 -105 -88 -207l-113.5 -134l-105.5 -126h307v-109h-493v49l326 393q59 72 59 134q0 57 -41 93t-102 36q-58 0 -101.5 -34.5t-50.5 -92.5z" />
    <glyph glyph-name="three.numr" horiz-adv-x="667" 
d="M55 715q16 8 45 25.5t45 25.5q20 -44 62.5 -73.5t93.5 -35.5q67 -5 120 35t56 99q3 58 -45 101.5t-113 43.5h-90v104h90q44 0 75.5 27.5t37.5 67.5q7 52 -22.5 87.5t-85.5 41.5q-90 9 -144 -72q-16 12 -44.5 35.5l-33.5 27.5q33 58 95.5 90.5t136.5 28.5q97 -6 160 -71.5
t61 -151.5q-2 -48 -27 -91t-69 -69q60 -21 97.5 -85t31.5 -130q-9 -102 -95.5 -168.5t-199.5 -58.5q-78 6 -142.5 51.5t-95.5 114.5z" />
    <glyph glyph-name="four.numr" horiz-adv-x="741" 
d="M39 725l444 637h82v-535h117v-102h-117v-166h-108v166h-418zM225 827h232v338z" />
    <glyph glyph-name="five.numr" horiz-adv-x="696" 
d="M61 729l89 64q24 -60 73 -99t105 -39q86 0 140 46.5t54 115.5q0 70 -49 108t-113 38q-61 0 -109 -14.5t-138 -59.5l-23 24l80 449h408v-105h-318l-41 -219q70 33 141 33q114 0 191.5 -67t77.5 -187q0 -122 -84 -196t-217 -74q-83 0 -154.5 50.5t-112.5 131.5z" />
    <glyph glyph-name="six.numr" horiz-adv-x="692" 
d="M90 827q-3 54 -3.5 98t3.5 103.5t14.5 105t32 93t52.5 78.5t79.5 51t110.5 20q50 -2 88.5 -14t77 -46.5t63.5 -92.5l-96 -41q-24 45 -60.5 68.5t-76.5 23.5q-87 0 -139 -84.5t-35 -210.5q31 102 166 102q107 0 179.5 -82.5t67.5 -191.5t-82.5 -183.5t-185.5 -70.5
q-107 5 -176.5 77.5t-79.5 196.5zM201 823q0 -67 43.5 -112.5t107.5 -48.5t108.5 40.5t47.5 108.5q3 66 -38 112.5t-105 49.5q-65 3 -113 -40.5t-51 -109.5z" />
    <glyph glyph-name="seven.numr" horiz-adv-x="651" 
d="M66 559l383 694h-369v109h553l-440 -803h-127z" />
    <glyph glyph-name="eight.numr" horiz-adv-x="704" 
d="M76 809q0 66 33 123.5t90 93.5q-60 54 -60 141q0 86 61 145.5t152 59.5t153 -60t62 -145q0 -87 -61 -141q57 -36 90 -93t33 -124q0 -109 -80 -184.5t-197 -75.5q-118 0 -197 75.5t-79 184.5zM184 809q0 -64 48.5 -109t119.5 -45t119.5 45t48.5 109t-48.5 111t-119.5 47
q-72 0 -120 -47.5t-48 -110.5zM246 1167q0 -42 30.5 -74.5t77.5 -31.5q43 0 74 32.5t31 73.5q0 40 -31 68.5t-76 28.5q-44 0 -75 -28.5t-31 -68.5z" />
    <glyph glyph-name="nine.numr" horiz-adv-x="692" 
d="M78 1116q5 109 82.5 183.5t185.5 70.5q107 -5 176.5 -77.5t79.5 -196.5q3 -54 3.5 -98t-3.5 -103.5t-14.5 -105t-32 -93t-52.5 -78.5t-79.5 -51t-110.5 -20q-50 2 -88.5 14t-77 46.5t-63.5 92.5l96 41q24 -45 60.5 -68.5t76.5 -23.5q87 0 139.5 84.5t35.5 210.5
q-31 -102 -166 -102q-107 0 -180 82.5t-68 191.5zM184 1112q-3 -66 38.5 -112.5t105.5 -49.5q65 -3 113 40.5t51 109.5q0 67 -44 113t-108 49t-108.5 -41t-47.5 -109z" />
    <glyph glyph-name="zero.dnom" horiz-adv-x="745" 
d="M86 399q0 72 8 130.5t28 111.5t52 89.5t82.5 57.5t116.5 21q67 0 117.5 -21.5t82 -57t51.5 -89.5t27.5 -112t7.5 -130q0 -71 -7.5 -128.5t-27.5 -110t-51.5 -88.5t-82 -57t-117.5 -21q-82 0 -140 31t-89 89t-44.5 127t-13.5 158zM186 399q0 -68 8.5 -120t28.5 -96
t58 -67.5t92 -23.5t92 23.5t57.5 67.5t28 96t8.5 120q0 69 -8.5 121t-28 97t-57.5 68.5t-92 23.5t-92 -24t-58 -68.5t-28.5 -97t-8.5 -120.5z" />
    <glyph glyph-name="one.dnom" horiz-adv-x="413" 
d="M57 618v105l240 88v-811h-109v666z" />
    <glyph glyph-name="two.dnom" horiz-adv-x="659" 
d="M70 602q15 96 85.5 153.5t166.5 57.5q106 0 178.5 -67t72.5 -171t-88 -206l-113.5 -134l-105.5 -126h307v-109h-493v49l326 393q59 72 59 133q0 58 -41 94t-102 36q-58 0 -101.5 -34.5t-50.5 -92.5z" />
    <glyph glyph-name="three.dnom" horiz-adv-x="667" 
d="M55 156q15 8 44.5 25.5t45.5 25.5q20 -44 62.5 -73.5t93.5 -35.5q67 -5 120 34.5t56 98.5q3 58 -45 102t-113 44h-90v104h90q44 0 75.5 27t37.5 67q7 52 -22.5 88t-85.5 42q-90 9 -144 -72q-16 12 -44.5 35.5l-33.5 27.5q33 58 95.5 90.5t136.5 28.5q97 -6 160 -71.5
t61 -151.5q-2 -48 -27 -91t-69 -69q60 -21 97.5 -85t31.5 -130q-9 -102 -95.5 -168.5t-199.5 -58.5q-78 6 -142.5 51.5t-95.5 114.5z" />
    <glyph glyph-name="four.dnom" horiz-adv-x="731" 
d="M31 166l444 637h82v-535h117v-102h-117v-166h-108v166h-418zM217 268h232v338z" />
    <glyph glyph-name="five.dnom" horiz-adv-x="698" 
d="M61 170l89 63q24 -60 73 -98.5t105 -38.5q86 0 140 46.5t54 115.5q0 70 -49 107.5t-113 37.5q-61 0 -109.5 -14t-137.5 -59l-23 24l80 449h408v-105h-318l-41 -219q70 33 141 33q114 0 191.5 -67t77.5 -187q0 -122 -84 -196t-217 -74q-83 0 -154.5 50.5t-112.5 131.5z
" />
    <glyph glyph-name="six.dnom" horiz-adv-x="692" 
d="M90 268q-3 54 -3.5 98t3.5 103.5t14.5 105t32 93t52.5 78.5t79.5 51t110.5 20q50 -2 88.5 -14t77 -46.5t63.5 -92.5l-96 -41q-24 45 -60.5 68.5t-76.5 23.5q-87 0 -139 -84.5t-35 -210.5q31 102 166 102q107 0 179.5 -82.5t67.5 -191.5t-82.5 -183.5t-185.5 -70.5
q-107 5 -176.5 77.5t-79.5 196.5zM201 264q0 -67 43.5 -113t107.5 -49t108.5 41t47.5 109q3 66 -38 112.5t-105 49.5q-65 3 -113 -40.5t-51 -109.5z" />
    <glyph glyph-name="seven.dnom" horiz-adv-x="655" 
d="M63 0l383 694h-368v109h553l-441 -803h-127z" />
    <glyph glyph-name="eight.dnom" horiz-adv-x="704" 
d="M76 250q0 66 33 123.5t90 93.5q-60 54 -60 141q0 86 61 145.5t152 59.5t153 -60t62 -145q0 -87 -61 -141q57 -36 90 -93t33 -124q0 -109 -80 -184.5t-197 -75.5q-118 0 -197 75.5t-79 184.5zM184 250q0 -64 48.5 -109t119.5 -45t119.5 45t48.5 109t-48.5 111t-119.5 47
q-72 0 -120 -47.5t-48 -110.5zM246 608q0 -42 30.5 -74.5t77.5 -31.5q43 0 74 32.5t31 73.5q0 40 -31 68.5t-76 28.5q-44 0 -75 -28.5t-31 -68.5z" />
    <glyph glyph-name="nine.dnom" horiz-adv-x="692" 
d="M78 557q5 109 82.5 183.5t185.5 70.5q107 -5 176.5 -77.5t79.5 -196.5q3 -54 3.5 -98t-3.5 -103.5t-14.5 -105t-32 -93t-52.5 -78.5t-79.5 -51t-110.5 -20q-50 2 -88.5 14t-77 46.5t-63.5 92.5l96 41q24 -45 60.5 -68.5t76.5 -23.5q87 0 139.5 84.5t35.5 210.5
q-31 -102 -166 -102q-107 0 -180 82.5t-68 191.5zM184 553q-3 -66 38.5 -112.5t105.5 -49.5q65 -3 113 40.5t51 109.5q0 67 -44 112.5t-108 48.5t-108.5 -40.5t-47.5 -108.5z" />
    <glyph glyph-name="l.alt1" horiz-adv-x="550" 
d="M154 408v1067h137v-1067q-1 -45 2 -78.5t14 -73.5t31.5 -66t58.5 -43.5t90 -17.5h82v-129h-82q-333 0 -333 408z" />
    <glyph glyph-name="a.alt1" horiz-adv-x="1105" 
d="M88 268q0 62 22.5 113.5t69 92.5t126.5 64t188 23q123 0 321 -63v82q0 120 -79 191t-220 71q-73 0 -149 -33t-131 -90l-93 94q124 164 387 164q205 0 313.5 -101t108.5 -296v-580h-137v133q-61 -72 -169 -112.5t-204 -40.5q-162 0 -258 76.5t-96 211.5zM229 268
q0 -69 55 -112t162 -43q58 0 125 17.5t136 60.5t106 102v82q-82 28 -172 43.5t-147 15.5q-79 0 -134 -15t-82 -41t-38 -52.5t-11 -57.5z" />
    <glyph glyph-name="y.alt1" horiz-adv-x="1040" 
d="M47 956h146l325 -786l328 786h145l-465 -1122q-74 -166 -158.5 -237.5t-226.5 -71.5q-45 0 -92 12v121q65 -10 88 -10q53 0 92 14.5t69.5 48.5t51.5 71.5t49 102.5l45 115z" />
    <glyph glyph-name="lslash.alt1" horiz-adv-x="569" 
d="M29 586v121l141 90v678h137v-590l172 110v-121l-172 -110v-356q-1 -44 2 -78.5t14.5 -74t32 -65.5t58.5 -43.5t90 -17.5h82v-129h-82q-334 0 -334 408v268z" />
    <glyph glyph-name="lacute.alt1" horiz-adv-x="550" 
d="M154 408v1067h137v-1067q-1 -45 2 -78.5t14 -73.5t31.5 -66t58.5 -43.5t90 -17.5h82v-129h-82q-333 0 -333 408zM158 1591l143 275h168l-172 -275h-139z" />
    <glyph glyph-name="lcommaaccent.alt1" horiz-adv-x="550" 
d="M154 408v1067h137v-1067q-1 -45 2 -78.5t14 -73.5t31.5 -66t58.5 -43.5t90 -17.5h82v-129h-82q-333 0 -333 408zM281 -479q119 165 88 348h155q1 -133 -40 -228.5t-105 -146.5z" />
    <glyph glyph-name="lcaron.alt1" horiz-adv-x="550" 
d="M154 408v1067h137v-1067q-1 -45 2 -78.5t14 -73.5t31.5 -66t58.5 -43.5t90 -17.5h82v-129h-82q-333 0 -333 408zM385 1018q122 168 119 409h155q-11 -151 -62.5 -268.5t-113.5 -167.5z" />
    <glyph glyph-name="aacute.alt1" horiz-adv-x="1105" 
d="M88 268q0 62 22.5 113.5t69 92.5t126.5 64t188 23q123 0 321 -63v82q0 120 -79 191t-220 71q-73 0 -149 -33t-131 -90l-93 94q124 164 387 164q205 0 313.5 -101t108.5 -296v-580h-137v133q-61 -72 -169 -112.5t-204 -40.5q-162 0 -258 76.5t-96 211.5zM229 268
q0 -69 55 -112t162 -43q58 0 125 17.5t136 60.5t106 102v82q-82 28 -172 43.5t-147 15.5q-79 0 -134 -15t-82 -41t-38 -52.5t-11 -57.5zM475 1137l143 274h168l-172 -274h-139z" />
    <glyph glyph-name="agrave.alt1" horiz-adv-x="1105" 
d="M88 268q0 62 22.5 113.5t69 92.5t126.5 64t188 23q123 0 321 -63v82q0 120 -79 191t-220 71q-73 0 -149 -33t-131 -90l-93 94q124 164 387 164q205 0 313.5 -101t108.5 -296v-580h-137v133q-61 -72 -169 -112.5t-204 -40.5q-162 0 -258 76.5t-96 211.5zM229 268
q0 -69 55 -112t162 -43q58 0 125 17.5t136 60.5t106 102v82q-82 28 -172 43.5t-147 15.5q-79 0 -134 -15t-82 -41t-38 -52.5t-11 -57.5zM311 1411h168l144 -274h-140z" />
    <glyph glyph-name="acircumflex.alt1" horiz-adv-x="1105" 
d="M88 268q0 62 22.5 113.5t69 92.5t126.5 64t188 23q123 0 321 -63v82q0 120 -79 191t-220 71q-73 0 -149 -33t-131 -90l-93 94q124 164 387 164q205 0 313.5 -101t108.5 -296v-580h-137v133q-61 -72 -169 -112.5t-204 -40.5q-162 0 -258 76.5t-96 211.5zM229 268
q0 -69 55 -112t162 -43q58 0 125 17.5t136 60.5t106 102v82q-82 28 -172 43.5t-147 15.5q-79 0 -134 -15t-82 -41t-38 -52.5t-11 -57.5zM254 1137l195 274h178l194 -274h-139l-145 176l-144 -176h-139z" />
    <glyph glyph-name="adieresis.alt1" horiz-adv-x="1105" 
d="M88 268q0 62 22.5 113.5t69 92.5t126.5 64t188 23q123 0 321 -63v82q0 120 -79 191t-220 71q-73 0 -149 -33t-131 -90l-93 94q124 164 387 164q205 0 313.5 -101t108.5 -296v-580h-137v133q-61 -72 -169 -112.5t-204 -40.5q-162 0 -258 76.5t-96 211.5zM229 268
q0 -69 55 -112t162 -43q58 0 125 17.5t136 60.5t106 102v82q-82 28 -172 43.5t-147 15.5q-79 0 -134 -15t-82 -41t-38 -52.5t-11 -57.5zM248 1313q0 42 30.5 70t73.5 28t74 -28t31 -70t-31 -70.5t-74 -28.5t-73.5 28.5t-30.5 70.5zM610 1313q0 42 31 70t74 28t73.5 -28
t30.5 -70t-30.5 -70.5t-73.5 -28.5t-74 28.5t-31 70.5z" />
    <glyph glyph-name="atilde.alt1" horiz-adv-x="1103" 
d="M86 268q0 62 22.5 113.5t69 92.5t126.5 64t188 23q123 0 321 -63v82q0 120 -79 191t-220 71q-74 0 -150.5 -33t-130.5 -90l-92 94q124 164 387 164q205 0 313.5 -101t108.5 -296v-580h-137v133q-61 -72 -169 -112.5t-204 -40.5q-162 0 -258 76.5t-96 211.5zM227 268
q0 -69 55 -112t162 -43q58 0 125 17.5t136 60.5t106 102v82q-82 28 -172 43.5t-147 15.5q-79 0 -134 -15t-82 -41t-38 -52.5t-11 -57.5zM287 1190q7 116 57.5 168.5t116.5 52.5q39 0 72.5 -21.5t61 -43t52.5 -21.5q26 0 47.5 20t22.5 66h104q-7 -115 -57 -165t-117 -50
q-38 0 -71.5 21.5t-61.5 43t-53 21.5t-47 -23t-23 -69h-104z" />
    <glyph glyph-name="aring.alt1" horiz-adv-x="1105" 
d="M88 268q0 62 22.5 113.5t69 92.5t126.5 64t188 23q123 0 321 -63v82q0 120 -79 191t-220 71q-73 0 -149 -33t-131 -90l-93 94q124 164 387 164q205 0 313.5 -101t108.5 -296v-580h-137v133q-61 -72 -169 -112.5t-204 -40.5q-162 0 -258 76.5t-96 211.5zM229 268
q0 -69 55 -112t162 -43q58 0 125 17.5t136 60.5t106 102v82q-82 28 -172 43.5t-147 15.5q-79 0 -134 -15t-82 -41t-38 -52.5t-11 -57.5zM340 1333q0 85 57 143t140 58q85 0 142.5 -58t57.5 -143q0 -83 -57.5 -139.5t-142.5 -56.5q-83 0 -140 56.5t-57 139.5zM446 1335
q0 -40 26.5 -66t66.5 -26q39 0 65.5 26.5t26.5 65.5q0 38 -27 65t-65 27q-39 0 -66 -26.5t-27 -65.5z" />
    <glyph glyph-name="amacron.alt1" horiz-adv-x="1103" 
d="M86 268q0 62 22.5 113.5t69 92.5t126.5 64t188 23q123 0 321 -63v82q0 120 -79 191t-220 71q-74 0 -150.5 -33t-130.5 -90l-92 94q124 164 387 164q205 0 313.5 -101t108.5 -296v-580h-137v133q-61 -72 -169 -112.5t-204 -40.5q-162 0 -258 76.5t-96 211.5zM227 268
q0 -69 55 -112t162 -43q58 0 125 17.5t136 60.5t106 102v82q-82 28 -172 43.5t-147 15.5q-79 0 -134 -15t-82 -41t-38 -52.5t-11 -57.5zM291 1241v129h487v-129h-487z" />
    <glyph glyph-name="abreve.alt1" horiz-adv-x="1105" 
d="M88 268q0 62 22.5 113.5t69 92.5t126.5 64t188 23q123 0 321 -63v82q0 120 -79 191t-220 71q-73 0 -149 -33t-131 -90l-93 94q124 164 387 164q205 0 313.5 -101t108.5 -296v-580h-137v133q-61 -72 -169 -112.5t-204 -40.5q-162 0 -258 76.5t-96 211.5zM229 268
q0 -69 55 -112t162 -43q58 0 125 17.5t136 60.5t106 102v82q-82 28 -172 43.5t-147 15.5q-79 0 -134 -15t-82 -41t-38 -52.5t-11 -57.5zM289 1411h106q9 -62 48 -101.5t100 -39.5q68 0 105 41t42 100h107q0 -116 -69.5 -186t-184.5 -70q-126 0 -190 74.5t-64 181.5z" />
    <glyph glyph-name="aogonek.alt1" horiz-adv-x="1103" 
d="M86 268q0 62 22.5 113.5t69 92.5t126.5 64t188 23q123 0 321 -63v82q0 120 -79 191t-220 71q-74 0 -150.5 -33t-130.5 -90l-92 94q124 164 387 164q205 0 313.5 -101t108.5 -296v-580h-47l-37 -182q-8 -40 4.5 -74.5t47.5 -50.5q35 -13 70 2.5t50 50.5q9 18 9 39l108 8
q0 -41 -18 -88q-34 -78 -107.5 -109t-150.5 1q-77 31 -105 105t-2 159l41 139v133q-61 -72 -169 -112.5t-204 -40.5q-162 0 -258 76.5t-96 211.5zM227 268q0 -69 55 -112t162 -43q58 0 125 17.5t136 60.5t106 102v82q-82 28 -172 43.5t-147 15.5q-79 0 -134 -15t-82 -41
t-38 -52.5t-11 -57.5z" />
    <glyph glyph-name="yacute.alt1" horiz-adv-x="1040" 
d="M47 956h146l325 -786l328 786h145l-465 -1122q-74 -166 -158.5 -237.5t-226.5 -71.5q-45 0 -92 12v121q65 -10 88 -10q53 0 92 14.5t69.5 48.5t51.5 71.5t49 102.5l45 115zM465 1137l143 274h168l-172 -274h-139z" />
    <glyph glyph-name="ydieresis.alt1" horiz-adv-x="1040" 
d="M47 956h146l325 -786l328 786h145l-465 -1122q-74 -166 -158.5 -237.5t-226.5 -71.5q-45 0 -92 12v121q65 -10 88 -10q53 0 92 14.5t69.5 48.5t51.5 71.5t49 102.5l45 115zM248 1313q0 42 30.5 70t73.5 28t74 -28t31 -70t-31 -70.5t-74 -28.5t-73.5 28.5t-30.5 70.5z
M610 1313q0 42 31 70t74 28t73.5 -28t30.5 -70t-30.5 -70.5t-73.5 -28.5t-74 28.5t-31 70.5z" />
    <glyph glyph-name="ae.alt1" horiz-adv-x="1855" 
d="M88 268q0 62 22.5 113.5t69 92.5t126.5 64t188 23q123 0 321 -63v82q0 120 -79 191t-220 71q-73 0 -149 -33t-131 -90l-93 94q124 164 387 164q285 0 377 -189q66 90 168 139.5t223 49.5q207 0 338 -135.5t131 -360.5q0 -45 -2 -63h-811q19 -138 114 -220.5t230 -82.5
q97 0 176 44t123 122q23 -6 71.5 -16.5l66.5 -14.5q-58 -127 -174.5 -198.5t-262.5 -71.5q-213 0 -346 139v-119h-137v133q-61 -72 -169 -112.5t-204 -40.5q-162 0 -258 76.5t-96 211.5zM229 268q0 -69 55 -112t162 -43q58 0 125 17.5t136 60.5t106 102v82q-82 28 -172 43.5
t-147 15.5q-79 0 -134 -15t-82 -41t-38 -52.5t-11 -57.5zM954 545h674q-20 137 -109 217t-221 80q-135 0 -229.5 -81t-114.5 -216z" />
    <glyph glyph-name="aeacute.alt1" horiz-adv-x="1853" 
d="M86 268q0 62 22.5 113.5t69 92.5t126.5 64t188 23q123 0 321 -63v82q0 120 -79 191t-220 71q-74 0 -150.5 -33t-130.5 -90l-92 94q124 164 387 164q285 0 377 -189q66 90 168 139.5t223 49.5q207 0 338 -135.5t131 -360.5q0 -45 -2 -63h-811q19 -138 114 -220.5
t230 -82.5q97 0 176 44t123 122q23 -6 71.5 -16.5l66.5 -14.5q-58 -127 -174.5 -198.5t-262.5 -71.5q-213 0 -346 139v-119h-137v133q-61 -72 -169 -112.5t-204 -40.5q-162 0 -258 76.5t-96 211.5zM227 268q0 -69 55 -112t162 -43q58 0 125 17.5t136 60.5t106 102v82
q-82 28 -172 43.5t-147 15.5q-79 0 -134 -15t-82 -41t-38 -52.5t-11 -57.5zM850 1137l143 274h168l-172 -274h-139zM952 545h674q-20 137 -109 217t-221 80q-135 0 -229.5 -81t-114.5 -216z" />
    <glyph glyph-name="ycircumflex.alt1" horiz-adv-x="1040" 
d="M47 956h146l325 -786l328 786h145l-465 -1122q-74 -166 -158.5 -237.5t-226.5 -71.5q-45 0 -92 12v121q65 -10 88 -10q53 0 92 14.5t69.5 48.5t51.5 71.5t49 102.5l45 115zM240 1137l194 274h178l195 -274h-139l-146 176l-143 -176h-139z" />
    <glyph glyph-name="ldot.alt1" horiz-adv-x="608" 
d="M154 408v1067h137v-1067q-1 -45 2 -78.5t14 -73.5t31.5 -66t58.5 -43.5t90 -17.5h82v-129h-82q-333 0 -333 408zM403 539q0 45 33.5 75.5t79.5 30.5t79.5 -30.5t33.5 -75.5t-33.5 -76t-79.5 -31t-79.5 31t-33.5 76z" />
    <glyph glyph-name="t.alt1" horiz-adv-x="673" 
d="M66 834v122h172v256l137 39v-295h203v-122h-203v-484q-1 -43 2 -72t14 -60t31.5 -48.5t58 -29t90.5 -11.5h41v-129h-41q-183 0 -258 85.5t-75 264.5v484h-172z" />
    <glyph glyph-name="tcaron.alt1" horiz-adv-x="673" 
d="M66 834v122h172v256l137 39v-295h203v-122h-203v-484q-1 -43 2 -72t14 -60t31.5 -48.5t58 -29t90.5 -11.5h41v-129h-41q-183 0 -258 85.5t-75 264.5v484h-172zM444 1100q57 78 80.5 155t7.5 172h156q2 -236 -145 -354z" />
    <glyph glyph-name="tbar.alt1" horiz-adv-x="677" 
d="M70 834v122h172v256l137 39v-295h203v-122h-203v-256h166v-95h-166v-133q-1 -43 2 -72t14 -60t31.5 -48.5t58 -29t90.5 -11.5h41v-129h-41q-183 0 -258 85.5t-75 264.5v133h-150v95h150v256h-172z" />
    <glyph glyph-name="tcommaaccent.alt1" horiz-adv-x="673" 
d="M66 834v122h172v256l137 39v-295h203v-122h-203v-484q-1 -43 2 -72t14 -60t31.5 -48.5t58 -29t90.5 -11.5h41v-129h-41q-183 0 -258 85.5t-75 264.5v484h-172zM346 -479q119 165 88 348h156q1 -133 -40.5 -228.5t-105.5 -146.5z" />
    <glyph glyph-name="T.sc.alt1" horiz-adv-x="999" 
d="M57 1077v123h885v-123h-381v-1077h-123v1077h-381z" />
    <glyph glyph-name="Tcaron.sc.alt1" horiz-adv-x="1001" 
d="M57 1077v123h887v-123h-383v-1077h-123v1077h-381zM252 1591h123l125 -149l123 149h122l-170 -239h-153z" />
    <glyph glyph-name="Tbar.sc.alt1" horiz-adv-x="999" 
d="M57 1077v123h887v-123h-383v-372h232v-84h-232v-621h-123v621h-227v84h227v372h-381z" />
    <glyph glyph-name="Tcommaaccent.sc.alt1" horiz-adv-x="999" 
d="M57 1077v123h885v-123h-381v-1077h-123v1077h-381zM367 -406q99 134 75 297h138q1 -116 -34 -196t-91 -125z" />
    <glyph glyph-name="aringacute.alt1" horiz-adv-x="1105" 
d="M88 268q0 62 22.5 113.5t69 92.5t126.5 64t188 23q123 0 321 -63v82q0 120 -79 191t-220 71q-73 0 -149 -33t-131 -90l-93 94q124 164 387 164q205 0 313.5 -101t108.5 -296v-580h-137v133q-61 -72 -169 -112.5t-204 -40.5q-162 0 -258 76.5t-96 211.5zM229 268
q0 -69 55 -112t162 -43q58 0 125 17.5t136 60.5t106 102v82q-82 28 -172 43.5t-147 15.5q-79 0 -134 -15t-82 -41t-38 -52.5t-11 -57.5zM352 1333q0 66 36 117.5t95 71.5l129 247h168l-157 -249q58 -22 92.5 -72.5t34.5 -114.5q0 -83 -58 -139.5t-143 -56.5q-83 0 -140 56.5
t-57 139.5zM459 1335q0 -40 26 -66t66 -26q39 0 65.5 26.5t26.5 65.5q0 38 -27 65t-65 27q-39 0 -65.5 -26.5t-26.5 -65.5z" />
    </font>
</defs>
</svg>
